Jinko-Medium.ufo
<glyph name="exclam" format="1">
  <advance width="481"/>
  <unicode hex="0021"/>
  <outline>
    <contour>
      <point x="240" y="-8" type="curve" smooth="yes"/>
      <point x="333" y="-8"/>
      <point x="406" y="65"/>
      <point x="406" y="158" type="curve" smooth="yes"/>
      <point x="406" y="252"/>
      <point x="333" y="326"/>
      <point x="240" y="326" type="curve" smooth="yes"/>
      <point x="146" y="326"/>
      <point x="73" y="252"/>
      <point x="73" y="158" type="curve" smooth="yes"/>
      <point x="73" y="65"/>
      <point x="146" y="-8"/>
    </contour>
    <contour>
      <point x="195" y="503" type="line"/>
      <point x="288" y="503" type="line"/>
      <point x="404" y="1481" type="line"/>
      <point x="81" y="1481" type="line"/>
    </contour>
  </outline>
</glyph>
<glyph name="quotedbl" format="1">
  <advance width="787"/>
  <unicode hex="0022"/>
  <outline>
    <contour>
      <point x="125" y="950" type="line"/>
      <point x="275" y="950" type="line"/>
      <point x="319" y="1481" type="line"/>
      <point x="81" y="1481" type="line"/>
    </contour>
    <contour>
      <point x="514" y="950" type="line"/>
      <point x="663" y="950" type="line"/>
      <point x="708" y="1481" type="line"/>
      <point x="471" y="1481" type="line"/>
    </contour>
  </outline>
</glyph>
<glyph name="numbersign" format="1">
  <advance width="1302"/>
  <unicode hex="0023"/>
  <outline>
    <contour>
      <point x="188" y="38" type="line"/>
      <point x="354" y="38" type="line"/>
      <point x="440" y="429" type="line"/>
      <point x="732" y="429" type="line"/>
      <point x="649" y="38" type="line"/>
      <point x="814" y="38" type="line"/>
      <point x="898" y="429" type="line"/>
      <point x="1195" y="429" type="line"/>
      <point x="1195" y="560" type="line"/>
      <point x="927" y="560" type="line"/>
      <point x="1022" y="967" type="line"/>
      <point x="1272" y="967" type="line"/>
      <point x="1272" y="1093" type="line"/>
      <point x="1052" y="1093" type="line"/>
      <point x="1126" y="1432" type="line"/>
      <point x="956" y="1432" type="line"/>
      <point x="883" y="1093" type="line"/>
      <point x="594" y="1093" type="line"/>
      <point x="666" y="1432" type="line"/>
      <point x="497" y="1432" type="line"/>
      <point x="424" y="1093" type="line"/>
      <point x="118" y="1093" type="line"/>
      <point x="118" y="967" type="line"/>
      <point x="396" y="967" type="line"/>
      <point x="301" y="560" type="line"/>
      <point x="31" y="560" type="line"/>
      <point x="31" y="429" type="line"/>
      <point x="273" y="429" type="line"/>
    </contour>
    <contour>
      <point x="469" y="557" type="line"/>
      <point x="564" y="970" type="line"/>
      <point x="858" y="970" type="line"/>
      <point x="763" y="557" type="line"/>
    </contour>
  </outline>
</glyph>
<glyph name="dollar" format="1">
  <advance width="1163"/>
  <unicode hex="0024"/>
  <outline>
    <contour>
      <point x="538" y="-171" type="line"/>
      <point x="659" y="-171" type="line"/>
      <point x="659" y="-14" type="line"/>
      <point x="933" y="16"/>
      <point x="1123" y="155"/>
      <point x="1123" y="396" type="curve" smooth="yes"/>
      <point x="1123" y="643"/>
      <point x="1014" y="738"/>
      <point x="659" y="836" type="curve"/>
      <point x="659" y="1318" type="line"/>
      <point x="784" y="1315"/>
      <point x="915" y="1280"/>
      <point x="1025" y="1208" type="curve"/>
      <point x="1054" y="1208" type="line"/>
      <point x="1079" y="1383" type="line"/>
      <point x="965" y="1447"/>
      <point x="813" y="1493"/>
      <point x="659" y="1501" type="curve"/>
      <point x="659" y="1627" type="line"/>
      <point x="538" y="1627" type="line"/>
      <point x="538" y="1499" type="line"/>
      <point x="260" y="1475"/>
      <point x="71" y="1320"/>
      <point x="71" y="1073" type="curve" smooth="yes"/>
      <point x="71" y="828"/>
      <point x="210" y="727"/>
      <point x="538" y="651" type="curve"/>
      <point x="538" y="161" type="line"/>
      <point x="397" y="164"/>
      <point x="209" y="208"/>
      <point x="98" y="322" type="curve"/>
      <point x="68" y="322" type="line"/>
      <point x="35" y="126" type="line"/>
      <point x="167" y="39"/>
      <point x="330" y="-17"/>
      <point x="538" y="-19" type="curve"/>
    </contour>
    <contour>
      <point x="664" y="170" type="curve" smooth="yes"/>
      <point x="664" y="170"/>
      <point x="659" y="169"/>
      <point x="659" y="169" type="curve"/>
      <point x="659" y="622" type="line"/>
      <point x="856" y="564"/>
      <point x="903" y="488"/>
      <point x="903" y="380" type="curve" smooth="yes"/>
      <point x="903" y="289"/>
      <point x="830" y="199"/>
    </contour>
    <contour>
      <point x="538" y="865" type="line"/>
      <point x="354" y="910"/>
      <point x="288" y="979"/>
      <point x="288" y="1079" type="curve" smooth="yes"/>
      <point x="288" y="1190"/>
      <point x="377" y="1287"/>
      <point x="538" y="1313" type="curve"/>
    </contour>
  </outline>
</glyph>
<glyph name="percent" format="1">
  <advance width="1890"/>
  <unicode hex="0025"/>
  <outline>
    <contour>
      <point x="399" y="791" type="curve" smooth="yes"/>
      <point x="305" y="791"/>
      <point x="262" y="892"/>
      <point x="262" y="994" type="curve" smooth="yes"/>
      <point x="262" y="1100"/>
      <point x="309" y="1209"/>
      <point x="398" y="1209" type="curve" smooth="yes"/>
      <point x="492" y="1209"/>
      <point x="533" y="1110"/>
      <point x="533" y="1008" type="curve" smooth="yes"/>
      <point x="533" y="900"/>
      <point x="487" y="791"/>
    </contour>
    <contour>
      <point x="398" y="602" type="curve" smooth="yes"/>
      <point x="636" y="602"/>
      <point x="762" y="805"/>
      <point x="762" y="1006" type="curve" smooth="yes"/>
      <point x="762" y="1201"/>
      <point x="643" y="1395"/>
      <point x="399" y="1397" type="curve"/>
      <point x="155" y="1394"/>
      <point x="33" y="1196"/>
      <point x="33" y="997" type="curve" smooth="yes"/>
      <point x="33" y="800"/>
      <point x="155" y="602"/>
    </contour>
    <contour>
      <point x="462" y="0" type="line"/>
      <point x="704" y="0" type="line"/>
      <point x="1435" y="1393" type="line"/>
      <point x="1191" y="1393" type="line"/>
    </contour>
    <contour>
      <point x="1498" y="185" type="curve" smooth="yes"/>
      <point x="1405" y="185"/>
      <point x="1361" y="284"/>
      <point x="1361" y="386" type="curve" smooth="yes"/>
      <point x="1361" y="493"/>
      <point x="1408" y="603"/>
      <point x="1494" y="606" type="curve" smooth="yes"/>
      <point x="1587" y="606"/>
      <point x="1631" y="503"/>
      <point x="1631" y="398" type="curve" smooth="yes"/>
      <point x="1631" y="292"/>
      <point x="1587" y="185"/>
    </contour>
    <contour>
      <point x="1498" y="-3" type="curve" smooth="yes"/>
      <point x="1735" y="-3"/>
      <point x="1857" y="202"/>
      <point x="1857" y="403" type="curve" smooth="yes"/>
      <point x="1857" y="599"/>
      <point x="1741" y="792"/>
      <point x="1498" y="792" type="curve"/>
      <point x="1254" y="789"/>
      <point x="1131" y="591"/>
      <point x="1131" y="391" type="curve" smooth="yes"/>
      <point x="1131" y="194"/>
      <point x="1254" y="-3"/>
    </contour>
  </outline>
</glyph>
<glyph name="ampersand" format="1">
  <advance width="1469"/>
  <unicode hex="0026"/>
  <outline>
    <contour>
      <point x="599" y="-23" type="curve" smooth="yes"/>
      <point x="758" y="-23"/>
      <point x="905" y="19"/>
      <point x="1039" y="113" type="curve"/>
      <point x="1081" y="74"/>
      <point x="1157" y="0"/>
      <point x="1157" y="0" type="curve"/>
      <point x="1451" y="0" type="line"/>
      <point x="1451" y="0"/>
      <point x="1203" y="236"/>
      <point x="1202" y="239" type="curve"/>
      <point x="1338" y="367"/>
      <point x="1364" y="557"/>
      <point x="1361" y="730" type="curve"/>
      <point x="1164" y="751" type="line"/>
      <point x="1170" y="664"/>
      <point x="1154" y="441"/>
      <point x="1068" y="365" type="curve"/>
      <point x="973" y="459"/>
      <point x="764" y="667"/>
      <point x="670" y="764" type="curve"/>
      <point x="980" y="915"/>
      <point x="1029" y="1043"/>
      <point x="1020" y="1191" type="curve"/>
      <point x="1010" y="1354"/>
      <point x="883" y="1503"/>
      <point x="605" y="1503" type="curve"/>
      <point x="253" y="1503"/>
      <point x="139" y="1319"/>
      <point x="139" y="1154" type="curve" smooth="yes"/>
      <point x="139" y="1013"/>
      <point x="253" y="903"/>
      <point x="342" y="821" type="curve"/>
      <point x="150" y="740"/>
      <point x="37" y="624"/>
      <point x="37" y="424" type="curve" smooth="yes"/>
      <point x="37" y="160"/>
      <point x="248" y="-23"/>
    </contour>
    <contour>
      <point x="625" y="161" type="curve" smooth="yes"/>
      <point x="367" y="161"/>
      <point x="255" y="281"/>
      <point x="255" y="433" type="curve" smooth="yes"/>
      <point x="255" y="573"/>
      <point x="367" y="642"/>
      <point x="457" y="682" type="curve"/>
      <point x="617" y="521"/>
      <point x="748" y="392"/>
      <point x="909" y="234" type="curve"/>
      <point x="811" y="177"/>
      <point x="759" y="161"/>
    </contour>
    <contour>
      <point x="538" y="896" type="curve"/>
      <point x="417" y="1029"/>
      <point x="359" y="1078"/>
      <point x="369" y="1175" type="curve"/>
      <point x="379" y="1270"/>
      <point x="455" y="1336"/>
      <point x="588" y="1336" type="curve"/>
      <point x="758" y="1336"/>
      <point x="816" y="1268"/>
      <point x="816" y="1160" type="curve" smooth="yes"/>
      <point x="816" y="1064"/>
      <point x="742" y="972"/>
    </contour>
  </outline>
</glyph>
<glyph name="quotesingle" format="1">
  <advance width="400"/>
  <unicode hex="0027"/>
  <outline>
    <contour>
      <point x="121" y="876" type="line"/>
      <point x="257" y="876" type="line"/>
      <point x="324" y="1481" type="line"/>
      <point x="81" y="1481" type="line"/>
    </contour>
  </outline>
</glyph>
<glyph name="parenleft" format="1">
  <advance width="639"/>
  <unicode hex="0028"/>
  <outline>
    <contour>
      <point x="387" y="-319" type="curve"/>
      <point x="613" y="-319" type="line"/>
      <point x="608" y="-300"/>
      <point x="612" y="-282"/>
      <point x="609" y="-261" type="curve"/>
      <point x="446" y="-77"/>
      <point x="279" y="200"/>
      <point x="279" y="557" type="curve" smooth="yes"/>
      <point x="279" y="909"/>
      <point x="437" y="1182"/>
      <point x="609" y="1375" type="curve"/>
      <point x="612" y="1394"/>
      <point x="608" y="1414"/>
      <point x="613" y="1433" type="curve"/>
      <point x="387" y="1433" type="line"/>
      <point x="176" y="1192"/>
      <point x="37" y="912"/>
      <point x="37" y="557" type="curve" smooth="yes"/>
      <point x="37" y="178"/>
      <point x="175" y="-80"/>
    </contour>
  </outline>
</glyph>
<glyph name="parenright" format="1">
  <advance width="638"/>
  <unicode hex="0029"/>
  <outline>
    <contour>
      <point x="28" y="-319" type="curve"/>
      <point x="254" y="-319" type="line"/>
      <point x="465" y="-79"/>
      <point x="604" y="201"/>
      <point x="604" y="557" type="curve" smooth="yes"/>
      <point x="604" y="936"/>
      <point x="466" y="1193"/>
      <point x="254" y="1433" type="curve"/>
      <point x="28" y="1433" type="line"/>
      <point x="33" y="1414"/>
      <point x="30" y="1396"/>
      <point x="33" y="1375" type="curve"/>
      <point x="195" y="1190"/>
      <point x="361" y="913"/>
      <point x="361" y="557" type="curve" smooth="yes"/>
      <point x="361" y="204"/>
      <point x="205" y="-69"/>
      <point x="33" y="-261" type="curve"/>
      <point x="30" y="-280"/>
      <point x="33" y="-300"/>
    </contour>
  </outline>
</glyph>
<glyph name="asterisk" format="1">
  <advance width="971"/>
  <unicode hex="002A"/>
  <outline>
    <contour>
      <point x="464" y="591" type="curve"/>
      <point x="519" y="591"/>
      <point x="575" y="618"/>
      <point x="589" y="670" type="curve"/>
      <point x="589" y="760"/>
      <point x="547" y="873"/>
      <point x="531" y="962" type="curve"/>
      <point x="593" y="909"/>
      <point x="661" y="817"/>
      <point x="730" y="775" type="curve" smooth="yes"/>
      <point x="751" y="763"/>
      <point x="771" y="755"/>
      <point x="793" y="753" type="curve"/>
      <point x="839" y="765"/>
      <point x="882" y="811"/>
      <point x="892" y="863" type="curve"/>
      <point x="884" y="984"/>
      <point x="680" y="989"/>
      <point x="568" y="1039" type="curve"/>
      <point x="679" y="1088"/>
      <point x="887" y="1099"/>
      <point x="892" y="1216" type="curve"/>
      <point x="882" y="1266"/>
      <point x="839" y="1312"/>
      <point x="793" y="1325" type="curve"/>
      <point x="706" y="1319"/>
      <point x="618" y="1196"/>
      <point x="546" y="1127" type="curve" smooth="yes"/>
      <point x="540" y="1122"/>
      <point x="533" y="1117"/>
      <point x="528" y="1114" type="curve"/>
      <point x="543" y="1198"/>
      <point x="588" y="1300"/>
      <point x="588" y="1384" type="curve" smooth="yes"/>
      <point x="588" y="1444"/>
      <point x="548" y="1478"/>
      <point x="508" y="1486" type="curve" smooth="yes"/>
      <point x="453" y="1486"/>
      <point x="399" y="1461"/>
      <point x="385" y="1409" type="curve"/>
      <point x="385" y="1315"/>
      <point x="433" y="1209"/>
      <point x="443" y="1114" type="curve"/>
      <point x="378" y="1166"/>
      <point x="311" y="1258"/>
      <point x="242" y="1301" type="curve" smooth="yes"/>
      <point x="221" y="1314"/>
      <point x="201" y="1323"/>
      <point x="179" y="1325" type="curve"/>
      <point x="133" y="1312"/>
      <point x="90" y="1266"/>
      <point x="80" y="1216" type="curve"/>
      <point x="85" y="1097"/>
      <point x="289" y="1088"/>
      <point x="404" y="1039" type="curve"/>
      <point x="291" y="991"/>
      <point x="88" y="983"/>
      <point x="80" y="863" type="curve"/>
      <point x="90" y="811"/>
      <point x="133" y="765"/>
      <point x="179" y="753" type="curve"/>
      <point x="262" y="759"/>
      <point x="354" y="881"/>
      <point x="426" y="950" type="curve" smooth="yes"/>
      <point x="432" y="955"/>
      <point x="439" y="960"/>
      <point x="442" y="963" type="curve"/>
      <point x="429" y="881"/>
      <point x="383" y="779"/>
      <point x="383" y="696" type="curve" smooth="yes"/>
      <point x="383" y="636"/>
      <point x="424" y="599"/>
    </contour>
  </outline>
</glyph>
<glyph name="plus" format="1">
  <advance width="1241"/>
  <unicode hex="002B"/>
  <outline>
    <contour>
      <point x="521" y="0" type="line"/>
      <point x="721" y="0" type="line"/>
      <point x="721" y="487" type="line"/>
      <point x="1154" y="487" type="line"/>
      <point x="1154" y="668" type="line"/>
      <point x="721" y="668" type="line"/>
      <point x="721" y="1117" type="line"/>
      <point x="521" y="1117" type="line"/>
      <point x="521" y="668" type="line"/>
      <point x="87" y="668" type="line"/>
      <point x="87" y="487" type="line"/>
      <point x="521" y="487" type="line"/>
    </contour>
  </outline>
</glyph>
<glyph name="comma" format="1">
  <advance width="476"/>
  <unicode hex="002C"/>
  <outline>
    <contour>
      <point x="104" y="-281" type="line"/>
      <point x="246" y="-281" type="line"/>
      <point x="360" y="253" type="line"/>
      <point x="134" y="253" type="line"/>
    </contour>
  </outline>
</glyph>
<glyph name="hyphen" format="1">
  <advance width="827"/>
  <unicode hex="002D"/>
  <outline>
    <contour>
      <point x="90" y="524" type="line"/>
      <point x="737" y="524" type="line"/>
      <point x="737" y="662" type="line"/>
      <point x="90" y="662" type="line"/>
    </contour>
  </outline>
</glyph>
<glyph name="period" format="1">
  <advance width="499"/>
  <unicode hex="002E"/>
  <outline>
    <contour>
      <point x="251" y="-8" type="curve" smooth="yes"/>
      <point x="344" y="-8"/>
      <point x="417" y="65"/>
      <point x="417" y="158" type="curve" smooth="yes"/>
      <point x="417" y="252"/>
      <point x="344" y="326"/>
      <point x="251" y="326" type="curve" smooth="yes"/>
      <point x="157" y="326"/>
      <point x="83" y="252"/>
      <point x="83" y="158" type="curve" smooth="yes"/>
      <point x="83" y="65"/>
      <point x="157" y="-8"/>
    </contour>
  </outline>
</glyph>
<glyph name="slash" format="1">
  <advance width="838"/>
  <unicode hex="002F"/>
  <outline>
    <contour>
      <point x="29" y="0" type="line"/>
      <point x="297" y="0" type="line"/>
      <point x="810" y="1480" type="line"/>
      <point x="539" y="1480" type="line"/>
    </contour>
  </outline>
</glyph>
<glyph name="zero" format="1">
  <advance width="1364"/>
  <unicode hex="0030"/>
  <outline>
    <contour>
      <point x="683" y="159" type="curve" smooth="yes"/>
      <point x="378" y="159"/>
      <point x="341" y="402"/>
      <point x="341" y="740" type="curve" smooth="yes"/>
      <point x="341" y="1079"/>
      <point x="386" y="1322"/>
      <point x="683" y="1322" type="curve" smooth="yes"/>
      <point x="972" y="1322"/>
      <point x="1022" y="1075"/>
      <point x="1022" y="740" type="curve" smooth="yes"/>
      <point x="1022" y="414"/>
      <point x="981" y="159"/>
    </contour>
    <contour>
      <point x="683" y="-23" type="curve" smooth="yes"/>
      <point x="1107" y="-23"/>
      <point x="1265" y="273"/>
      <point x="1265" y="739" type="curve" smooth="yes"/>
      <point x="1265" y="1211"/>
      <point x="1106" y="1503"/>
      <point x="683" y="1503" type="curve" smooth="yes"/>
      <point x="260" y="1503"/>
      <point x="99" y="1211"/>
      <point x="99" y="741" type="curve" smooth="yes"/>
      <point x="99" y="273"/>
      <point x="259" y="-23"/>
    </contour>
  </outline>
</glyph>
<glyph name="one" format="1">
  <advance width="1056"/>
  <unicode hex="0031"/>
  <outline>
    <contour>
      <point x="211" y="0" type="line"/>
      <point x="963" y="0" type="line"/>
      <point x="963" y="183" type="line"/>
      <point x="709" y="183" type="line"/>
      <point x="709" y="1481" type="line"/>
      <point x="707" y="1481"/>
      <point x="441" y="1481"/>
      <point x="439" y="1481" type="curve"/>
      <point x="401" y="1404"/>
      <point x="334" y="1342"/>
      <point x="189" y="1306" type="curve"/>
      <point x="189" y="1155" type="line"/>
      <point x="467" y="1238" type="line"/>
      <point x="467" y="183" type="line"/>
      <point x="211" y="183" type="line"/>
    </contour>
  </outline>
</glyph>
<glyph name="two" format="1">
  <advance width="1147"/>
  <unicode hex="0032"/>
  <outline>
    <contour>
      <point x="85" y="0" type="line"/>
      <point x="1068" y="0" type="line"/>
      <point x="1068" y="183" type="line"/>
      <point x="391" y="183" type="line"/>
      <point x="781" y="528"/>
      <point x="1061" y="802"/>
      <point x="1061" y="1095" type="curve" smooth="yes"/>
      <point x="1061" y="1345"/>
      <point x="890" y="1503"/>
      <point x="569" y="1503" type="curve" smooth="yes"/>
      <point x="402" y="1503"/>
      <point x="185" y="1436"/>
      <point x="109" y="1370" type="curve"/>
      <point x="158" y="1196" type="line"/>
      <point x="221" y="1250"/>
      <point x="413" y="1319"/>
      <point x="530" y="1319" type="curve" smooth="yes"/>
      <point x="757" y="1319"/>
      <point x="822" y="1228"/>
      <point x="822" y="1086" type="curve"/>
      <point x="822" y="857"/>
      <point x="416" y="467"/>
      <point x="85" y="180" type="curve"/>
    </contour>
  </outline>
</glyph>
<glyph name="three" format="1">
  <advance width="1171"/>
  <unicode hex="0033"/>
  <outline>
    <contour>
      <point x="525" y="-23" type="curve" smooth="yes"/>
      <point x="885" y="-23"/>
      <point x="1098" y="147"/>
      <point x="1098" y="407" type="curve" smooth="yes"/>
      <point x="1098" y="620"/>
      <point x="930" y="750"/>
      <point x="769" y="788" type="curve"/>
      <point x="898" y="827"/>
      <point x="1044" y="924"/>
      <point x="1044" y="1115" type="curve" smooth="yes"/>
      <point x="1044" y="1318"/>
      <point x="883" y="1505"/>
      <point x="518" y="1505" type="curve" smooth="yes"/>
      <point x="344" y="1505"/>
      <point x="174" y="1460"/>
      <point x="80" y="1393" type="curve"/>
      <point x="80" y="1216" type="line"/>
      <point x="137" y="1216" type="line"/>
      <point x="137" y="1216"/>
      <point x="268" y="1317"/>
      <point x="490" y="1317" type="curve" smooth="yes"/>
      <point x="711" y="1317"/>
      <point x="801" y="1238"/>
      <point x="801" y="1092" type="curve" smooth="yes"/>
      <point x="801" y="970"/>
      <point x="710" y="865"/>
      <point x="464" y="865" type="curve" smooth="yes"/>
      <point x="345" y="865" type="line"/>
      <point x="345" y="711" type="line"/>
      <point x="465" y="711" type="line" smooth="yes"/>
      <point x="742" y="711"/>
      <point x="854" y="585"/>
      <point x="854" y="430" type="curve" smooth="yes"/>
      <point x="854" y="260"/>
      <point x="729" y="160"/>
      <point x="497" y="160" type="curve" smooth="yes"/>
      <point x="227" y="160"/>
      <point x="137" y="269"/>
      <point x="137" y="269" type="curve"/>
      <point x="80" y="269" type="line"/>
      <point x="80" y="89" type="line"/>
      <point x="143" y="46"/>
      <point x="302" y="-23"/>
    </contour>
  </outline>
</glyph>
<glyph name="four" format="1">
  <advance width="1236"/>
  <unicode hex="0034"/>
  <outline>
    <contour>
      <point x="748" y="0" type="line"/>
      <point x="991" y="0" type="line"/>
      <point x="991" y="226" type="line"/>
      <point x="1172" y="226" type="line"/>
      <point x="1172" y="400" type="line"/>
      <point x="991" y="400" type="line"/>
      <point x="991" y="1481" type="line"/>
      <point x="634" y="1481" type="line"/>
      <point x="72" y="405" type="line"/>
      <point x="72" y="226" type="line"/>
      <point x="748" y="226" type="line"/>
    </contour>
    <contour>
      <point x="307" y="400" type="line"/>
      <point x="748" y="1315" type="line"/>
      <point x="748" y="400" type="line"/>
    </contour>
  </outline>
</glyph>
<glyph name="five" format="1">
  <advance width="1184"/>
  <unicode hex="0035"/>
  <outline>
    <contour>
      <point x="575" y="-23" type="curve" smooth="yes"/>
      <point x="929" y="-23"/>
      <point x="1122" y="110"/>
      <point x="1122" y="428" type="curve" smooth="yes"/>
      <point x="1122" y="766"/>
      <point x="824" y="868"/>
      <point x="525" y="891" type="curve" smooth="yes"/>
      <point x="501" y="893"/>
      <point x="367" y="899"/>
      <point x="367" y="901" type="curve" smooth="yes"/>
      <point x="367" y="1298" type="line"/>
      <point x="1022" y="1298" type="line"/>
      <point x="1022" y="1481" type="line"/>
      <point x="161" y="1481" type="line"/>
      <point x="161" y="733" type="line"/>
      <point x="161" y="733"/>
      <point x="323" y="720"/>
      <point x="457" y="707" type="curve" smooth="yes"/>
      <point x="748" y="679"/>
      <point x="879" y="584"/>
      <point x="879" y="420" type="curve" smooth="yes"/>
      <point x="879" y="272"/>
      <point x="811" y="160"/>
      <point x="547" y="160" type="curve" smooth="yes"/>
      <point x="300" y="160"/>
      <point x="175" y="269"/>
      <point x="175" y="269" type="curve" smooth="yes"/>
      <point x="118" y="269" type="line"/>
      <point x="118" y="91" type="line"/>
      <point x="216" y="24"/>
      <point x="366" y="-23"/>
    </contour>
  </outline>
</glyph>
<glyph name="six" format="1">
  <advance width="1211"/>
  <unicode hex="0036"/>
  <outline>
    <contour>
      <point x="624" y="-23" type="curve" smooth="yes"/>
      <point x="936" y="-23"/>
      <point x="1139" y="160"/>
      <point x="1139" y="466" type="curve" smooth="yes"/>
      <point x="1139" y="753"/>
      <point x="925" y="911"/>
      <point x="686" y="911" type="curve" smooth="yes"/>
      <point x="597" y="911"/>
      <point x="442" y="869"/>
      <point x="366" y="775" type="curve"/>
      <point x="428" y="1073"/>
      <point x="613" y="1283"/>
      <point x="957" y="1312" type="curve"/>
      <point x="920" y="1482" type="line" smooth="yes"/>
      <point x="390" y="1478"/>
      <point x="106" y="1044"/>
      <point x="106" y="551" type="curve" smooth="yes"/>
      <point x="106" y="202"/>
      <point x="310" y="-23"/>
    </contour>
    <contour>
      <point x="613" y="159" type="curve" smooth="yes"/>
      <point x="451" y="159"/>
      <point x="347" y="286"/>
      <point x="347" y="432" type="curve" smooth="yes"/>
      <point x="347" y="552"/>
      <point x="412" y="725"/>
      <point x="631" y="727" type="curve" smooth="yes"/>
      <point x="789" y="727"/>
      <point x="906" y="613"/>
      <point x="906" y="463" type="curve" smooth="yes"/>
      <point x="906" y="292"/>
      <point x="826" y="159"/>
    </contour>
  </outline>
</glyph>
<glyph name="seven" format="1">
  <advance width="1134"/>
  <unicode hex="0037"/>
  <outline>
    <contour>
      <point x="248" y="0" type="line"/>
      <point x="502" y="0" type="line"/>
      <point x="1059" y="1303" type="line"/>
      <point x="1059" y="1481" type="line"/>
      <point x="118" y="1481" type="line"/>
      <point x="118" y="1141" type="line"/>
      <point x="328" y="1141" type="line"/>
      <point x="328" y="1299" type="line"/>
      <point x="808" y="1299" type="line"/>
    </contour>
  </outline>
</glyph>
<glyph name="eight" format="1">
  <advance width="1285"/>
  <unicode hex="0038"/>
  <outline>
    <contour>
      <point x="641" y="-23" type="curve" smooth="yes"/>
      <point x="983" y="-23"/>
      <point x="1189" y="162"/>
      <point x="1189" y="420" type="curve" smooth="yes"/>
      <point x="1189" y="584"/>
      <point x="1059" y="706"/>
      <point x="891" y="785" type="curve"/>
      <point x="1083" y="891"/>
      <point x="1149" y="1046"/>
      <point x="1149" y="1161" type="curve"/>
      <point x="1149" y="1354"/>
      <point x="965" y="1503"/>
      <point x="643" y="1503" type="curve" smooth="yes"/>
      <point x="336" y="1503"/>
      <point x="137" y="1341"/>
      <point x="137" y="1147" type="curve" smooth="yes"/>
      <point x="137" y="1026"/>
      <point x="208" y="896"/>
      <point x="434" y="780" type="curve"/>
      <point x="273" y="701"/>
      <point x="96" y="586"/>
      <point x="96" y="382" type="curve" smooth="yes"/>
      <point x="96" y="173"/>
      <point x="293" y="-23"/>
    </contour>
    <contour>
      <point x="653" y="154" type="curve" smooth="yes"/>
      <point x="438" y="154"/>
      <point x="329" y="258"/>
      <point x="329" y="410" type="curve" smooth="yes"/>
      <point x="329" y="567"/>
      <point x="510" y="669"/>
      <point x="579" y="705" type="curve"/>
      <point x="857" y="625"/>
      <point x="946" y="496"/>
      <point x="946" y="388" type="curve" smooth="yes"/>
      <point x="946" y="277"/>
      <point x="864" y="154"/>
    </contour>
    <contour>
      <point x="746" y="853" type="curve"/>
      <point x="581" y="910"/>
      <point x="379" y="1020"/>
      <point x="379" y="1143" type="curve" smooth="yes"/>
      <point x="379" y="1301"/>
      <point x="564" y="1328"/>
      <point x="654" y="1328" type="curve" smooth="yes"/>
      <point x="805" y="1328"/>
      <point x="924" y="1261"/>
      <point x="924" y="1140" type="curve" smooth="yes"/>
      <point x="924" y="986"/>
      <point x="792" y="892"/>
    </contour>
  </outline>
</glyph>
<glyph name="nine" format="1">
  <advance width="1227"/>
  <unicode hex="0039"/>
  <outline>
    <contour>
      <point x="314" y="-26" type="curve" smooth="yes"/>
      <point x="845" y="-23"/>
      <point x="1129" y="420"/>
      <point x="1130" y="912" type="curve" smooth="yes"/>
      <point x="1130" y="1261"/>
      <point x="926" y="1477"/>
      <point x="612" y="1477" type="curve" smooth="yes"/>
      <point x="301" y="1477"/>
      <point x="95" y="1295"/>
      <point x="95" y="990" type="curve" smooth="yes"/>
      <point x="95" y="702"/>
      <point x="319" y="546"/>
      <point x="557" y="546" type="curve" smooth="yes"/>
      <point x="645" y="546"/>
      <point x="794" y="585"/>
      <point x="870" y="680" type="curve"/>
      <point x="808" y="380"/>
      <point x="617" y="171"/>
      <point x="278" y="143" type="curve"/>
      <point x="278" y="141"/>
      <point x="314" y="-24"/>
    </contour>
    <contour>
      <point x="603" y="728" type="curve" smooth="yes"/>
      <point x="445" y="728"/>
      <point x="331" y="848"/>
      <point x="331" y="997" type="curve" smooth="yes"/>
      <point x="331" y="1169"/>
      <point x="411" y="1297"/>
      <point x="623" y="1297" type="curve" smooth="yes"/>
      <point x="785" y="1297"/>
      <point x="884" y="1158"/>
      <point x="884" y="1011" type="curve" smooth="yes"/>
      <point x="884" y="892"/>
      <point x="822" y="730"/>
    </contour>
  </outline>
</glyph>
<glyph name="colon" format="1">
  <advance width="499"/>
  <unicode hex="003A"/>
  <outline>
    <contour>
      <point x="250" y="0" type="curve" smooth="yes"/>
      <point x="343" y="0"/>
      <point x="416" y="74"/>
      <point x="416" y="168" type="curve" smooth="yes"/>
      <point x="416" y="261"/>
      <point x="343" y="334"/>
      <point x="250" y="334" type="curve" smooth="yes"/>
      <point x="156" y="334"/>
      <point x="82" y="261"/>
      <point x="82" y="168" type="curve" smooth="yes"/>
      <point x="82" y="74"/>
      <point x="156" y="0"/>
    </contour>
    <contour>
      <point x="250" y="699" type="curve" smooth="yes"/>
      <point x="343" y="699"/>
      <point x="416" y="771"/>
      <point x="416" y="864" type="curve" smooth="yes"/>
      <point x="416" y="958"/>
      <point x="343" y="1032"/>
      <point x="250" y="1032" type="curve" smooth="yes"/>
      <point x="156" y="1032"/>
      <point x="82" y="958"/>
      <point x="82" y="864" type="curve" smooth="yes"/>
      <point x="82" y="771"/>
      <point x="156" y="699"/>
    </contour>
  </outline>
</glyph>
<glyph name="semicolon" format="1">
  <advance width="550"/>
  <unicode hex="003B"/>
  <outline>
    <contour>
      <point x="154" y="-281" type="line"/>
      <point x="296" y="-281" type="line"/>
      <point x="411" y="253" type="line"/>
      <point x="184" y="253" type="line"/>
    </contour>
    <contour>
      <point x="277" y="699" type="curve" smooth="yes"/>
      <point x="371" y="699"/>
      <point x="444" y="771"/>
      <point x="444" y="864" type="curve" smooth="yes"/>
      <point x="444" y="958"/>
      <point x="371" y="1032"/>
      <point x="277" y="1032" type="curve" smooth="yes"/>
      <point x="184" y="1032"/>
      <point x="110" y="958"/>
      <point x="110" y="864" type="curve" smooth="yes"/>
      <point x="110" y="771"/>
      <point x="184" y="699"/>
    </contour>
  </outline>
</glyph>
<glyph name="less" format="1">
  <advance width="1289"/>
  <unicode hex="003C"/>
  <outline>
    <contour>
      <point x="1251" y="-14" type="line"/>
      <point x="1251" y="233" type="line"/>
      <point x="1251" y="233"/>
      <point x="384" y="573"/>
      <point x="383" y="573" type="curve"/>
      <point x="385" y="574"/>
      <point x="1251" y="912"/>
      <point x="1251" y="912" type="curve"/>
      <point x="1251" y="1160" type="line"/>
      <point x="35" y="677" type="line"/>
      <point x="35" y="470" type="line"/>
    </contour>
  </outline>
</glyph>
<glyph name="equal" format="1">
  <advance width="1340"/>
  <unicode hex="003D"/>
  <outline>
    <contour>
      <point x="91" y="229" type="line"/>
      <point x="1248" y="229" type="line"/>
      <point x="1248" y="444" type="line"/>
      <point x="91" y="444" type="line"/>
    </contour>
    <contour>
      <point x="91" y="706" type="line"/>
      <point x="1248" y="706" type="line"/>
      <point x="1248" y="920" type="line"/>
      <point x="91" y="920" type="line"/>
    </contour>
  </outline>
</glyph>
<glyph name="greater" format="1">
  <advance width="1289"/>
  <unicode hex="003E"/>
  <outline>
    <contour>
      <point x="39" y="-14" type="line"/>
      <point x="1255" y="469" type="line"/>
      <point x="1255" y="676" type="line"/>
      <point x="39" y="1160" type="line"/>
      <point x="39" y="912" type="line"/>
      <point x="906" y="573" type="line"/>
      <point x="39" y="233" type="line"/>
    </contour>
  </outline>
</glyph>
<glyph name="question" format="1">
  <advance width="945"/>
  <unicode hex="003F"/>
  <outline>
    <contour>
      <point x="423" y="496" type="line"/>
      <point x="614" y="669"/>
      <point x="878" y="875"/>
      <point x="878" y="1137" type="curve" smooth="yes"/>
      <point x="878" y="1338"/>
      <point x="755" y="1503"/>
      <point x="468" y="1503" type="curve" smooth="yes"/>
      <point x="287" y="1503"/>
      <point x="133" y="1418"/>
      <point x="71" y="1382" type="curve"/>
      <point x="71" y="1190" type="line"/>
      <point x="129" y="1233"/>
      <point x="301" y="1319"/>
      <point x="431" y="1319" type="curve" smooth="yes"/>
      <point x="574" y="1319"/>
      <point x="655" y="1241"/>
      <point x="655" y="1109" type="curve" smooth="yes"/>
      <point x="655" y="970"/>
      <point x="489" y="741"/>
      <point x="348" y="553" type="curve"/>
    </contour>
    <contour>
      <point x="363" y="-8" type="curve" smooth="yes"/>
      <point x="456" y="-8"/>
      <point x="530" y="65"/>
      <point x="530" y="159" type="curve" smooth="yes"/>
      <point x="530" y="252"/>
      <point x="456" y="326"/>
      <point x="363" y="326" type="curve" smooth="yes"/>
      <point x="269" y="326"/>
      <point x="196" y="252"/>
      <point x="196" y="159" type="curve" smooth="yes"/>
      <point x="196" y="65"/>
      <point x="269" y="-8"/>
    </contour>
  </outline>
</glyph>
<glyph name="at" format="1">
  <advance width="1717"/>
  <unicode hex="0040"/>
  <outline>
    <contour>
      <point x="881" y="-121" type="curve" smooth="yes"/>
      <point x="1033" y="-121"/>
      <point x="1189" y="-92"/>
      <point x="1318" y="2" type="curve"/>
      <point x="1273" y="105" type="line"/>
      <point x="1154" y="39"/>
      <point x="1030" y="-2"/>
      <point x="888" y="-2" type="curve" smooth="yes"/>
      <point x="439" y="-2"/>
      <point x="236" y="271"/>
      <point x="236" y="627" type="curve" smooth="yes"/>
      <point x="236" y="973"/>
      <point x="464" y="1280"/>
      <point x="892" y="1280" type="curve" smooth="yes"/>
      <point x="1289" y="1280"/>
      <point x="1507" y="1011"/>
      <point x="1507" y="683" type="curve" smooth="yes"/>
      <point x="1507" y="457"/>
      <point x="1422" y="279"/>
      <point x="1289" y="279" type="curve" smooth="yes"/>
      <point x="1226" y="279"/>
      <point x="1171" y="303"/>
      <point x="1171" y="419" type="curve" smooth="yes"/>
      <point x="1171" y="438"/>
      <point x="1172" y="459"/>
      <point x="1175" y="483" type="curve" smooth="yes"/>
      <point x="1239" y="1043" type="line"/>
      <point x="1111" y="1043" type="line"/>
      <point x="1093" y="959" type="line"/>
      <point x="1054" y="1003"/>
      <point x="974" y="1076"/>
      <point x="833" y="1076" type="curve" smooth="yes"/>
      <point x="580" y="1076"/>
      <point x="426" y="863"/>
      <point x="426" y="594" type="curve" smooth="yes"/>
      <point x="426" y="378"/>
      <point x="551" y="201"/>
      <point x="810" y="201" type="curve" smooth="yes"/>
      <point x="903" y="201"/>
      <point x="1003" y="263"/>
      <point x="1056" y="326" type="curve"/>
      <point x="1080" y="240"/>
      <point x="1163" y="175"/>
      <point x="1281" y="175" type="curve" smooth="yes"/>
      <point x="1478" y="175"/>
      <point x="1641" y="396"/>
      <point x="1641" y="701" type="curve" smooth="yes"/>
      <point x="1641" y="1108"/>
      <point x="1332" y="1404"/>
      <point x="888" y="1404" type="curve" smooth="yes"/>
      <point x="420" y="1404"/>
      <point x="78" y="1078"/>
      <point x="78" y="628" type="curve" smooth="yes"/>
      <point x="78" y="180"/>
      <point x="403" y="-121"/>
    </contour>
    <contour>
      <point x="806" y="306" type="curve" smooth="yes"/>
      <point x="644" y="306"/>
      <point x="580" y="437"/>
      <point x="580" y="597" type="curve" smooth="yes"/>
      <point x="580" y="840"/>
      <point x="698" y="969"/>
      <point x="859" y="969" type="curve" smooth="yes"/>
      <point x="962" y="969"/>
      <point x="1035" y="914"/>
      <point x="1077" y="858" type="curve"/>
      <point x="1026" y="395" type="line"/>
      <point x="1006" y="372"/>
      <point x="924" y="306"/>
    </contour>
  </outline>
</glyph>
<glyph name="A" format="1">
  <advance width="1311"/>
  <unicode hex="0041"/>
  <outline>
    <contour>
      <point x="10" y="0" type="line"/>
      <point x="246" y="0" type="line"/>
      <point x="367" y="364" type="line"/>
      <point x="945" y="364" type="line"/>
      <point x="1065" y="0" type="line"/>
      <point x="1301" y="0" type="line"/>
      <point x="787" y="1481" type="line"/>
      <point x="509" y="1481" type="line"/>
    </contour>
    <contour>
      <point x="424" y="542" type="line"/>
      <point x="650" y="1261" type="line"/>
      <point x="887" y="542" type="line"/>
    </contour>
  </outline>
</glyph>
<glyph name="B" format="1">
  <advance width="1297"/>
  <unicode hex="0042"/>
  <outline>
    <contour>
      <point x="146" y="0" type="line"/>
      <point x="668" y="0" type="line" smooth="yes"/>
      <point x="1006" y="0"/>
      <point x="1253" y="127"/>
      <point x="1253" y="449" type="curve" smooth="yes"/>
      <point x="1253" y="631"/>
      <point x="1124" y="778"/>
      <point x="932" y="808" type="curve"/>
      <point x="932" y="814" type="line"/>
      <point x="1078" y="858"/>
      <point x="1153" y="975"/>
      <point x="1153" y="1096" type="curve" smooth="yes"/>
      <point x="1153" y="1397"/>
      <point x="934" y="1481"/>
      <point x="562" y="1481" type="curve" smooth="yes"/>
      <point x="146" y="1481" type="line"/>
    </contour>
    <contour>
      <point x="388" y="183" type="line"/>
      <point x="388" y="680" type="line"/>
      <point x="652" y="680" type="line" smooth="yes"/>
      <point x="837" y="680"/>
      <point x="1010" y="617"/>
      <point x="1010" y="452" type="curve" smooth="yes"/>
      <point x="1010" y="327"/>
      <point x="954" y="183"/>
      <point x="690" y="183" type="curve" smooth="yes"/>
    </contour>
    <contour>
      <point x="388" y="862" type="line"/>
      <point x="388" y="1298" type="line"/>
      <point x="609" y="1298" type="line" smooth="yes"/>
      <point x="817" y="1298"/>
      <point x="910" y="1224"/>
      <point x="910" y="1089" type="curve" smooth="yes"/>
      <point x="910" y="947"/>
      <point x="828" y="862"/>
      <point x="607" y="862" type="curve" smooth="yes"/>
    </contour>
  </outline>
</glyph>
<glyph name="C" format="1">
  <advance width="1263"/>
  <unicode hex="0043"/>
  <outline>
    <contour>
      <point x="773" y="-23" type="curve" smooth="yes"/>
      <point x="969" y="-23"/>
      <point x="1111" y="32"/>
      <point x="1211" y="104" type="curve"/>
      <point x="1168" y="277" type="line"/>
      <point x="1168" y="277"/>
      <point x="1013" y="161"/>
      <point x="792" y="161" type="curve" smooth="yes"/>
      <point x="503" y="161"/>
      <point x="342" y="327"/>
      <point x="342" y="742" type="curve" smooth="yes"/>
      <point x="342" y="1182"/>
      <point x="521" y="1319"/>
      <point x="789" y="1319" type="curve" smooth="yes"/>
      <point x="1028" y="1319"/>
      <point x="1159" y="1204"/>
      <point x="1159" y="1204" type="curve"/>
      <point x="1210" y="1378" type="line"/>
      <point x="1107" y="1449"/>
      <point x="974" y="1503"/>
      <point x="781" y="1503" type="curve" smooth="yes"/>
      <point x="350" y="1503"/>
      <point x="99" y="1237"/>
      <point x="99" y="744" type="curve" smooth="yes"/>
      <point x="99" y="256"/>
      <point x="302" y="-23"/>
    </contour>
  </outline>
</glyph>
<glyph name="D" format="1">
  <advance width="1439"/>
  <unicode hex="0044"/>
  <outline>
    <contour>
      <point x="388" y="183" type="line"/>
      <point x="388" y="1298" type="line"/>
      <point x="614" y="1298" type="line" smooth="yes"/>
      <point x="917" y="1298"/>
      <point x="1102" y="1111"/>
      <point x="1102" y="740" type="curve" smooth="yes"/>
      <point x="1102" y="347"/>
      <point x="964" y="183"/>
      <point x="601" y="183" type="curve" smooth="yes"/>
    </contour>
    <contour>
      <point x="146" y="0" type="line"/>
      <point x="565" y="0" type="line" smooth="yes"/>
      <point x="1050" y="0"/>
      <point x="1341" y="216"/>
      <point x="1341" y="740" type="curve" smooth="yes"/>
      <point x="1341" y="1260"/>
      <point x="1053" y="1481"/>
      <point x="560" y="1481" type="curve" smooth="yes"/>
      <point x="146" y="1481" type="line"/>
    </contour>
  </outline>
</glyph>
<glyph name="E" format="1">
  <advance width="1082"/>
  <unicode hex="0045"/>
  <outline>
    <contour>
      <point x="146" y="0" type="line"/>
      <point x="1001" y="0" type="line"/>
      <point x="1001" y="183" type="line"/>
      <point x="388" y="183" type="line"/>
      <point x="388" y="693" type="line"/>
      <point x="920" y="693" type="line"/>
      <point x="920" y="876" type="line"/>
      <point x="388" y="876" type="line"/>
      <point x="388" y="1299" type="line"/>
      <point x="1001" y="1299" type="line"/>
      <point x="1001" y="1481" type="line"/>
      <point x="146" y="1481" type="line"/>
    </contour>
  </outline>
</glyph>
<glyph name="F" format="1">
  <advance width="1069"/>
  <unicode hex="0046"/>
  <outline>
    <contour>
      <point x="146" y="0" type="line"/>
      <point x="388" y="0" type="line"/>
      <point x="388" y="686" type="line"/>
      <point x="983" y="686" type="line"/>
      <point x="983" y="868" type="line"/>
      <point x="388" y="868" type="line"/>
      <point x="388" y="1298" type="line"/>
      <point x="1037" y="1298" type="line"/>
      <point x="1037" y="1481" type="line"/>
      <point x="146" y="1481" type="line"/>
    </contour>
  </outline>
</glyph>
<glyph name="G" format="1">
  <advance width="1412"/>
  <unicode hex="0047"/>
  <outline>
    <contour>
      <point x="788" y="-23" type="curve" smooth="yes"/>
      <point x="1015" y="-23"/>
      <point x="1199" y="42"/>
      <point x="1320" y="111" type="curve"/>
      <point x="1320" y="832" type="line"/>
      <point x="736" y="832" type="line"/>
      <point x="736" y="633" type="line"/>
      <point x="1101" y="633" type="line"/>
      <point x="1101" y="208" type="line"/>
      <point x="1101" y="207"/>
      <point x="986" y="161"/>
      <point x="838" y="161" type="curve" smooth="yes"/>
      <point x="492" y="161"/>
      <point x="342" y="339"/>
      <point x="342" y="746" type="curve" smooth="yes"/>
      <point x="342" y="1143"/>
      <point x="490" y="1319"/>
      <point x="803" y="1319" type="curve" smooth="yes"/>
      <point x="1029" y="1319"/>
      <point x="1191" y="1203"/>
      <point x="1191" y="1200" type="curve"/>
      <point x="1242" y="1376" type="line"/>
      <point x="1185" y="1414"/>
      <point x="1026" y="1503"/>
      <point x="806" y="1503" type="curve" smooth="yes"/>
      <point x="341" y="1503"/>
      <point x="99" y="1235"/>
      <point x="99" y="742" type="curve" smooth="yes"/>
      <point x="99" y="270"/>
      <point x="300" y="-23"/>
    </contour>
  </outline>
</glyph>
<glyph name="H" format="1">
  <advance width="1424"/>
  <unicode hex="0048"/>
  <outline>
    <contour>
      <point x="146" y="0" type="line"/>
      <point x="388" y="0" type="line"/>
      <point x="388" y="671" type="line"/>
      <point x="1037" y="671" type="line"/>
      <point x="1037" y="0" type="line"/>
      <point x="1279" y="0" type="line"/>
      <point x="1279" y="1481" type="line"/>
      <point x="1037" y="1481" type="line"/>
      <point x="1037" y="854" type="line"/>
      <point x="388" y="854" type="line"/>
      <point x="388" y="1481" type="line"/>
      <point x="146" y="1481" type="line"/>
    </contour>
  </outline>
</glyph>
<glyph name="I" format="1">
  <advance width="835"/>
  <unicode hex="0049"/>
  <outline>
    <contour>
      <point x="84" y="0" type="line"/>
      <point x="735" y="0" type="line"/>
      <point x="735" y="183" type="line"/>
      <point x="531" y="183" type="line"/>
      <point x="531" y="1298" type="line"/>
      <point x="735" y="1298" type="line"/>
      <point x="735" y="1481" type="line"/>
      <point x="84" y="1481" type="line"/>
      <point x="84" y="1298" type="line"/>
      <point x="289" y="1298" type="line"/>
      <point x="289" y="183" type="line"/>
      <point x="84" y="183" type="line"/>
    </contour>
  </outline>
</glyph>
<glyph name="J" format="1">
  <advance width="923"/>
  <unicode hex="004A"/>
  <outline>
    <contour>
      <point x="351" y="-19" type="curve" smooth="yes"/>
      <point x="664" y="-19"/>
      <point x="779" y="139"/>
      <point x="779" y="418" type="curve" smooth="yes"/>
      <point x="779" y="1481" type="line"/>
      <point x="259" y="1481" type="line"/>
      <point x="259" y="1298" type="line"/>
      <point x="537" y="1298" type="line"/>
      <point x="537" y="466" type="line" smooth="yes"/>
      <point x="537" y="245"/>
      <point x="492" y="166"/>
      <point x="348" y="166" type="curve" smooth="yes"/>
      <point x="277" y="166"/>
      <point x="192" y="193"/>
      <point x="107" y="229" type="curve"/>
      <point x="57" y="60" type="line"/>
      <point x="82" y="46"/>
      <point x="182" y="-19"/>
    </contour>
  </outline>
</glyph>
<glyph name="K" format="1">
  <advance width="1322"/>
  <unicode hex="004B"/>
  <outline>
    <contour>
      <point x="146" y="0" type="line"/>
      <point x="388" y="0" type="line"/>
      <point x="388" y="482" type="line"/>
      <point x="617" y="726" type="line"/>
      <point x="685" y="611" type="line"/>
      <point x="779" y="453"/>
      <point x="953" y="156"/>
      <point x="1045" y="0" type="curve"/>
      <point x="1322" y="0" type="line"/>
      <point x="789" y="865" type="line"/>
      <point x="1296" y="1481" type="line"/>
      <point x="996" y="1481" type="line" smooth="yes"/>
      <point x="994" y="1478"/>
      <point x="679" y="1092"/>
      <point x="630" y="1029" type="curve"/>
      <point x="389" y="747" type="line"/>
      <point x="388" y="747" type="line"/>
      <point x="388" y="1481" type="line"/>
      <point x="146" y="1481" type="line"/>
    </contour>
  </outline>
</glyph>
<glyph name="M" format="1">
  <advance width="1666"/>
  <unicode hex="004D"/>
  <outline>
    <contour>
      <point x="146" y="0" type="line"/>
      <point x="389" y="0" type="line"/>
      <point x="389" y="859" type="line"/>
      <point x="389" y="860"/>
      <point x="385" y="1053"/>
      <point x="385" y="1053" type="curve"/>
      <point x="740" y="402" type="line"/>
      <point x="927" y="402" type="line"/>
      <point x="1284" y="1053" type="line"/>
      <point x="1284" y="1053"/>
      <point x="1277" y="860"/>
      <point x="1277" y="859" type="curve"/>
      <point x="1277" y="0" type="line"/>
      <point x="1521" y="0" type="line"/>
      <point x="1521" y="1481" type="line"/>
      <point x="1279" y="1481" type="line"/>
      <point x="841" y="669" type="line"/>
      <point x="403" y="1481" type="line"/>
      <point x="146" y="1481" type="line"/>
    </contour>
  </outline>
</glyph>
<glyph name="N" format="1">
  <advance width="1558"/>
  <unicode hex="004E"/>
  <outline>
    <contour>
      <point x="146" y="0" type="line"/>
      <point x="388" y="0" type="line"/>
      <point x="388" y="912" type="line"/>
      <point x="388" y="913"/>
      <point x="381" y="1117"/>
      <point x="381" y="1117" type="curve"/>
      <point x="1186" y="0" type="line"/>
      <point x="1414" y="0" type="line"/>
      <point x="1414" y="1481" type="line"/>
      <point x="1172" y="1481" type="line"/>
      <point x="1172" y="579" type="line"/>
      <point x="1175" y="381" type="line"/>
      <point x="1145" y="419"/>
      <point x="386" y="1481"/>
      <point x="386" y="1481" type="curve"/>
      <point x="146" y="1481" type="line"/>
    </contour>
  </outline>
</glyph>
<glyph name="O" format="1">
  <advance width="1552"/>
  <unicode hex="004F"/>
  <outline>
    <contour>
      <point x="777" y="160" type="curve" smooth="yes"/>
      <point x="425" y="160"/>
      <point x="342" y="440"/>
      <point x="342" y="740" type="curve" smooth="yes"/>
      <point x="342" y="1041"/>
      <point x="425" y="1322"/>
      <point x="777" y="1322" type="curve" smooth="yes"/>
      <point x="1122" y="1322"/>
      <point x="1211" y="1037"/>
      <point x="1211" y="740" type="curve" smooth="yes"/>
      <point x="1211" y="451"/>
      <point x="1122" y="160"/>
    </contour>
    <contour>
      <point x="777" y="-23" type="curve" smooth="yes"/>
      <point x="1238" y="-23"/>
      <point x="1454" y="273"/>
      <point x="1454" y="740" type="curve" smooth="yes"/>
      <point x="1454" y="1212"/>
      <point x="1237" y="1503"/>
      <point x="777" y="1503" type="curve" smooth="yes"/>
      <point x="317" y="1503"/>
      <point x="99" y="1211"/>
      <point x="99" y="740" type="curve" smooth="yes"/>
      <point x="99" y="272"/>
      <point x="316" y="-23"/>
    </contour>
  </outline>
</glyph>
<glyph name="P" format="1">
  <advance width="1212"/>
  <unicode hex="0050"/>
  <outline>
    <contour>
      <point x="146" y="0" type="line"/>
      <point x="388" y="0" type="line"/>
      <point x="388" y="586" type="line"/>
      <point x="565" y="586" type="line" smooth="yes"/>
      <point x="918" y="586"/>
      <point x="1147" y="717"/>
      <point x="1147" y="1016" type="curve" smooth="yes"/>
      <point x="1147" y="1357"/>
      <point x="931" y="1481"/>
      <point x="590" y="1481" type="curve" smooth="yes"/>
      <point x="146" y="1481" type="line"/>
    </contour>
    <contour>
      <point x="388" y="766" type="line"/>
      <point x="388" y="1298" type="line"/>
      <point x="580" y="1298" type="line" smooth="yes"/>
      <point x="838" y="1298"/>
      <point x="904" y="1206"/>
      <point x="904" y="1017" type="curve" smooth="yes"/>
      <point x="904" y="805"/>
      <point x="763" y="766"/>
      <point x="562" y="766" type="curve" smooth="yes"/>
    </contour>
  </outline>
</glyph>
<glyph name="Q" format="1">
  <advance width="1552"/>
  <unicode hex="0051"/>
  <outline>
    <contour>
      <point x="1014" y="-402" type="line"/>
      <point x="1186" y="-326" type="line"/>
      <point x="846" y="377" type="line"/>
      <point x="847" y="376"/>
      <point x="625" y="377"/>
      <point x="625" y="377" type="curve"/>
    </contour>
    <component base="O"/>
  </outline>
</glyph>
<glyph name="R" format="1">
  <advance width="1330"/>
  <unicode hex="0052"/>
  <outline>
    <contour>
      <point x="146" y="0" type="line"/>
      <point x="388" y="0" type="line"/>
      <point x="388" y="647" type="line"/>
      <point x="692" y="647" type="line"/>
      <point x="1036" y="0" type="line"/>
      <point x="1281" y="0" type="line"/>
      <point x="1281" y="54" type="line"/>
      <point x="928" y="676" type="line"/>
      <point x="1144" y="751"/>
      <point x="1210" y="875"/>
      <point x="1210" y="1082" type="curve" smooth="yes"/>
      <point x="1210" y="1437"/>
      <point x="878" y="1481"/>
      <point x="666" y="1481" type="curve" smooth="yes"/>
      <point x="146" y="1481" type="line"/>
    </contour>
    <contour>
      <point x="388" y="828" type="line"/>
      <point x="388" y="1298" type="line"/>
      <point x="672" y="1298" type="line" smooth="yes"/>
      <point x="894" y="1298"/>
      <point x="968" y="1205"/>
      <point x="968" y="1060" type="curve" smooth="yes"/>
      <point x="968" y="899"/>
      <point x="864" y="828"/>
      <point x="668" y="828" type="curve" smooth="yes"/>
    </contour>
  </outline>
</glyph>
<glyph name="S" format="1">
  <advance width="1257"/>
  <unicode hex="0053"/>
  <outline>
    <contour>
      <point x="598" y="-19" type="curve" smooth="yes"/>
      <point x="927" y="-19"/>
      <point x="1179" y="135"/>
      <point x="1179" y="408" type="curve" smooth="yes"/>
      <point x="1179" y="670"/>
      <point x="1049" y="760"/>
      <point x="631" y="860" type="curve" smooth="yes"/>
      <point x="411" y="906"/>
      <point x="333" y="972"/>
      <point x="333" y="1080" type="curve" smooth="yes"/>
      <point x="333" y="1210"/>
      <point x="443" y="1322"/>
      <point x="663" y="1322" type="curve" smooth="yes"/>
      <point x="798" y="1322"/>
      <point x="952" y="1275"/>
      <point x="1072" y="1198" type="curve"/>
      <point x="1100" y="1198" type="line"/>
      <point x="1127" y="1384" type="line"/>
      <point x="999" y="1456"/>
      <point x="829" y="1503"/>
      <point x="657" y="1503" type="curve" smooth="yes"/>
      <point x="340" y="1503"/>
      <point x="111" y="1333"/>
      <point x="111" y="1064" type="curve" smooth="yes"/>
      <point x="111" y="813"/>
      <point x="260" y="724"/>
      <point x="607" y="647" type="curve" smooth="yes"/>
      <point x="886" y="585"/>
      <point x="938" y="504"/>
      <point x="938" y="379" type="curve"/>
      <point x="938" y="270"/>
      <point x="854" y="159"/>
      <point x="604" y="159" type="curve" smooth="yes"/>
      <point x="462" y="159"/>
      <point x="258" y="204"/>
      <point x="143" y="323" type="curve"/>
      <point x="112" y="323" type="line"/>
      <point x="80" y="126" type="line"/>
      <point x="215" y="37"/>
      <point x="381" y="-19"/>
    </contour>
  </outline>
</glyph>
<glyph name="U" format="1">
  <advance width="1393"/>
  <unicode hex="0055"/>
  <outline>
    <contour>
      <point x="695" y="-23" type="curve" smooth="yes"/>
      <point x="1067" y="-23"/>
      <point x="1269" y="166"/>
      <point x="1269" y="477" type="curve" smooth="yes"/>
      <point x="1269" y="1481" type="line"/>
      <point x="1026" y="1481" type="line"/>
      <point x="1026" y="469" type="line" smooth="yes"/>
      <point x="1026" y="237"/>
      <point x="895" y="160"/>
      <point x="697" y="160" type="curve" smooth="yes"/>
      <point x="497" y="160"/>
      <point x="368" y="236"/>
      <point x="368" y="468" type="curve" smooth="yes"/>
      <point x="368" y="1481" type="line"/>
      <point x="124" y="1481" type="line"/>
      <point x="124" y="476" type="line" smooth="yes"/>
      <point x="124" y="161"/>
      <point x="339" y="-23"/>
    </contour>
  </outline>
</glyph>
<glyph name="V" format="1">
  <advance width="1355"/>
  <unicode hex="0056"/>
  <outline>
    <contour>
      <point x="535" y="0" type="line"/>
      <point x="832" y="0" type="line"/>
      <point x="1371" y="1481" type="line"/>
      <point x="1110" y="1481" type="line"/>
      <point x="1108" y="1477"/>
      <point x="744" y="420"/>
      <point x="743" y="415" type="curve"/>
      <point x="743" y="414"/>
      <point x="684" y="245"/>
      <point x="684" y="244" type="curve"/>
      <point x="681" y="244" type="line"/>
      <point x="681" y="244"/>
      <point x="622" y="414"/>
      <point x="622" y="415" type="curve"/>
      <point x="620" y="419"/>
      <point x="249" y="1477"/>
      <point x="247" y="1481" type="curve"/>
      <point x="-13" y="1481" type="line"/>
    </contour>
  </outline>
</glyph>
<glyph name="W" format="1">
  <advance width="1989"/>
  <unicode hex="0057"/>
  <outline>
    <contour>
      <point x="403" y="0" type="line"/>
      <point x="645" y="0" type="line"/>
      <point x="1002" y="1218" type="line"/>
      <point x="1003" y="1215"/>
      <point x="1336" y="5"/>
      <point x="1337" y="0" type="curve"/>
      <point x="1582" y="0" type="line"/>
      <point x="1985" y="1481" type="line"/>
      <point x="1745" y="1481" type="line"/>
      <point x="1744" y="1477"/>
      <point x="1538" y="669"/>
      <point x="1537" y="665" type="curve"/>
      <point x="1537" y="664"/>
      <point x="1464" y="367"/>
      <point x="1464" y="366" type="curve"/>
      <point x="1464" y="367"/>
      <point x="1379" y="677"/>
      <point x="1378" y="678" type="curve"/>
      <point x="1150" y="1481" type="line"/>
      <point x="856" y="1481" type="line"/>
      <point x="855" y="1477"/>
      <point x="621" y="672"/>
      <point x="620" y="668" type="curve"/>
      <point x="534" y="364" type="line"/>
      <point x="531" y="364" type="line"/>
      <point x="457" y="671" type="line"/>
      <point x="456" y="676"/>
      <point x="256" y="1477"/>
      <point x="256" y="1481" type="curve"/>
      <point x="6" y="1481" type="line"/>
    </contour>
  </outline>
</glyph>
<glyph name="X" format="1">
  <advance width="1353"/>
  <unicode hex="0058"/>
  <outline>
    <contour>
      <point x="-19" y="0" type="line"/>
      <point x="260" y="0" type="line"/>
      <point x="260" y="0"/>
      <point x="582" y="442"/>
      <point x="582" y="443" type="curve"/>
      <point x="583" y="444"/>
      <point x="676" y="571"/>
      <point x="676" y="572" type="curve"/>
      <point x="677" y="571"/>
      <point x="771" y="439"/>
      <point x="771" y="438" type="curve"/>
      <point x="1075" y="0" type="line"/>
      <point x="1346" y="0" type="line"/>
      <point x="811" y="734" type="line"/>
      <point x="1372" y="1481" type="line"/>
      <point x="1086" y="1481" type="line"/>
      <point x="747" y="1014" type="line"/>
      <point x="746" y="1013"/>
      <point x="672" y="912"/>
      <point x="671" y="911" type="curve"/>
      <point x="671" y="912"/>
      <point x="600" y="1014"/>
      <point x="599" y="1014" type="curve"/>
      <point x="598" y="1016"/>
      <point x="270" y="1479"/>
      <point x="269" y="1481" type="curve"/>
      <point x="10" y="1481" type="line"/>
      <point x="539" y="746" type="line"/>
    </contour>
  </outline>
</glyph>
<glyph name="Y" format="1">
  <advance width="1311"/>
  <unicode hex="0059"/>
  <outline>
    <contour>
      <point x="531" y="0" type="line"/>
      <point x="774" y="0" type="line"/>
      <point x="774" y="669" type="line"/>
      <point x="1360" y="1481" type="line"/>
      <point x="1085" y="1481" type="line"/>
      <point x="660" y="855" type="line"/>
      <point x="230" y="1481" type="line"/>
      <point x="-47" y="1481" type="line"/>
      <point x="531" y="658" type="line"/>
    </contour>
  </outline>
</glyph>
<glyph name="Z" format="1">
  <advance width="1141"/>
  <unicode hex="005A"/>
  <outline>
    <contour>
      <point x="99" y="0" type="line"/>
      <point x="1083" y="0" type="line"/>
      <point x="1083" y="183" type="line"/>
      <point x="380" y="183" type="line"/>
      <point x="1048" y="1299" type="line"/>
      <point x="1048" y="1481" type="line"/>
      <point x="134" y="1481" type="line"/>
      <point x="134" y="1298" type="line"/>
      <point x="772" y="1298" type="line"/>
      <point x="99" y="183" type="line"/>
    </contour>
  </outline>
</glyph>
<glyph name="bracketleft" format="1">
  <advance width="680"/>
  <unicode hex="005B"/>
  <outline>
    <contour>
      <point x="88" y="-258" type="line"/>
      <point x="599" y="-258" type="line"/>
      <point x="599" y="-76" type="line"/>
      <point x="330" y="-76" type="line"/>
      <point x="330" y="1300" type="line"/>
      <point x="599" y="1300" type="line"/>
      <point x="599" y="1482" type="line"/>
      <point x="88" y="1482" type="line"/>
    </contour>
  </outline>
</glyph>
<glyph name="backslash" format="1">
  <advance width="837"/>
  <unicode hex="005C"/>
  <outline>
    <contour>
      <point x="521" y="0" type="line"/>
      <point x="789" y="0" type="line"/>
      <point x="318" y="1481" type="line"/>
      <point x="48" y="1481" type="line"/>
    </contour>
  </outline>
</glyph>
<glyph name="bracketright" format="1">
  <advance width="680"/>
  <unicode hex="005D"/>
  <outline>
    <contour>
      <point x="81" y="-258" type="line"/>
      <point x="593" y="-258" type="line"/>
      <point x="593" y="1482" type="line"/>
      <point x="81" y="1482" type="line"/>
      <point x="81" y="1300" type="line"/>
      <point x="352" y="1300" type="line"/>
      <point x="352" y="-76" type="line"/>
      <point x="81" y="-76" type="line"/>
    </contour>
  </outline>
</glyph>
<glyph name="asciicircum" format="1">
  <advance width="1329"/>
  <unicode hex="005E"/>
  <outline>
    <contour>
      <point x="58" y="600" type="line"/>
      <point x="347" y="600" type="line"/>
      <point x="650" y="1140" type="line"/>
      <point x="982" y="601" type="line"/>
      <point x="1270" y="601" type="line"/>
      <point x="766" y="1391" type="line"/>
      <point x="535" y="1391" type="line"/>
    </contour>
  </outline>
</glyph>
<glyph name="underscore" format="1">
  <advance width="668"/>
  <unicode hex="005F"/>
  <outline>
    <contour>
      <point x="6" y="-129" type="line"/>
      <point x="662" y="-129" type="line"/>
      <point x="662" y="-2" type="line"/>
      <point x="6" y="-2" type="line"/>
    </contour>
  </outline>
</glyph>
<glyph name="grave" format="1">
  <advance width="476"/>
  <unicode hex="0060"/>
  <outline>
    <contour>
      <point x="289" y="1138" type="line"/>
      <point x="444" y="1138" type="line"/>
      <point x="266" y="1482" type="line"/>
      <point x="32" y="1482" type="line"/>
    </contour>
  </outline>
</glyph>
<glyph name="a" format="1">
  <advance width="1068"/>
  <unicode hex="0061"/>
  <outline>
    <contour>
      <point x="395" y="-23" type="curve" smooth="yes"/>
      <point x="573" y="-23"/>
      <point x="687" y="96"/>
      <point x="731" y="201" type="curve"/>
      <point x="731" y="0" type="line"/>
      <point x="972" y="0" type="line"/>
      <point x="972" y="659" type="line" smooth="yes"/>
      <point x="972" y="900"/>
      <point x="882" y="1059"/>
      <point x="524" y="1059" type="curve" smooth="yes"/>
      <point x="368" y="1059"/>
      <point x="200" y="1019"/>
      <point x="133" y="971" type="curve"/>
      <point x="189" y="807" type="line"/>
      <point x="289" y="846"/>
      <point x="409" y="876"/>
      <point x="509" y="876" type="curve" smooth="yes"/>
      <point x="677" y="876"/>
      <point x="731" y="804"/>
      <point x="731" y="645" type="curve"/>
      <point x="376" y="645"/>
      <point x="66" y="598"/>
      <point x="66" y="285" type="curve"/>
      <point x="66" y="107"/>
      <point x="201" y="-23"/>
    </contour>
    <contour>
      <point x="459" y="154" type="curve" smooth="yes"/>
      <point x="372" y="154"/>
      <point x="295" y="197"/>
      <point x="295" y="312" type="curve" smooth="yes"/>
      <point x="295" y="443"/>
      <point x="436" y="490"/>
      <point x="731" y="502" type="curve"/>
      <point x="731" y="273"/>
      <point x="635" y="154"/>
    </contour>
  </outline>
</glyph>
<glyph name="b" format="1">
  <advance width="1153"/>
  <unicode hex="0062"/>
  <outline>
    <contour>
      <point x="630" y="-27" type="curve" smooth="yes"/>
      <point x="909" y="-27"/>
      <point x="1076" y="187"/>
      <point x="1076" y="536" type="curve" smooth="yes"/>
      <point x="1076" y="860"/>
      <point x="912" y="1055"/>
      <point x="662" y="1055" type="curve" smooth="yes"/>
      <point x="549" y="1055"/>
      <point x="424" y="1019"/>
      <point x="357" y="930" type="curve"/>
      <point x="357" y="1430" type="line"/>
      <point x="115" y="1430" type="line"/>
      <point x="115" y="0" type="line"/>
      <point x="357" y="0" type="line"/>
      <point x="357" y="92" type="line"/>
      <point x="406" y="30"/>
      <point x="510" y="-27"/>
    </contour>
    <contour>
      <point x="584" y="156" type="curve" smooth="yes"/>
      <point x="518" y="156"/>
      <point x="418" y="178"/>
      <point x="357" y="217" type="curve"/>
      <point x="357" y="818" type="line"/>
      <point x="394" y="850"/>
      <point x="496" y="874"/>
      <point x="565" y="874" type="curve" smooth="yes"/>
      <point x="707" y="874"/>
      <point x="838" y="771"/>
      <point x="838" y="533" type="curve" smooth="yes"/>
      <point x="838" y="314"/>
      <point x="752" y="156"/>
    </contour>
  </outline>
</glyph>
<glyph name="c" format="1">
  <advance width="1017"/>
  <unicode hex="0063"/>
  <outline>
    <contour>
      <point x="617" y="-23" type="curve" smooth="yes"/>
      <point x="759" y="-23"/>
      <point x="857" y="13"/>
      <point x="965" y="71" type="curve"/>
      <point x="926" y="257" type="line"/>
      <point x="860" y="212"/>
      <point x="776" y="160"/>
      <point x="628" y="160" type="curve" smooth="yes"/>
      <point x="420" y="160"/>
      <point x="318" y="277"/>
      <point x="318" y="512" type="curve" smooth="yes"/>
      <point x="318" y="762"/>
      <point x="455" y="877"/>
      <point x="638" y="877" type="curve" smooth="yes"/>
      <point x="742" y="877"/>
      <point x="851" y="836"/>
      <point x="931" y="774" type="curve"/>
      <point x="969" y="960" type="line"/>
      <point x="836" y="1035"/>
      <point x="731" y="1055"/>
      <point x="608" y="1055" type="curve" smooth="yes"/>
      <point x="333" y="1055"/>
      <point x="80" y="905"/>
      <point x="80" y="513" type="curve" smooth="yes"/>
      <point x="80" y="141"/>
      <point x="311" y="-23"/>
    </contour>
  </outline>
</glyph>
<glyph name="d" format="1">
  <advance width="1147"/>
  <unicode hex="0064"/>
  <outline>
    <contour>
      <point x="537" y="-23" type="curve"/>
      <point x="657" y="-23"/>
      <point x="737" y="29"/>
      <point x="792" y="115" type="curve"/>
      <point x="792" y="0" type="line"/>
      <point x="1034" y="0" type="line"/>
      <point x="1034" y="1430" type="line"/>
      <point x="792" y="1430" type="line"/>
      <point x="792" y="961" type="line"/>
      <point x="747" y="1007"/>
      <point x="630" y="1059"/>
      <point x="520" y="1059" type="curve" smooth="yes"/>
      <point x="251" y="1059"/>
      <point x="80" y="870"/>
      <point x="80" y="516" type="curve" smooth="yes"/>
      <point x="80" y="198"/>
      <point x="260" y="-23"/>
    </contour>
    <contour>
      <point x="581" y="159" type="curve" smooth="yes"/>
      <point x="410" y="159"/>
      <point x="318" y="307"/>
      <point x="318" y="518" type="curve" smooth="yes"/>
      <point x="318" y="702"/>
      <point x="382" y="876"/>
      <point x="560" y="876" type="curve" smooth="yes"/>
      <point x="616" y="876"/>
      <point x="713" y="865"/>
      <point x="792" y="816" type="curve"/>
      <point x="792" y="216" type="line"/>
      <point x="736" y="169"/>
      <point x="624" y="159"/>
    </contour>
  </outline>
</glyph>
<glyph name="e" format="1">
  <advance width="1107"/>
  <unicode hex="0065"/>
  <outline>
    <contour>
      <point x="627" y="-23" type="curve" smooth="yes"/>
      <point x="856" y="-23"/>
      <point x="985" y="60"/>
      <point x="1030" y="99" type="curve"/>
      <point x="984" y="247" type="line"/>
      <point x="938" y="247" type="line"/>
      <point x="871" y="189"/>
      <point x="767" y="149"/>
      <point x="652" y="149" type="curve" smooth="yes"/>
      <point x="453" y="149"/>
      <point x="326" y="261"/>
      <point x="317" y="460" type="curve"/>
      <point x="1040" y="460" type="line"/>
      <point x="1040" y="513" type="line" smooth="yes"/>
      <point x="1040" y="826"/>
      <point x="894" y="1055"/>
      <point x="581" y="1055" type="curve" smooth="yes"/>
      <point x="281" y="1055"/>
      <point x="80" y="860"/>
      <point x="80" y="512" type="curve" smooth="yes"/>
      <point x="80" y="158"/>
      <point x="325" y="-23"/>
    </contour>
    <contour>
      <point x="320" y="613" type="line"/>
      <point x="339" y="764"/>
      <point x="424" y="887"/>
      <point x="585" y="887" type="curve"/>
      <point x="759" y="887"/>
      <point x="818" y="740"/>
      <point x="823" y="613" type="curve"/>
    </contour>
  </outline>
</glyph>
<glyph name="f" format="1">
  <advance width="760"/>
  <unicode hex="0066"/>
  <outline>
    <contour>
      <point x="214" y="0" type="line"/>
      <point x="456" y="0" type="line"/>
      <point x="456" y="870" type="line"/>
      <point x="714" y="870" type="line"/>
      <point x="714" y="1037" type="line"/>
      <point x="447" y="1037" type="line"/>
      <point x="447" y="1235"/>
      <point x="486" y="1267"/>
      <point x="613" y="1267" type="curve" smooth="yes"/>
      <point x="669" y="1267"/>
      <point x="741" y="1255"/>
      <point x="742" y="1255" type="curve"/>
      <point x="742" y="1430" type="line"/>
      <point x="687" y="1436"/>
      <point x="639" y="1442"/>
      <point x="566" y="1442" type="curve" smooth="yes"/>
      <point x="299" y="1442"/>
      <point x="214" y="1326"/>
      <point x="214" y="1075" type="curve" smooth="yes"/>
      <point x="214" y="1037" type="line"/>
      <point x="48" y="1037" type="line"/>
      <point x="48" y="870" type="line"/>
      <point x="214" y="870" type="line"/>
    </contour>
  </outline>
</glyph>
<glyph name="g" format="1">
  <advance width="1140"/>
  <unicode hex="0067"/>
  <outline>
    <contour>
      <point x="565" y="-391" type="curve" smooth="yes"/>
      <point x="859" y="-391"/>
      <point x="1030" y="-257"/>
      <point x="1030" y="114" type="curve" smooth="yes"/>
      <point x="1030" y="1037" type="line"/>
      <point x="788" y="1037" type="line"/>
      <point x="788" y="942" type="line"/>
      <point x="744" y="1017"/>
      <point x="623" y="1058"/>
      <point x="515" y="1058" type="curve" smooth="yes"/>
      <point x="245" y="1058"/>
      <point x="80" y="866"/>
      <point x="80" y="537" type="curve" smooth="yes"/>
      <point x="80" y="166"/>
      <point x="288" y="0"/>
      <point x="540" y="0" type="curve" smooth="yes"/>
      <point x="648" y="0"/>
      <point x="725" y="37"/>
      <point x="796" y="104" type="curve"/>
      <point x="796" y="96"/>
      <point x="796" y="86"/>
      <point x="796" y="79" type="curve" smooth="yes"/>
      <point x="792" y="-94"/>
      <point x="735" y="-210"/>
      <point x="536" y="-210" type="curve" smooth="yes"/>
      <point x="350" y="-210"/>
      <point x="211" y="-146"/>
      <point x="210" y="-146" type="curve"/>
      <point x="170" y="-310" type="line"/>
      <point x="266" y="-360"/>
      <point x="414" y="-391"/>
    </contour>
    <contour>
      <point x="586" y="179" type="curve" smooth="yes"/>
      <point x="448" y="179"/>
      <point x="318" y="257"/>
      <point x="318" y="536" type="curve" smooth="yes"/>
      <point x="318" y="800"/>
      <point x="443" y="889"/>
      <point x="570" y="889" type="curve" smooth="yes"/>
      <point x="673" y="889"/>
      <point x="745" y="854"/>
      <point x="788" y="836" type="curve"/>
      <point x="788" y="259" type="line"/>
      <point x="736" y="203"/>
      <point x="647" y="179"/>
    </contour>
  </outline>
</glyph>
<glyph name="h" format="1">
  <advance width="1129"/>
  <unicode hex="0068"/>
  <outline>
    <contour>
      <point x="115" y="0" type="line"/>
      <point x="357" y="0" type="line"/>
      <point x="357" y="740" type="line" smooth="yes"/>
      <point x="357" y="786"/>
      <point x="478" y="868"/>
      <point x="597" y="868" type="curve" smooth="yes"/>
      <point x="712" y="868"/>
      <point x="792" y="819"/>
      <point x="792" y="649" type="curve" smooth="yes"/>
      <point x="792" y="0" type="line"/>
      <point x="1033" y="0" type="line"/>
      <point x="1033" y="692" type="line" smooth="yes"/>
      <point x="1033" y="938"/>
      <point x="880" y="1059"/>
      <point x="712" y="1059" type="curve" smooth="yes"/>
      <point x="567" y="1059"/>
      <point x="418" y="1000"/>
      <point x="357" y="872" type="curve"/>
      <point x="357" y="1480" type="line"/>
      <point x="115" y="1480" type="line"/>
    </contour>
  </outline>
</glyph>
<glyph name="i" format="1">
  <advance width="526"/>
  <unicode hex="0069"/>
  <outline>
    <contour>
      <point x="141" y="0" type="line"/>
      <point x="383" y="0" type="line"/>
      <point x="383" y="1032" type="line"/>
      <point x="141" y="1032" type="line"/>
    </contour>
    <contour>
      <point x="263" y="1149" type="curve" smooth="yes"/>
      <point x="361" y="1149"/>
      <point x="411" y="1221"/>
      <point x="411" y="1290" type="curve" smooth="yes"/>
      <point x="411" y="1362"/>
      <point x="361" y="1432"/>
      <point x="263" y="1432" type="curve" smooth="yes"/>
      <point x="163" y="1432"/>
      <point x="115" y="1363"/>
      <point x="115" y="1290" type="curve" smooth="yes"/>
      <point x="115" y="1221"/>
      <point x="164" y="1149"/>
    </contour>
  </outline>
</glyph>
<glyph name="j" format="1">
  <advance width="554"/>
  <unicode hex="006A"/>
  <outline>
    <contour>
      <point x="105" y="-379" type="curve" smooth="yes"/>
      <point x="335" y="-379"/>
      <point x="423" y="-229"/>
      <point x="423" y="-9" type="curve" smooth="yes"/>
      <point x="423" y="1032" type="line"/>
      <point x="181" y="1032" type="line"/>
      <point x="181" y="19" type="line" smooth="yes"/>
      <point x="181" y="-184"/>
      <point x="117" y="-203"/>
      <point x="15" y="-203" type="curve" smooth="yes"/>
      <point x="-16" y="-203"/>
      <point x="-36" y="-202"/>
      <point x="-71" y="-199" type="curve"/>
      <point x="-71" y="-371" type="line"/>
      <point x="-39" y="-374"/>
      <point x="1" y="-379"/>
    </contour>
    <contour>
      <point x="292" y="1149" type="curve" smooth="yes"/>
      <point x="391" y="1149"/>
      <point x="440" y="1221"/>
      <point x="440" y="1290" type="curve" smooth="yes"/>
      <point x="440" y="1362"/>
      <point x="390" y="1432"/>
      <point x="292" y="1432" type="curve" smooth="yes"/>
      <point x="193" y="1432"/>
      <point x="144" y="1363"/>
      <point x="144" y="1290" type="curve" smooth="yes"/>
      <point x="144" y="1221"/>
      <point x="194" y="1149"/>
    </contour>
  </outline>
</glyph>
<glyph name="k" format="1">
  <advance width="1092"/>
  <unicode hex="006B"/>
  <outline>
    <contour>
      <point x="115" y="0" type="line"/>
      <point x="357" y="0" type="line"/>
      <point x="357" y="376" type="line"/>
      <point x="484" y="485" type="line"/>
      <point x="858" y="0" type="line"/>
      <point x="1071" y="0" type="line"/>
      <point x="1071" y="60" type="line"/>
      <point x="662" y="601" type="line"/>
      <point x="1062" y="988" type="line"/>
      <point x="1062" y="1032" type="line"/>
      <point x="817" y="1032" type="line"/>
      <point x="357" y="598" type="line"/>
      <point x="357" y="1430" type="line"/>
      <point x="115" y="1430" type="line"/>
    </contour>
  </outline>
</glyph>
<glyph name="l" format="1">
  <advance width="591"/>
  <unicode hex="006C"/>
  <outline>
    <contour>
      <point x="472" y="-6" type="curve" smooth="yes"/>
      <point x="554" y="-6" type="line"/>
      <point x="554" y="175" type="line"/>
      <point x="419" y="175"/>
      <point x="358" y="174"/>
      <point x="358" y="302" type="curve" smooth="yes"/>
      <point x="358" y="1430" type="line"/>
      <point x="116" y="1430" type="line"/>
      <point x="116" y="348" type="line" smooth="yes"/>
      <point x="116" y="196"/>
      <point x="80" y="-6"/>
    </contour>
  </outline>
</glyph>
<glyph name="m" format="1">
  <advance width="1711"/>
  <unicode hex="006D"/>
  <outline>
    <contour>
      <point x="115" y="0" type="line"/>
      <point x="357" y="0" type="line"/>
      <point x="357" y="739" type="line"/>
      <point x="357" y="806"/>
      <point x="461" y="868"/>
      <point x="550" y="868" type="curve" smooth="yes"/>
      <point x="665" y="868"/>
      <point x="743" y="812"/>
      <point x="743" y="646" type="curve" smooth="yes"/>
      <point x="743" y="0" type="line"/>
      <point x="985" y="0" type="line"/>
      <point x="985" y="739" type="line" smooth="yes"/>
      <point x="985" y="778"/>
      <point x="1062" y="868"/>
      <point x="1176" y="868" type="curve" smooth="yes"/>
      <point x="1299" y="868"/>
      <point x="1371" y="806"/>
      <point x="1371" y="620" type="curve" smooth="yes"/>
      <point x="1371" y="0" type="line"/>
      <point x="1613" y="0" type="line"/>
      <point x="1613" y="679" type="line" smooth="yes"/>
      <point x="1615" y="943"/>
      <point x="1480" y="1059"/>
      <point x="1301" y="1059" type="curve" smooth="yes"/>
      <point x="1180" y="1059"/>
      <point x="1052" y="996"/>
      <point x="964" y="876" type="curve"/>
      <point x="909" y="999"/>
      <point x="809" y="1059"/>
      <point x="694" y="1059" type="curve" smooth="yes"/>
      <point x="567" y="1059"/>
      <point x="426" y="1018"/>
      <point x="357" y="871" type="curve"/>
      <point x="357" y="1032" type="line"/>
      <point x="115" y="1032" type="line"/>
    </contour>
  </outline>
</glyph>
<glyph name="n" format="1">
  <advance width="1131"/>
  <unicode hex="006E"/>
  <outline>
    <contour>
      <point x="115" y="0" type="line"/>
      <point x="357" y="0" type="line"/>
      <point x="357" y="741" type="line" smooth="yes"/>
      <point x="357" y="786"/>
      <point x="478" y="868"/>
      <point x="597" y="868" type="curve" smooth="yes"/>
      <point x="712" y="868"/>
      <point x="792" y="819"/>
      <point x="792" y="649" type="curve" smooth="yes"/>
      <point x="792" y="0" type="line"/>
      <point x="1033" y="0" type="line"/>
      <point x="1033" y="692" type="line" smooth="yes"/>
      <point x="1033" y="938"/>
      <point x="879" y="1059"/>
      <point x="712" y="1059" type="curve" smooth="yes"/>
      <point x="568" y="1059"/>
      <point x="419" y="1000"/>
      <point x="357" y="872" type="curve"/>
      <point x="357" y="1032" type="line"/>
      <point x="115" y="1032" type="line"/>
    </contour>
  </outline>
</glyph>
<glyph name="o" format="1">
  <advance width="1184"/>
  <unicode hex="006F"/>
  <outline>
    <contour>
      <point x="593" y="160" type="curve" smooth="yes"/>
      <point x="426" y="160"/>
      <point x="318" y="267"/>
      <point x="318" y="518" type="curve" smooth="yes"/>
      <point x="318" y="771"/>
      <point x="431" y="876"/>
      <point x="589" y="876" type="curve" smooth="yes"/>
      <point x="762" y="876"/>
      <point x="866" y="773"/>
      <point x="866" y="516" type="curve" smooth="yes"/>
      <point x="866" y="283"/>
      <point x="779" y="160"/>
    </contour>
    <contour>
      <point x="589" y="-23" type="curve" smooth="yes"/>
      <point x="877" y="-23"/>
      <point x="1104" y="143"/>
      <point x="1104" y="519" type="curve" smooth="yes"/>
      <point x="1104" y="897"/>
      <point x="877" y="1059"/>
      <point x="589" y="1059" type="curve" smooth="yes"/>
      <point x="314" y="1059"/>
      <point x="80" y="899"/>
      <point x="80" y="520" type="curve" smooth="yes"/>
      <point x="80" y="142"/>
      <point x="307" y="-23"/>
    </contour>
  </outline>
</glyph>
<glyph name="p" format="1">
  <advance width="1149"/>
  <unicode hex="0070"/>
  <outline>
    <contour>
      <point x="115" y="-390" type="line"/>
      <point x="357" y="-390" type="line"/>
      <point x="357" y="72" type="line"/>
      <point x="401" y="26"/>
      <point x="518" y="-26"/>
      <point x="627" y="-26" type="curve" smooth="yes"/>
      <point x="896" y="-26"/>
      <point x="1070" y="162"/>
      <point x="1070" y="515" type="curve" smooth="yes"/>
      <point x="1070" y="833"/>
      <point x="932" y="1055"/>
      <point x="655" y="1055" type="curve" smooth="yes"/>
      <point x="535" y="1055"/>
      <point x="399" y="989"/>
      <point x="357" y="925" type="curve"/>
      <point x="357" y="1032" type="line"/>
      <point x="115" y="1032" type="line"/>
    </contour>
    <contour>
      <point x="591" y="156" type="curve" smooth="yes"/>
      <point x="535" y="156"/>
      <point x="436" y="168"/>
      <point x="357" y="217" type="curve"/>
      <point x="357" y="817" type="line"/>
      <point x="412" y="865"/>
      <point x="526" y="874"/>
      <point x="570" y="874" type="curve" smooth="yes"/>
      <point x="741" y="874"/>
      <point x="832" y="727"/>
      <point x="832" y="515" type="curve" smooth="yes"/>
      <point x="832" y="331"/>
      <point x="770" y="156"/>
    </contour>
  </outline>
</glyph>
<glyph name="q" format="1">
  <advance width="1155"/>
  <unicode hex="0071"/>
  <outline>
    <contour>
      <point x="798" y="-390" type="line"/>
      <point x="1040" y="-390" type="line"/>
      <point x="1040" y="1032" type="line"/>
      <point x="798" y="1032" type="line"/>
      <point x="798" y="949" type="line"/>
      <point x="749" y="1010"/>
      <point x="645" y="1055"/>
      <point x="525" y="1055" type="curve" smooth="yes"/>
      <point x="245" y="1055"/>
      <point x="80" y="841"/>
      <point x="80" y="496" type="curve" smooth="yes"/>
      <point x="80" y="173"/>
      <point x="270" y="-23"/>
      <point x="520" y="-23" type="curve" smooth="yes"/>
      <point x="633" y="-23"/>
      <point x="731" y="13"/>
      <point x="798" y="102" type="curve"/>
    </contour>
    <contour>
      <point x="590" y="159" type="curve" smooth="yes"/>
      <point x="447" y="159"/>
      <point x="318" y="260"/>
      <point x="318" y="498" type="curve" smooth="yes"/>
      <point x="318" y="714"/>
      <point x="402" y="871"/>
      <point x="570" y="871" type="curve" smooth="yes"/>
      <point x="637" y="871"/>
      <point x="737" y="852"/>
      <point x="798" y="816" type="curve"/>
      <point x="798" y="215" type="line"/>
      <point x="761" y="182"/>
      <point x="659" y="159"/>
    </contour>
  </outline>
</glyph>
<glyph name="r" format="1">
  <advance width="777"/>
  <unicode hex="0072"/>
  <outline>
    <contour>
      <point x="115" y="0" type="line"/>
      <point x="357" y="0" type="line"/>
      <point x="357" y="752" type="line"/>
      <point x="403" y="814"/>
      <point x="507" y="829"/>
      <point x="569" y="829" type="curve" smooth="yes"/>
      <point x="629" y="829"/>
      <point x="687" y="812"/>
      <point x="719" y="798" type="curve"/>
      <point x="757" y="1017" type="line"/>
      <point x="732" y="1030"/>
      <point x="691" y="1037"/>
      <point x="655" y="1037" type="curve" smooth="yes"/>
      <point x="528" y="1037"/>
      <point x="416" y="969"/>
      <point x="358" y="904" type="curve"/>
      <point x="358" y="904"/>
      <point x="357" y="904"/>
      <point x="357" y="904" type="curve"/>
      <point x="357" y="1032" type="line"/>
      <point x="115" y="1032" type="line"/>
    </contour>
  </outline>
</glyph>
<glyph name="s" format="1">
  <advance width="975"/>
  <unicode hex="0073"/>
  <outline>
    <contour>
      <point x="478" y="-23" type="curve"/>
      <point x="765" y="-23"/>
      <point x="927" y="101"/>
      <point x="927" y="298" type="curve" smooth="yes"/>
      <point x="927" y="493"/>
      <point x="820" y="574"/>
      <point x="580" y="620" type="curve" smooth="yes"/>
      <point x="376" y="664"/>
      <point x="308" y="679"/>
      <point x="308" y="760" type="curve" smooth="yes"/>
      <point x="308" y="836"/>
      <point x="383" y="875"/>
      <point x="485" y="875" type="curve" smooth="yes"/>
      <point x="610" y="875"/>
      <point x="753" y="835"/>
      <point x="816" y="809" type="curve"/>
      <point x="837" y="809" type="line"/>
      <point x="856" y="988" type="line"/>
      <point x="800" y="1019"/>
      <point x="644" y="1058"/>
      <point x="480" y="1058" type="curve" smooth="yes"/>
      <point x="212" y="1058"/>
      <point x="77" y="934"/>
      <point x="77" y="747" type="curve" smooth="yes"/>
      <point x="77" y="547"/>
      <point x="262" y="482"/>
      <point x="467" y="443" type="curve" smooth="yes"/>
      <point x="684" y="400"/>
      <point x="707" y="369"/>
      <point x="707" y="298" type="curve" smooth="yes"/>
      <point x="707" y="216"/>
      <point x="608" y="169"/>
      <point x="473" y="169" type="curve" smooth="yes"/>
      <point x="324" y="169"/>
      <point x="217" y="211"/>
      <point x="147" y="247" type="curve"/>
      <point x="109" y="247" type="line"/>
      <point x="80" y="71" type="line"/>
      <point x="182" y="11"/>
      <point x="339" y="-23"/>
    </contour>
  </outline>
</glyph>
<glyph name="t" format="1">
  <advance width="854"/>
  <unicode hex="0074"/>
  <outline>
    <contour>
      <point x="550" y="-13" type="curve" smooth="yes"/>
      <point x="660" y="-13"/>
      <point x="702" y="-8"/>
      <point x="769" y="5" type="curve"/>
      <point x="769" y="180" type="line"/>
      <point x="768" y="178"/>
      <point x="697" y="166"/>
      <point x="611" y="166" type="curve" smooth="yes"/>
      <point x="510" y="166"/>
      <point x="437" y="200"/>
      <point x="437" y="332" type="curve" smooth="yes"/>
      <point x="437" y="870" type="line"/>
      <point x="769" y="870" type="line"/>
      <point x="769" y="1032" type="line"/>
      <point x="437" y="1032" type="line"/>
      <point x="437" y="1356" type="line"/>
      <point x="195" y="1287" type="line"/>
      <point x="195" y="1032" type="line"/>
      <point x="73" y="1032" type="line"/>
      <point x="73" y="870" type="line"/>
      <point x="195" y="870" type="line"/>
      <point x="195" y="328" type="line" smooth="yes"/>
      <point x="195" y="91"/>
      <point x="301" y="-13"/>
    </contour>
  </outline>
</glyph>
<glyph name="u" format="1">
  <advance width="1125"/>
  <unicode hex="0075"/>
  <outline>
    <contour>
      <point x="435" y="-23" type="curve" smooth="yes"/>
      <point x="579" y="-23"/>
      <point x="703" y="43"/>
      <point x="770" y="145" type="curve"/>
      <point x="770" y="0" type="line"/>
      <point x="1011" y="0" type="line"/>
      <point x="1011" y="1032" type="line"/>
      <point x="770" y="1032" type="line"/>
      <point x="770" y="276" type="line"/>
      <point x="770" y="231"/>
      <point x="662" y="169"/>
      <point x="543" y="169" type="curve" smooth="yes"/>
      <point x="428" y="169"/>
      <point x="341" y="218"/>
      <point x="341" y="388" type="curve" smooth="yes"/>
      <point x="341" y="1032" type="line"/>
      <point x="99" y="1032" type="line"/>
      <point x="99" y="345" type="line" smooth="yes"/>
      <point x="99" y="99"/>
      <point x="268" y="-23"/>
    </contour>
  </outline>
</glyph>
<glyph name="v" format="1">
  <advance width="1058"/>
  <unicode hex="0076"/>
  <outline>
    <contour>
      <point x="402" y="0" type="line"/>
      <point x="662" y="0" type="line"/>
      <point x="1069" y="1032" type="line"/>
      <point x="812" y="1032" type="line"/>
      <point x="811" y="1029"/>
      <point x="593" y="404"/>
      <point x="592" y="401" type="curve"/>
      <point x="592" y="400"/>
      <point x="537" y="247"/>
      <point x="537" y="246" type="curve"/>
      <point x="536" y="246" type="line"/>
      <point x="477" y="401" type="line"/>
      <point x="476" y="404"/>
      <point x="240" y="1029"/>
      <point x="239" y="1032" type="curve"/>
      <point x="-8" y="1032" type="line"/>
    </contour>
  </outline>
</glyph>
<glyph name="w" format="1">
  <advance width="1653"/>
  <unicode hex="0077"/>
  <outline>
    <contour>
      <point x="332" y="0" type="line"/>
      <point x="610" y="0" type="line"/>
      <point x="825" y="759" type="line"/>
      <point x="828" y="759" type="line"/>
      <point x="1041" y="0" type="line"/>
      <point x="1320" y="0" type="line"/>
      <point x="1639" y="1032" type="line"/>
      <point x="1379" y="1032" type="line"/>
      <point x="1210" y="379" type="line"/>
      <point x="1210" y="379"/>
      <point x="1175" y="246"/>
      <point x="1175" y="246" type="curve"/>
      <point x="1175" y="246"/>
      <point x="1140" y="380"/>
      <point x="1139" y="381" type="curve"/>
      <point x="1139" y="381"/>
      <point x="963" y="1032"/>
      <point x="963" y="1032" type="curve"/>
      <point x="700" y="1032" type="line"/>
      <point x="700" y="1032"/>
      <point x="525" y="380"/>
      <point x="524" y="377" type="curve"/>
      <point x="486" y="239" type="line"/>
      <point x="485" y="239" type="line"/>
      <point x="448" y="380" type="line"/>
      <point x="448" y="381"/>
      <point x="279" y="1032"/>
      <point x="279" y="1032" type="curve"/>
      <point x="15" y="1032" type="line"/>
    </contour>
  </outline>
</glyph>
<glyph name="x" format="1">
  <advance width="1117"/>
  <unicode hex="0078"/>
  <outline>
    <contour>
      <point x="12" y="0" type="line"/>
      <point x="285" y="0" type="line"/>
      <point x="285" y="1"/>
      <point x="508" y="288"/>
      <point x="509" y="289" type="curve"/>
      <point x="561" y="358" type="line"/>
      <point x="614" y="289" type="line" smooth="yes"/>
      <point x="615" y="288"/>
      <point x="836" y="1"/>
      <point x="837" y="0" type="curve"/>
      <point x="1108" y="0" type="line"/>
      <point x="696" y="516" type="line"/>
      <point x="1108" y="1032" type="line"/>
      <point x="836" y="1032" type="line"/>
      <point x="836" y="1031"/>
      <point x="617" y="751"/>
      <point x="616" y="750" type="curve"/>
      <point x="561" y="677" type="line"/>
      <point x="561" y="678"/>
      <point x="499" y="758"/>
      <point x="498" y="759" type="curve"/>
      <point x="286" y="1032" type="line"/>
      <point x="12" y="1032" type="line"/>
      <point x="423" y="516" type="line"/>
    </contour>
  </outline>
</glyph>
<glyph name="y" format="1">
  <advance width="1052"/>
  <unicode hex="0079"/>
  <outline>
    <contour>
      <point x="252" y="-391" type="curve"/>
      <point x="492" y="-391" type="line"/>
      <point x="494" y="-393"/>
      <point x="577" y="-232"/>
      <point x="623" y="-102" type="curve" smooth="yes"/>
      <point x="1070" y="1032" type="line"/>
      <point x="810" y="1032" type="line"/>
      <point x="534" y="246" type="line"/>
      <point x="239" y="1032" type="line"/>
      <point x="-8" y="1032" type="line"/>
      <point x="417" y="-35" type="line"/>
      <point x="364" y="-172"/>
      <point x="308" y="-289"/>
    </contour>
  </outline>
</glyph>
<glyph name="z" format="1">
  <advance width="981"/>
  <unicode hex="007A"/>
  <outline>
    <contour>
      <point x="76" y="0" type="line"/>
      <point x="916" y="0" type="line"/>
      <point x="916" y="163" type="line"/>
      <point x="317" y="163" type="line"/>
      <point x="909" y="861" type="line"/>
      <point x="909" y="1032" type="line"/>
      <point x="102" y="1032" type="line"/>
      <point x="102" y="870" type="line"/>
      <point x="659" y="870" type="line"/>
      <point x="76" y="183" type="line"/>
    </contour>
  </outline>
</glyph>
<glyph name="braceleft" format="1">
  <advance width="916"/>
  <unicode hex="007B"/>
  <outline>
    <contour>
      <point x="834" y="-260" type="curve" smooth="yes"/>
      <point x="835" y="-260"/>
      <point x="880" y="-260"/>
      <point x="880" y="-260" type="curve"/>
      <point x="880" y="-80" type="line"/>
      <point x="880" y="-80"/>
      <point x="743" y="-80"/>
      <point x="743" y="-80" type="curve" smooth="yes"/>
      <point x="573" y="-80"/>
      <point x="578" y="-37"/>
      <point x="578" y="188" type="curve" smooth="yes"/>
      <point x="578" y="263" type="line" smooth="yes"/>
      <point x="578" y="461"/>
      <point x="459" y="564"/>
      <point x="323" y="607" type="curve"/>
      <point x="323" y="616" type="line"/>
      <point x="487" y="668"/>
      <point x="578" y="778"/>
      <point x="578" y="1008" type="curve" smooth="yes"/>
      <point x="578" y="1063" type="line" smooth="yes"/>
      <point x="578" y="1255"/>
      <point x="588" y="1300"/>
      <point x="751" y="1300" type="curve" smooth="yes"/>
      <point x="880" y="1300" type="line"/>
      <point x="880" y="1482" type="line"/>
      <point x="771" y="1482" type="line" smooth="yes"/>
      <point x="507" y="1482"/>
      <point x="348" y="1444"/>
      <point x="348" y="1171" type="curve" smooth="yes"/>
      <point x="348" y="1002" type="line" smooth="yes"/>
      <point x="348" y="786"/>
      <point x="262" y="717"/>
      <point x="30" y="717" type="curve"/>
      <point x="30" y="504" type="line"/>
      <point x="260" y="504"/>
      <point x="348" y="428"/>
      <point x="348" y="219" type="curve" smooth="yes"/>
      <point x="348" y="89" type="line" smooth="yes"/>
      <point x="348" y="-230"/>
      <point x="510" y="-260"/>
    </contour>
  </outline>
</glyph>
<glyph name="bar" format="1">
  <advance width="434"/>
  <unicode hex="007C"/>
  <outline>
    <contour>
      <point x="96" y="-407" type="line"/>
      <point x="338" y="-407" type="line"/>
      <point x="338" y="1481" type="line"/>
      <point x="96" y="1481" type="line"/>
    </contour>
  </outline>
</glyph>
<glyph name="braceright" format="1">
  <advance width="916"/>
  <unicode hex="007D"/>
  <outline>
    <contour>
      <point x="36" y="-260" type="line"/>
      <point x="143" y="-260" type="line" smooth="yes"/>
      <point x="408" y="-260"/>
      <point x="568" y="-223"/>
      <point x="568" y="49" type="curve" smooth="yes"/>
      <point x="568" y="220" type="line" smooth="yes"/>
      <point x="568" y="437"/>
      <point x="654" y="504"/>
      <point x="886" y="504" type="curve"/>
      <point x="886" y="717" type="line"/>
      <point x="656" y="717"/>
      <point x="568" y="794"/>
      <point x="568" y="1002" type="curve" smooth="yes"/>
      <point x="568" y="1133" type="line" smooth="yes"/>
      <point x="568" y="1452"/>
      <point x="406" y="1482"/>
      <point x="81" y="1482" type="curve" smooth="yes"/>
      <point x="81" y="1482"/>
      <point x="36" y="1482"/>
      <point x="36" y="1482" type="curve"/>
      <point x="36" y="1301" type="line"/>
      <point x="173" y="1301" type="line" smooth="yes"/>
      <point x="343" y="1301"/>
      <point x="338" y="1260"/>
      <point x="338" y="1035" type="curve" smooth="yes"/>
      <point x="338" y="957" type="line" smooth="yes"/>
      <point x="338" y="760"/>
      <point x="457" y="659"/>
      <point x="592" y="616" type="curve"/>
      <point x="592" y="607" type="line"/>
      <point x="429" y="555"/>
      <point x="338" y="444"/>
      <point x="338" y="213" type="curve" smooth="yes"/>
      <point x="338" y="158" type="line" smooth="yes"/>
      <point x="338" y="-33"/>
      <point x="329" y="-79"/>
      <point x="166" y="-79" type="curve" smooth="yes"/>
      <point x="36" y="-79" type="line"/>
    </contour>
  </outline>
</glyph>
<glyph name="asciitilde" format="1">
  <advance width="1354"/>
  <unicode hex="007E"/>
  <outline>
    <contour>
      <point x="938" y="310" type="curve" smooth="yes"/>
      <point x="1165" y="310"/>
      <point x="1291" y="475"/>
      <point x="1306" y="800" type="curve"/>
      <point x="1089" y="845" type="line"/>
      <point x="1069" y="698"/>
      <point x="1067" y="550"/>
      <point x="934" y="550" type="curve" smooth="yes"/>
      <point x="744" y="550"/>
      <point x="612" y="842"/>
      <point x="409" y="842" type="curve" smooth="yes"/>
      <point x="195" y="842"/>
      <point x="63" y="682"/>
      <point x="48" y="350" type="curve"/>
      <point x="263" y="306" type="line"/>
      <point x="286" y="488"/>
      <point x="327" y="595"/>
      <point x="414" y="595" type="curve" smooth="yes"/>
      <point x="522" y="595"/>
      <point x="683" y="310"/>
    </contour>
  </outline>
</glyph>
<glyph name="cent" format="1">
  <advance width="1088"/>
  <unicode hex="00A2"/>
  <outline>
    <contour>
      <point x="512" y="-291" type="line"/>
      <point x="656" y="-291" type="line"/>
      <point x="656" y="1307" type="line"/>
      <point x="512" y="1307" type="line"/>
    </contour>
    <component base="c" xOffset="-56"/>
  </outline>
</glyph>
<glyph name="sterling" format="1">
  <advance width="1211"/>
  <unicode hex="00A3"/>
  <outline>
    <contour>
      <point x="811" y="-26" type="curve" smooth="yes"/>
      <point x="916" y="-26"/>
      <point x="1044" y="4"/>
      <point x="1152" y="33" type="curve"/>
      <point x="1104" y="204" type="line"/>
      <point x="1010" y="186"/>
      <point x="864" y="165"/>
      <point x="771" y="165" type="curve" smooth="yes"/>
      <point x="682" y="165"/>
      <point x="562" y="189"/>
      <point x="475" y="191" type="curve"/>
      <point x="530" y="288"/>
      <point x="571" y="470"/>
      <point x="571" y="570" type="curve" smooth="yes"/>
      <point x="571" y="582"/>
      <point x="569" y="620"/>
      <point x="567" y="630" type="curve"/>
      <point x="959" y="630" type="line"/>
      <point x="959" y="811" type="line"/>
      <point x="546" y="811" type="line"/>
      <point x="532" y="876"/>
      <point x="484" y="1001"/>
      <point x="484" y="1076" type="curve" smooth="yes"/>
      <point x="484" y="1211"/>
      <point x="552" y="1322"/>
      <point x="730" y="1322" type="curve" smooth="yes"/>
      <point x="824" y="1322"/>
      <point x="937" y="1294"/>
      <point x="1004" y="1200" type="curve"/>
      <point x="1073" y="1200" type="line"/>
      <point x="1061" y="1401" type="line"/>
      <point x="1004" y="1457"/>
      <point x="850" y="1503"/>
      <point x="701" y="1503" type="curve" smooth="yes"/>
      <point x="406" y="1503"/>
      <point x="218" y="1357"/>
      <point x="218" y="1129" type="curve" smooth="yes"/>
      <point x="218" y="1036"/>
      <point x="255" y="929"/>
      <point x="279" y="811" type="curve"/>
      <point x="84" y="811" type="line"/>
      <point x="84" y="630" type="line"/>
      <point x="316" y="630" type="line"/>
      <point x="319" y="616"/>
      <point x="325" y="553"/>
      <point x="325" y="538" type="curve" smooth="yes"/>
      <point x="325" y="406"/>
      <point x="279" y="273"/>
      <point x="244" y="185" type="curve"/>
      <point x="205" y="177"/>
      <point x="140" y="171"/>
      <point x="75" y="166" type="curve"/>
      <point x="75" y="-12" type="line"/>
      <point x="148" y="-2"/>
      <point x="218" y="12"/>
      <point x="287" y="12" type="curve" smooth="yes"/>
      <point x="448" y="12"/>
      <point x="653" y="-26"/>
    </contour>
  </outline>
</glyph>
<glyph name="yen" format="1">
  <advance width="1480"/>
  <unicode hex="00A5"/>
  <outline>
    <contour>
      <point x="616" y="0" type="line"/>
      <point x="858" y="0" type="line"/>
      <point x="858" y="372" type="line"/>
      <point x="1242" y="372" type="line"/>
      <point x="1242" y="514" type="line"/>
      <point x="858" y="514" type="line"/>
      <point x="859" y="654" type="line"/>
      <point x="1242" y="654" type="line"/>
      <point x="1242" y="784" type="line"/>
      <point x="940" y="784" type="line"/>
      <point x="1445" y="1481" type="line"/>
      <point x="1169" y="1481" type="line"/>
      <point x="1168" y="1478"/>
      <point x="746" y="858"/>
      <point x="745" y="855" type="curve"/>
      <point x="743" y="858"/>
      <point x="317" y="1478"/>
      <point x="316" y="1481" type="curve"/>
      <point x="37" y="1481" type="line"/>
      <point x="527" y="784" type="line"/>
      <point x="189" y="784" type="line"/>
      <point x="189" y="654" type="line"/>
      <point x="614" y="654" type="line"/>
      <point x="616" y="514" type="line"/>
      <point x="189" y="514" type="line"/>
      <point x="189" y="372" type="line"/>
      <point x="616" y="372" type="line"/>
    </contour>
  </outline>
</glyph>
<glyph name="brokenbar" format="1">
  <advance width="333"/>
  <unicode hex="00A6"/>
  <outline>
    <contour>
      <point x="90" y="-337" type="line"/>
      <point x="242" y="-337" type="line"/>
      <point x="242" y="337" type="line"/>
      <point x="90" y="337" type="line"/>
    </contour>
    <contour>
      <point x="90" y="627" type="line"/>
      <point x="242" y="627" type="line"/>
      <point x="242" y="1299" type="line"/>
      <point x="90" y="1299" type="line"/>
    </contour>
  </outline>
</glyph>
<glyph name="section" format="1">
  <advance width="995"/>
  <unicode hex="00A7"/>
  <outline>
    <contour>
      <point x="474" y="-160" type="curve"/>
      <point x="761" y="-160"/>
      <point x="924" y="-35"/>
      <point x="924" y="162" type="curve" smooth="yes"/>
      <point x="924" y="290"/>
      <point x="880" y="367"/>
      <point x="781" y="419" type="curve"/>
      <point x="875" y="475"/>
      <point x="924" y="562"/>
      <point x="924" y="671" type="curve" smooth="yes"/>
      <point x="924" y="866"/>
      <point x="817" y="948"/>
      <point x="577" y="993" type="curve" smooth="yes"/>
      <point x="374" y="1037"/>
      <point x="304" y="1052"/>
      <point x="304" y="1133" type="curve" smooth="yes"/>
      <point x="304" y="1209"/>
      <point x="379" y="1248"/>
      <point x="481" y="1248" type="curve" smooth="yes"/>
      <point x="622" y="1248"/>
      <point x="789" y="1197"/>
      <point x="833" y="1173" type="curve"/>
      <point x="853" y="1351" type="line"/>
      <point x="755" y="1401"/>
      <point x="642" y="1431"/>
      <point x="477" y="1431" type="curve" smooth="yes"/>
      <point x="209" y="1431"/>
      <point x="73" y="1308"/>
      <point x="73" y="1120" type="curve" smooth="yes"/>
      <point x="73" y="998"/>
      <point x="145" y="925"/>
      <point x="246" y="879" type="curve"/>
      <point x="132" y="828"/>
      <point x="73" y="733"/>
      <point x="73" y="610" type="curve" smooth="yes"/>
      <point x="73" y="410"/>
      <point x="259" y="345"/>
      <point x="464" y="306" type="curve" smooth="yes"/>
      <point x="680" y="263"/>
      <point x="705" y="233"/>
      <point x="705" y="162" type="curve" smooth="yes"/>
      <point x="705" y="80"/>
      <point x="605" y="31"/>
      <point x="470" y="31" type="curve" smooth="yes"/>
      <point x="292" y="31"/>
      <point x="173" y="93"/>
      <point x="109" y="131" type="curve"/>
      <point x="77" y="-66" type="line"/>
      <point x="179" y="-126"/>
      <point x="335" y="-160"/>
    </contour>
    <contour>
      <point x="601" y="478" type="line"/>
      <point x="601" y="478"/>
      <point x="577" y="484"/>
      <point x="577" y="484" type="curve" smooth="yes"/>
      <point x="374" y="528"/>
      <point x="294" y="544"/>
      <point x="293" y="649" type="curve" smooth="yes"/>
      <point x="293" y="720"/>
      <point x="334" y="791"/>
      <point x="417" y="824" type="curve"/>
      <point x="433" y="821"/>
      <point x="449" y="819"/>
      <point x="464" y="816" type="curve" smooth="yes"/>
      <point x="680" y="774"/>
      <point x="715" y="751"/>
      <point x="715" y="643" type="curve" smooth="yes"/>
      <point x="715" y="591"/>
      <point x="671" y="522"/>
      <point x="604" y="479" type="curve"/>
    </contour>
  </outline>
</glyph>
<glyph name="dieresis" format="1">
  <advance width="710"/>
  <unicode hex="00A8"/>
  <outline>
    <contour>
      <point x="77" y="1205" type="line"/>
      <point x="275" y="1205" type="line"/>
      <point x="275" y="1430" type="line"/>
      <point x="77" y="1430" type="line"/>
    </contour>
    <contour>
      <point x="443" y="1205" type="line"/>
      <point x="641" y="1205" type="line"/>
      <point x="641" y="1430" type="line"/>
      <point x="443" y="1430" type="line"/>
    </contour>
  </outline>
</glyph>
<glyph name="copyright" format="1">
  <advance width="1749"/>
  <unicode hex="00A9"/>
  <outline>
    <contour>
      <point x="902" y="222" type="curve" smooth="yes"/>
      <point x="1006" y="222"/>
      <point x="1107" y="254"/>
      <point x="1181" y="307" type="curve"/>
      <point x="1135" y="401" type="line"/>
      <point x="1135" y="401"/>
      <point x="1037" y="330"/>
      <point x="915" y="330" type="curve" smooth="yes"/>
      <point x="747" y="330"/>
      <point x="619" y="441"/>
      <point x="619" y="645" type="curve" smooth="yes"/>
      <point x="619" y="850"/>
      <point x="757" y="958"/>
      <point x="899" y="958" type="curve" smooth="yes"/>
      <point x="1008" y="958"/>
      <point x="1061" y="923"/>
      <point x="1135" y="879" type="curve"/>
      <point x="1176" y="969" type="line"/>
      <point x="1094" y="1029"/>
      <point x="996" y="1064"/>
      <point x="887" y="1064" type="curve" smooth="yes"/>
      <point x="647" y="1064"/>
      <point x="475" y="902"/>
      <point x="475" y="646" type="curve" smooth="yes"/>
      <point x="475" y="350"/>
      <point x="689" y="222"/>
    </contour>
    <contour>
      <point x="875" y="-1" type="curve" smooth="yes"/>
      <point x="529" y="-1"/>
      <point x="217" y="265"/>
      <point x="217" y="642" type="curve" smooth="yes"/>
      <point x="217" y="1004"/>
      <point x="514" y="1281"/>
      <point x="875" y="1281" type="curve" smooth="yes"/>
      <point x="1222" y="1281"/>
      <point x="1534" y="1018"/>
      <point x="1534" y="642" type="curve" smooth="yes"/>
      <point x="1534" y="271"/>
      <point x="1227" y="-1"/>
    </contour>
    <contour>
      <point x="875" y="-122" type="curve" smooth="yes"/>
      <point x="1314" y="-122"/>
      <point x="1672" y="223"/>
      <point x="1672" y="642" type="curve" smooth="yes"/>
      <point x="1672" y="1066"/>
      <point x="1303" y="1403"/>
      <point x="875" y="1403" type="curve" smooth="yes"/>
      <point x="435" y="1403"/>
      <point x="77" y="1060"/>
      <point x="77" y="642" type="curve" smooth="yes"/>
      <point x="77" y="199"/>
      <point x="451" y="-122"/>
    </contour>
  </outline>
</glyph>
<glyph name="ordfeminine" format="1">
  <advance width="798"/>
  <unicode hex="00AA"/>
  <outline>
    <contour>
      <point x="311" y="656" type="curve" smooth="yes"/>
      <point x="407" y="656"/>
      <point x="496" y="702"/>
      <point x="556" y="762" type="curve"/>
      <point x="558" y="762" type="line"/>
      <point x="558" y="670" type="line"/>
      <point x="714" y="670" type="line"/>
      <point x="714" y="1141" type="line" smooth="yes"/>
      <point x="714" y="1328"/>
      <point x="646" y="1430"/>
      <point x="409" y="1430" type="curve" smooth="yes"/>
      <point x="289" y="1430"/>
      <point x="172" y="1405"/>
      <point x="101" y="1369" type="curve"/>
      <point x="136" y="1239" type="line"/>
      <point x="211" y="1274"/>
      <point x="298" y="1291"/>
      <point x="400" y="1291" type="curve" smooth="yes"/>
      <point x="525" y="1291"/>
      <point x="558" y="1255"/>
      <point x="558" y="1137" type="curve"/>
      <point x="264" y="1137"/>
      <point x="76" y="1071"/>
      <point x="76" y="879" type="curve" smooth="yes"/>
      <point x="76" y="719"/>
      <point x="192" y="656"/>
    </contour>
    <contour>
      <point x="344" y="786" type="curve" smooth="yes"/>
      <point x="262" y="786"/>
      <point x="239" y="837"/>
      <point x="239" y="891" type="curve" smooth="yes"/>
      <point x="239" y="975"/>
      <point x="331" y="1019"/>
      <point x="558" y="1019" type="curve"/>
      <point x="558" y="883" type="line"/>
      <point x="538" y="845"/>
      <point x="442" y="786"/>
    </contour>
  </outline>
</glyph>
<glyph name="guillemotleft" format="1">
  <advance width="996"/>
  <unicode hex="00AB"/>
  <outline>
    <contour>
      <point x="494" y="134" type="line"/>
      <point x="494" y="409" type="line"/>
      <point x="419" y="470"/>
      <point x="297" y="584"/>
      <point x="297" y="584" type="curve"/>
      <point x="494" y="771" type="line"/>
      <point x="494" y="1048" type="line"/>
      <point x="33" y="636" type="line"/>
      <point x="33" y="533" type="line"/>
    </contour>
    <contour>
      <point x="958" y="134" type="line"/>
      <point x="958" y="409" type="line"/>
      <point x="883" y="470"/>
      <point x="760" y="584"/>
      <point x="760" y="584" type="curve"/>
      <point x="958" y="771" type="line"/>
      <point x="958" y="1048" type="line"/>
      <point x="496" y="636" type="line"/>
      <point x="496" y="533" type="line"/>
    </contour>
  </outline>
</glyph>
<glyph name="logicalnot" format="1">
  <advance width="1364"/>
  <unicode hex="00AC"/>
  <outline>
    <contour>
      <point x="1016" y="99" type="line"/>
      <point x="1274" y="99" type="line"/>
      <point x="1274" y="777" type="line"/>
      <point x="89" y="777" type="line"/>
      <point x="89" y="542" type="line"/>
      <point x="1016" y="542" type="line"/>
    </contour>
  </outline>
</glyph>
<glyph name="uni00AD" format="1">
  <advance width="759"/>
  <unicode hex="00AD"/>
  <outline>
    <contour>
      <point x="90" y="435" type="line"/>
      <point x="669" y="435" type="line"/>
      <point x="669" y="632" type="line"/>
      <point x="90" y="632" type="line"/>
    </contour>
  </outline>
</glyph>
<glyph name="registered" format="1">
  <advance width="1749"/>
  <unicode hex="00AE"/>
  <outline>
    <contour>
      <point x="565" y="239" type="line"/>
      <point x="702" y="239" type="line"/>
      <point x="702" y="600" type="line"/>
      <point x="883" y="600" type="line"/>
      <point x="1123" y="239" type="line"/>
      <point x="1246" y="239" type="line"/>
      <point x="1246" y="280" type="line"/>
      <point x="1018" y="616" type="line"/>
      <point x="1135" y="636"/>
      <point x="1209" y="710"/>
      <point x="1209" y="843" type="curve" smooth="yes"/>
      <point x="1209" y="1048"/>
      <point x="1016" y="1083"/>
      <point x="844" y="1083" type="curve" smooth="yes"/>
      <point x="565" y="1083" type="line"/>
    </contour>
    <contour>
      <point x="702" y="702" type="line"/>
      <point x="702" y="980" type="line"/>
      <point x="848" y="980" type="line" smooth="yes"/>
      <point x="1048" y="980"/>
      <point x="1082" y="924"/>
      <point x="1082" y="835" type="curve" smooth="yes"/>
      <point x="1082" y="753"/>
      <point x="1023" y="702"/>
      <point x="908" y="702" type="curve" smooth="yes"/>
    </contour>
    <contour>
      <point x="875" y="-1" type="curve" smooth="yes"/>
      <point x="529" y="-1"/>
      <point x="217" y="265"/>
      <point x="217" y="642" type="curve" smooth="yes"/>
      <point x="217" y="1004"/>
      <point x="514" y="1281"/>
      <point x="875" y="1281" type="curve" smooth="yes"/>
      <point x="1222" y="1281"/>
      <point x="1534" y="1018"/>
      <point x="1534" y="642" type="curve" smooth="yes"/>
      <point x="1534" y="271"/>
      <point x="1227" y="-1"/>
    </contour>
    <contour>
      <point x="875" y="-122" type="curve" smooth="yes"/>
      <point x="1314" y="-122"/>
      <point x="1672" y="223"/>
      <point x="1672" y="642" type="curve" smooth="yes"/>
      <point x="1672" y="1066"/>
      <point x="1303" y="1403"/>
      <point x="875" y="1403" type="curve" smooth="yes"/>
      <point x="435" y="1403"/>
      <point x="77" y="1060"/>
      <point x="77" y="642" type="curve" smooth="yes"/>
      <point x="77" y="199"/>
      <point x="451" y="-122"/>
    </contour>
  </outline>
</glyph>
<glyph name="degree" format="1">
  <advance width="818"/>
  <unicode hex="00B0"/>
  <outline>
    <contour>
      <point x="409" y="866" type="curve" smooth="yes"/>
      <point x="294" y="866"/>
      <point x="200" y="954"/>
      <point x="200" y="1069" type="curve" smooth="yes"/>
      <point x="200" y="1179"/>
      <point x="294" y="1273"/>
      <point x="409" y="1273" type="curve" smooth="yes"/>
      <point x="524" y="1273"/>
      <point x="617" y="1179"/>
      <point x="617" y="1069" type="curve" smooth="yes"/>
      <point x="617" y="957"/>
      <point x="525" y="866"/>
    </contour>
    <contour>
      <point x="409" y="760" type="curve" smooth="yes"/>
      <point x="590" y="760"/>
      <point x="736" y="895"/>
      <point x="736" y="1069" type="curve" smooth="yes"/>
      <point x="736" y="1241"/>
      <point x="590" y="1378"/>
      <point x="409" y="1378" type="curve" smooth="yes"/>
      <point x="230" y="1378"/>
      <point x="81" y="1243"/>
      <point x="81" y="1069" type="curve" smooth="yes"/>
      <point x="81" y="897"/>
      <point x="228" y="760"/>
    </contour>
  </outline>
</glyph>
<glyph name="plusminus" format="1">
  <advance width="1157"/>
  <unicode hex="00B1"/>
  <outline>
    <contour>
      <point x="486" y="280" type="line"/>
      <point x="670" y="280" type="line"/>
      <point x="670" y="614" type="line"/>
      <point x="1065" y="614" type="line"/>
      <point x="1065" y="790" type="line"/>
      <point x="670" y="790" type="line"/>
      <point x="670" y="1125" type="line"/>
      <point x="486" y="1125" type="line"/>
      <point x="486" y="790" type="line"/>
      <point x="91" y="790" type="line"/>
      <point x="91" y="614" type="line"/>
      <point x="486" y="614" type="line"/>
    </contour>
    <contour>
      <point x="88" y="0" type="line"/>
      <point x="1064" y="0" type="line"/>
      <point x="1064" y="175" type="line"/>
      <point x="88" y="175" type="line"/>
    </contour>
  </outline>
</glyph>
<glyph name="acute" format="1">
  <advance width="514"/>
  <unicode hex="00B4"/>
  <outline>
    <contour>
      <point x="35" y="1138" type="line"/>
      <point x="190" y="1138" type="line"/>
      <point x="483" y="1482" type="line"/>
      <point x="216" y="1482" type="line"/>
    </contour>
  </outline>
</glyph>
<glyph name="paragraph" format="1">
  <advance width="1154"/>
  <unicode hex="00B6"/>
  <outline>
    <contour>
      <point x="586" y="-264" type="line"/>
      <point x="751" y="-264" type="line"/>
      <point x="751" y="1355" type="line"/>
      <point x="904" y="1355" type="line"/>
      <point x="904" y="-264" type="line"/>
      <point x="1070" y="-264" type="line"/>
      <point x="1070" y="1481" type="line"/>
      <point x="615" y="1481" type="line" smooth="yes"/>
      <point x="246" y="1481"/>
      <point x="72" y="1355"/>
      <point x="72" y="1116" type="curve" smooth="yes"/>
      <point x="72" y="870"/>
      <point x="290" y="747"/>
      <point x="586" y="747" type="curve"/>
    </contour>
  </outline>
</glyph>
<glyph name="periodcentered" format="1">
  <advance width="499"/>
  <unicode hex="00B7"/>
  <outline>
    <contour>
      <point x="251" y="412" type="curve" smooth="yes"/>
      <point x="344" y="412"/>
      <point x="417" y="485"/>
      <point x="417" y="578" type="curve" smooth="yes"/>
      <point x="417" y="672"/>
      <point x="344" y="746"/>
      <point x="251" y="746" type="curve" smooth="yes"/>
      <point x="157" y="746"/>
      <point x="83" y="672"/>
      <point x="83" y="578" type="curve" smooth="yes"/>
      <point x="83" y="485"/>
      <point x="157" y="412"/>
    </contour>
  </outline>
</glyph>
<glyph name="cedilla" format="1">
  <advance width="609"/>
  <unicode hex="00B8"/>
  <outline>
    <contour>
      <point x="253" y="-503" type="curve" smooth="yes"/>
      <point x="448" y="-503"/>
      <point x="544" y="-398"/>
      <point x="544" y="-278" type="curve" smooth="yes"/>
      <point x="544" y="-184"/>
      <point x="481" y="-112"/>
      <point x="320" y="-109" type="curve"/>
      <point x="360" y="2" type="line"/>
      <point x="256" y="2" type="line"/>
      <point x="191" y="-183" type="line"/>
      <point x="208" y="-186"/>
      <point x="225" y="-189"/>
      <point x="240" y="-194" type="curve"/>
      <point x="253" y="-191"/>
      <point x="266" y="-189"/>
      <point x="279" y="-189" type="curve" smooth="yes"/>
      <point x="344" y="-189"/>
      <point x="392" y="-228"/>
      <point x="392" y="-280" type="curve" smooth="yes"/>
      <point x="392" y="-336"/>
      <point x="342" y="-384"/>
      <point x="255" y="-384" type="curve" smooth="yes"/>
      <point x="215" y="-384"/>
      <point x="173" y="-362"/>
      <point x="156" y="-340" type="curve"/>
      <point x="156" y="-340"/>
      <point x="93" y="-340"/>
      <point x="93" y="-340" type="curve"/>
      <point x="62" y="-460" type="line"/>
      <point x="112" y="-484"/>
      <point x="203" y="-503"/>
    </contour>
  </outline>
</glyph>
<glyph name="ordmasculine" format="1">
  <advance width="902"/>
  <unicode hex="00BA"/>
  <outline>
    <contour>
      <point x="453" y="794" type="curve" smooth="yes"/>
      <point x="336" y="794"/>
      <point x="282" y="887"/>
      <point x="282" y="1039" type="curve" smooth="yes"/>
      <point x="282" y="1221"/>
      <point x="362" y="1280"/>
      <point x="452" y="1280" type="curve" smooth="yes"/>
      <point x="565" y="1280"/>
      <point x="623" y="1194"/>
      <point x="623" y="1039" type="curve" smooth="yes"/>
      <point x="623" y="903"/>
      <point x="567" y="794"/>
    </contour>
    <contour>
      <point x="452" y="646" type="curve" smooth="yes"/>
      <point x="690" y="646"/>
      <point x="821" y="785"/>
      <point x="821" y="1039" type="curve" smooth="yes"/>
      <point x="821" y="1298"/>
      <point x="690" y="1430"/>
      <point x="452" y="1430" type="curve" smooth="yes"/>
      <point x="215" y="1430"/>
      <point x="81" y="1298"/>
      <point x="81" y="1039" type="curve" smooth="yes"/>
      <point x="81" y="785"/>
      <point x="213" y="646"/>
    </contour>
  </outline>
</glyph>
<glyph name="guillemotright" format="1">
  <advance width="996"/>
  <unicode hex="00BB"/>
  <outline>
    <contour>
      <point x="40" y="134" type="line"/>
      <point x="501" y="546" type="line"/>
      <point x="501" y="648" type="line"/>
      <point x="40" y="1048" type="line"/>
      <point x="40" y="772" type="line"/>
      <point x="115" y="711"/>
      <point x="237" y="597"/>
      <point x="237" y="597" type="curve"/>
      <point x="40" y="410" type="line"/>
    </contour>
    <contour>
      <point x="503" y="134" type="line"/>
      <point x="965" y="546" type="line"/>
      <point x="965" y="648" type="line"/>
      <point x="503" y="1048" type="line"/>
      <point x="503" y="772" type="line"/>
      <point x="578" y="711"/>
      <point x="700" y="597"/>
      <point x="700" y="597" type="curve"/>
      <point x="503" y="410" type="line"/>
    </contour>
  </outline>
</glyph>
<glyph name="onequarter" format="1">
  <advance width="1421"/>
  <unicode hex="00BC"/>
  <outline>
    <contour>
      <point x="1195" y="0" type="line"/>
      <point x="1306" y="0" type="line"/>
      <point x="1306" y="120" type="line"/>
      <point x="1392" y="120" type="line"/>
      <point x="1392" y="222" type="line"/>
      <point x="1306" y="222" type="line"/>
      <point x="1306" y="819" type="line"/>
      <point x="1133" y="819" type="line"/>
      <point x="786" y="222" type="line"/>
      <point x="786" y="120" type="line"/>
      <point x="1195" y="120" type="line"/>
    </contour>
    <contour>
      <point x="279" y="0" type="line"/>
      <point x="406" y="0" type="line"/>
      <point x="1237" y="1430" type="line"/>
      <point x="1108" y="1430" type="line"/>
    </contour>
    <contour>
      <point x="905" y="222" type="line"/>
      <point x="1195" y="727" type="line"/>
      <point x="1195" y="222" type="line"/>
    </contour>
    <component base="one.superior" xOffset="-88"/>
  </outline>
</glyph>
<glyph name="onehalf" format="1">
  <advance width="1525"/>
  <unicode hex="00BD"/>
  <outline>
    <contour>
      <point x="257" y="0" type="line"/>
      <point x="384" y="0" type="line"/>
      <point x="1215" y="1430" type="line"/>
      <point x="1088" y="1430" type="line"/>
    </contour>
    <component base="two.superior" xOffset="830" yOffset="-553"/>
    <component base="one.superior" xOffset="-79"/>
  </outline>
</glyph>
<glyph name="threequarters" format="1">
  <advance width="1471"/>
  <unicode hex="00BE"/>
  <outline>
    <contour>
      <point x="1247" y="0" type="line"/>
      <point x="1357" y="0" type="line"/>
      <point x="1357" y="120" type="line"/>
      <point x="1444" y="120" type="line"/>
      <point x="1444" y="222" type="line"/>
      <point x="1357" y="222" type="line"/>
      <point x="1357" y="819" type="line"/>
      <point x="1185" y="819" type="line"/>
      <point x="839" y="222" type="line"/>
      <point x="839" y="120" type="line"/>
      <point x="1247" y="120" type="line"/>
    </contour>
    <contour>
      <point x="331" y="0" type="line"/>
      <point x="457" y="0" type="line"/>
      <point x="1290" y="1430" type="line"/>
      <point x="1162" y="1430" type="line"/>
    </contour>
    <contour>
      <point x="958" y="222" type="line"/>
      <point x="1247" y="727" type="line"/>
      <point x="1247" y="222" type="line"/>
    </contour>
    <component base="three.superior" xOffset="-7"/>
  </outline>
</glyph>
<glyph name="AE" format="1">
  <advance width="1929"/>
  <unicode hex="00C6"/>
  <outline>
    <contour>
      <point x="64" y="0" type="line"/>
      <point x="318" y="0" type="line"/>
      <point x="505" y="333" type="line"/>
      <point x="1026" y="333" type="line"/>
      <point x="1026" y="0" type="line"/>
      <point x="1853" y="0" type="line"/>
      <point x="1853" y="183" type="line"/>
      <point x="1269" y="183" type="line"/>
      <point x="1269" y="662" type="line"/>
      <point x="1774" y="662" type="line"/>
      <point x="1774" y="844" type="line"/>
      <point x="1269" y="844" type="line"/>
      <point x="1269" y="1297" type="line"/>
      <point x="1854" y="1297" type="line"/>
      <point x="1854" y="1480" type="line"/>
      <point x="875" y="1480" type="line"/>
    </contour>
    <contour>
      <point x="594" y="516" type="line"/>
      <point x="1008" y="1297" type="line"/>
      <point x="1026" y="1297" type="line"/>
      <point x="1026" y="516" type="line"/>
    </contour>
  </outline>
</glyph>
<glyph name="Eth" format="1">
  <advance width="1212"/>
  <unicode hex="00D0"/>
  <outline>
    <contour>
      <point x="0" y="693" type="line"/>
      <point x="663" y="693" type="line"/>
      <point x="663" y="850" type="line"/>
      <point x="0" y="850" type="line"/>
    </contour>
    <component base="D"/>
  </outline>
</glyph>
<glyph name="multiply" format="1">
  <advance width="1039"/>
  <unicode hex="00D7"/>
  <outline>
    <contour>
      <point x="176" y="40" type="line"/>
      <point x="519" y="386" type="line"/>
      <point x="861" y="40" type="line"/>
      <point x="970" y="147" type="line"/>
      <point x="623" y="488" type="line"/>
      <point x="970" y="832" type="line"/>
      <point x="861" y="939" type="line"/>
      <point x="519" y="594" type="line"/>
      <point x="176" y="939" type="line"/>
      <point x="70" y="832" type="line"/>
      <point x="416" y="488" type="line"/>
      <point x="70" y="147" type="line"/>
    </contour>
  </outline>
</glyph>
<glyph name="Oslash" format="1">
  <advance width="1550"/>
  <unicode hex="00D8"/>
  <outline>
    <contour>
      <point x="777" y="-23" type="curve" smooth="yes"/>
      <point x="1238" y="-23"/>
      <point x="1453" y="273"/>
      <point x="1453" y="740" type="curve" smooth="yes"/>
      <point x="1453" y="974"/>
      <point x="1401" y="1164"/>
      <point x="1290" y="1295" type="curve"/>
      <point x="1434" y="1481" type="line"/>
      <point x="1239" y="1481" type="line"/>
      <point x="1174" y="1399" type="line"/>
      <point x="1072" y="1467"/>
      <point x="939" y="1503"/>
      <point x="777" y="1503" type="curve" smooth="yes"/>
      <point x="317" y="1503"/>
      <point x="99" y="1211"/>
      <point x="99" y="740" type="curve" smooth="yes"/>
      <point x="99" y="514"/>
      <point x="149" y="330"/>
      <point x="254" y="199" type="curve"/>
      <point x="101" y="2" type="line"/>
      <point x="295" y="2" type="line"/>
      <point x="364" y="93" type="line"/>
      <point x="469" y="18"/>
      <point x="605" y="-23"/>
    </contour>
    <contour>
      <point x="400" y="391" type="line"/>
      <point x="357" y="491"/>
      <point x="341" y="613"/>
      <point x="341" y="740" type="curve" smooth="yes"/>
      <point x="341" y="1041"/>
      <point x="424" y="1322"/>
      <point x="777" y="1322" type="curve" smooth="yes"/>
      <point x="895" y="1322"/>
      <point x="981" y="1287"/>
      <point x="1047" y="1232" type="curve"/>
    </contour>
    <contour>
      <point x="777" y="160" type="curve" smooth="yes"/>
      <point x="650" y="160"/>
      <point x="557" y="196"/>
      <point x="492" y="258" type="curve"/>
      <point x="1142" y="1104" type="line"/>
      <point x="1191" y="1001"/>
      <point x="1210" y="870"/>
      <point x="1210" y="740" type="curve" smooth="yes"/>
      <point x="1210" y="451"/>
      <point x="1122" y="160"/>
    </contour>
  </outline>
</glyph>
<glyph name="Thorn" format="1">
  <advance width="1302"/>
  <unicode hex="00DE"/>
  <outline>
    <contour>
      <point x="193" y="0" type="line"/>
      <point x="437" y="0" type="line"/>
      <point x="437" y="318" type="line"/>
      <point x="613" y="318" type="line" smooth="yes"/>
      <point x="965" y="318"/>
      <point x="1188" y="451"/>
      <point x="1188" y="750" type="curve" smooth="yes"/>
      <point x="1188" y="1091"/>
      <point x="970" y="1215"/>
      <point x="630" y="1215" type="curve" smooth="yes"/>
      <point x="437" y="1215" type="line"/>
      <point x="437" y="1481" type="line"/>
      <point x="193" y="1481" type="line"/>
    </contour>
    <contour>
      <point x="437" y="500" type="line"/>
      <point x="437" y="1032" type="line"/>
      <point x="618" y="1032" type="line" smooth="yes"/>
      <point x="876" y="1032"/>
      <point x="944" y="940"/>
      <point x="944" y="751" type="curve" smooth="yes"/>
      <point x="944" y="539"/>
      <point x="810" y="500"/>
      <point x="609" y="500" type="curve" smooth="yes"/>
    </contour>
  </outline>
</glyph>
<glyph name="germandbls" format="1">
  <advance width="1230"/>
  <unicode hex="00DF"/>
  <outline>
    <contour>
      <point x="116" y="0" type="line"/>
      <point x="360" y="0" type="line"/>
      <point x="360" y="1055" type="line" smooth="yes"/>
      <point x="360" y="1260"/>
      <point x="461" y="1323"/>
      <point x="616" y="1323" type="curve" smooth="yes"/>
      <point x="775" y="1323"/>
      <point x="846" y="1246"/>
      <point x="846" y="1144" type="curve" smooth="yes"/>
      <point x="846" y="1027"/>
      <point x="741" y="947"/>
      <point x="597" y="947" type="curve"/>
      <point x="597" y="793" type="line"/>
      <point x="833" y="793"/>
      <point x="960" y="588"/>
      <point x="960" y="444" type="curve" smooth="yes"/>
      <point x="960" y="302"/>
      <point x="875" y="179"/>
      <point x="654" y="179" type="curve" smooth="yes"/>
      <point x="637" y="179"/>
      <point x="620" y="180"/>
      <point x="601" y="182" type="curve"/>
      <point x="601" y="-2" type="line"/>
      <point x="644" y="-4"/>
      <point x="681" y="-5"/>
      <point x="700" y="-5" type="curve" smooth="yes"/>
      <point x="1039" y="-5"/>
      <point x="1208" y="175"/>
      <point x="1208" y="444" type="curve" smooth="yes"/>
      <point x="1208" y="605"/>
      <point x="1106" y="796"/>
      <point x="862" y="868" type="curve"/>
      <point x="862" y="872" type="line"/>
      <point x="995" y="894"/>
      <point x="1101" y="1012"/>
      <point x="1101" y="1165" type="curve" smooth="yes"/>
      <point x="1101" y="1361"/>
      <point x="931" y="1503"/>
      <point x="621" y="1503" type="curve" smooth="yes"/>
      <point x="283" y="1503"/>
      <point x="116" y="1334"/>
      <point x="116" y="1032" type="curve" smooth="yes"/>
    </contour>
  </outline>
</glyph>
<glyph name="ae" format="1">
  <advance width="1764"/>
  <unicode hex="00E6"/>
  <outline>
    <contour>
      <point x="445" y="-23" type="curve" smooth="yes"/>
      <point x="602" y="-23"/>
      <point x="765" y="25"/>
      <point x="871" y="209" type="curve"/>
      <point x="917" y="100"/>
      <point x="1048" y="-23"/>
      <point x="1268" y="-23" type="curve" smooth="yes"/>
      <point x="1508" y="-23"/>
      <point x="1598" y="40"/>
      <point x="1685" y="97" type="curve"/>
      <point x="1638" y="247" type="line"/>
      <point x="1591" y="247" type="line"/>
      <point x="1556" y="216"/>
      <point x="1461" y="149"/>
      <point x="1315" y="149" type="curve" smooth="yes"/>
      <point x="1108" y="149"/>
      <point x="997" y="260"/>
      <point x="989" y="460" type="curve"/>
      <point x="1695" y="460" type="line"/>
      <point x="1695" y="526" type="line" smooth="yes"/>
      <point x="1695" y="827"/>
      <point x="1545" y="1055"/>
      <point x="1229" y="1055" type="curve" smooth="yes"/>
      <point x="1105" y="1055"/>
      <point x="979" y="1014"/>
      <point x="895" y="919" type="curve"/>
      <point x="808" y="1039"/>
      <point x="670" y="1058"/>
      <point x="495" y="1058" type="curve" smooth="yes"/>
      <point x="369" y="1058"/>
      <point x="199" y="1017"/>
      <point x="132" y="971" type="curve"/>
      <point x="188" y="806" type="line"/>
      <point x="270" y="849"/>
      <point x="418" y="876"/>
      <point x="504" y="876" type="curve" smooth="yes"/>
      <point x="695" y="876"/>
      <point x="743" y="788"/>
      <point x="745" y="648" type="curve"/>
      <point x="745" y="648"/>
      <point x="588" y="643"/>
      <point x="542" y="640" type="curve" smooth="yes"/>
      <point x="263" y="621"/>
      <point x="66" y="533"/>
      <point x="66" y="290" type="curve" smooth="yes"/>
      <point x="66" y="68"/>
      <point x="258" y="-23"/>
    </contour>
    <contour>
      <point x="458" y="154" type="curve" smooth="yes"/>
      <point x="342" y="154"/>
      <point x="295" y="232"/>
      <point x="295" y="307" type="curve" smooth="yes"/>
      <point x="295" y="424"/>
      <point x="405" y="489"/>
      <point x="746" y="501" type="curve"/>
      <point x="746" y="285"/>
      <point x="645" y="154"/>
    </contour>
    <contour>
      <point x="989" y="612" type="line"/>
      <point x="1011" y="747"/>
      <point x="1061" y="887"/>
      <point x="1239" y="887" type="curve" smooth="yes"/>
      <point x="1399" y="887"/>
      <point x="1474" y="749"/>
      <point x="1476" y="612" type="curve"/>
    </contour>
  </outline>
</glyph>
<glyph name="eth" format="1">
  <advance width="961"/>
  <unicode hex="00F0"/>
  <outline>
    <contour>
      <point x="599" y="-23" type="curve" smooth="yes"/>
      <point x="913" y="-23"/>
      <point x="1115" y="175"/>
      <point x="1115" y="525" type="curve" smooth="yes"/>
      <point x="1115" y="824"/>
      <point x="1011" y="1111"/>
      <point x="810" y="1291" type="curve"/>
      <point x="939" y="1421" type="line"/>
      <point x="847" y="1504" type="line"/>
      <point x="709" y="1367" type="line"/>
      <point x="595" y="1438"/>
      <point x="458" y="1480"/>
      <point x="301" y="1482" type="curve" smooth="yes"/>
      <point x="265" y="1312" type="line"/>
      <point x="384" y="1302"/>
      <point x="483" y="1271"/>
      <point x="565" y="1222" type="curve"/>
      <point x="424" y="1082" type="line"/>
      <point x="516" y="998" type="line"/>
      <point x="665" y="1146" type="line"/>
      <point x="762" y="1053"/>
      <point x="824" y="924"/>
      <point x="856" y="775" type="curve"/>
      <point x="780" y="869"/>
      <point x="624" y="911"/>
      <point x="535" y="911" type="curve" smooth="yes"/>
      <point x="296" y="911"/>
      <point x="82" y="753"/>
      <point x="82" y="466" type="curve" smooth="yes"/>
      <point x="82" y="160"/>
      <point x="287" y="-23"/>
    </contour>
    <contour>
      <point x="609" y="159" type="curve" smooth="yes"/>
      <point x="396" y="159"/>
      <point x="316" y="292"/>
      <point x="316" y="463" type="curve" smooth="yes"/>
      <point x="316" y="613"/>
      <point x="432" y="726"/>
      <point x="590" y="726" type="curve" smooth="yes"/>
      <point x="810" y="725"/>
      <point x="876" y="552"/>
      <point x="876" y="432" type="curve" smooth="yes"/>
      <point x="876" y="286"/>
      <point x="771" y="159"/>
    </contour>
  </outline>
</glyph>
<glyph name="divide" format="1">
  <advance width="1367"/>
  <unicode hex="00F7"/>
  <outline>
    <contour>
      <point x="682" y="0" type="curve" smooth="yes"/>
      <point x="793" y="0"/>
      <point x="883" y="90"/>
      <point x="883" y="201" type="curve" smooth="yes"/>
      <point x="883" y="312"/>
      <point x="793" y="403"/>
      <point x="682" y="403" type="curve" smooth="yes"/>
      <point x="571" y="403"/>
      <point x="481" y="312"/>
      <point x="481" y="201" type="curve" smooth="yes"/>
      <point x="481" y="90"/>
      <point x="571" y="0"/>
    </contour>
    <contour>
      <point x="88" y="495" type="line"/>
      <point x="1279" y="495" type="line"/>
      <point x="1279" y="729" type="line"/>
      <point x="88" y="729" type="line"/>
    </contour>
    <contour>
      <point x="682" y="825" type="curve" smooth="yes"/>
      <point x="793" y="825"/>
      <point x="883" y="915"/>
      <point x="883" y="1026" type="curve" smooth="yes"/>
      <point x="883" y="1137"/>
      <point x="793" y="1228"/>
      <point x="682" y="1228" type="curve" smooth="yes"/>
      <point x="571" y="1228"/>
      <point x="481" y="1137"/>
      <point x="481" y="1026" type="curve" smooth="yes"/>
      <point x="481" y="915"/>
      <point x="571" y="825"/>
    </contour>
  </outline>
</glyph>
<glyph name="oslash" format="1">
  <advance width="1159"/>
  <unicode hex="00F8"/>
  <outline>
    <contour>
      <point x="579" y="-23" type="curve" smooth="yes"/>
      <point x="866" y="-23"/>
      <point x="1093" y="143"/>
      <point x="1093" y="519" type="curve" smooth="yes"/>
      <point x="1093" y="687"/>
      <point x="1048" y="812"/>
      <point x="973" y="899" type="curve"/>
      <point x="1103" y="1064" type="line"/>
      <point x="961" y="1064" type="line"/>
      <point x="890" y="973" type="line"/>
      <point x="803" y="1031"/>
      <point x="696" y="1059"/>
      <point x="579" y="1059" type="curve" smooth="yes"/>
      <point x="304" y="1059"/>
      <point x="69" y="899"/>
      <point x="69" y="520" type="curve" smooth="yes"/>
      <point x="69" y="339"/>
      <point x="121" y="206"/>
      <point x="207" y="117" type="curve"/>
      <point x="75" y="-51" type="line"/>
      <point x="216" y="-51" type="line"/>
      <point x="295" y="48" type="line"/>
      <point x="377" y="0"/>
      <point x="474" y="-23"/>
    </contour>
    <contour>
      <point x="349" y="294" type="line"/>
      <point x="320" y="350"/>
      <point x="305" y="425"/>
      <point x="305" y="518" type="curve" smooth="yes"/>
      <point x="305" y="771"/>
      <point x="421" y="876"/>
      <point x="579" y="876" type="curve" smooth="yes"/>
      <point x="654" y="876"/>
      <point x="717" y="856"/>
      <point x="763" y="814" type="curve"/>
    </contour>
    <contour>
      <point x="582" y="160" type="curve" smooth="yes"/>
      <point x="519" y="160"/>
      <point x="465" y="176"/>
      <point x="421" y="208" type="curve"/>
      <point x="827" y="716" type="line"/>
      <point x="847" y="663"/>
      <point x="857" y="598"/>
      <point x="857" y="516" type="curve" smooth="yes"/>
      <point x="857" y="283"/>
      <point x="768" y="160"/>
    </contour>
  </outline>
</glyph>
<glyph name="thorn" format="1">
  <advance width="1142"/>
  <unicode hex="00FE"/>
  <outline>
    <contour>
      <point x="115" y="-390" type="line"/>
      <point x="357" y="-390" type="line"/>
      <point x="357" y="72" type="line"/>
      <point x="401" y="26"/>
      <point x="519" y="-26"/>
      <point x="628" y="-26" type="curve" smooth="yes"/>
      <point x="897" y="-26"/>
      <point x="1067" y="162"/>
      <point x="1067" y="515" type="curve" smooth="yes"/>
      <point x="1067" y="833"/>
      <point x="927" y="1055"/>
      <point x="650" y="1055" type="curve" smooth="yes"/>
      <point x="530" y="1055"/>
      <point x="399" y="989"/>
      <point x="357" y="925" type="curve"/>
      <point x="357" y="1430" type="line"/>
      <point x="115" y="1430" type="line"/>
    </contour>
    <contour>
      <point x="588" y="156" type="curve" smooth="yes"/>
      <point x="532" y="156"/>
      <point x="436" y="168"/>
      <point x="357" y="217" type="curve"/>
      <point x="357" y="817" type="line"/>
      <point x="412" y="865"/>
      <point x="523" y="874"/>
      <point x="567" y="874" type="curve" smooth="yes"/>
      <point x="738" y="874"/>
      <point x="824" y="727"/>
      <point x="824" y="515" type="curve" smooth="yes"/>
      <point x="824" y="331"/>
      <point x="767" y="156"/>
    </contour>
  </outline>
</glyph>
<glyph name="dcroat" format="1">
  <advance width="1147"/>
  <unicode hex="0111"/>
  <outline>
    <contour>
      <point x="497" y="-23" type="curve"/>
      <point x="617" y="-23"/>
      <point x="748" y="42"/>
      <point x="791" y="105" type="curve"/>
      <point x="791" y="0" type="line"/>
      <point x="1034" y="0" type="line"/>
      <point x="1034" y="1430" type="line"/>
      <point x="791" y="1430" type="line"/>
      <point x="791" y="961" type="line"/>
      <point x="746" y="1007"/>
      <point x="630" y="1059"/>
      <point x="520" y="1059" type="curve" smooth="yes"/>
      <point x="251" y="1059"/>
      <point x="80" y="870"/>
      <point x="80" y="516" type="curve" smooth="yes"/>
      <point x="80" y="198"/>
      <point x="220" y="-23"/>
    </contour>
    <contour>
      <point x="581" y="159" type="curve" smooth="yes"/>
      <point x="410" y="159"/>
      <point x="323" y="307"/>
      <point x="323" y="518" type="curve" smooth="yes"/>
      <point x="323" y="702"/>
      <point x="382" y="876"/>
      <point x="560" y="876" type="curve" smooth="yes"/>
      <point x="616" y="876"/>
      <point x="711" y="865"/>
      <point x="791" y="816" type="curve"/>
      <point x="791" y="216" type="line"/>
      <point x="735" y="169"/>
      <point x="624" y="159"/>
    </contour>
  </outline>
</glyph>
<glyph name="dotlessi" format="1">
  <advance width="494"/>
  <unicode hex="0131"/>
  <outline>
    <contour>
      <point x="120" y="0" type="line"/>
      <point x="363" y="0" type="line"/>
      <point x="363" y="1032" type="line"/>
      <point x="120" y="1032" type="line"/>
    </contour>
  </outline>
</glyph>
<glyph name="kgreenlandic" format="1">
  <advance width="1092"/>
  <unicode hex="0138"/>
  <outline>
    <contour>
      <point x="115" y="0" type="line"/>
      <point x="357" y="0" type="line"/>
      <point x="357" y="375" type="line"/>
      <point x="484" y="484" type="line"/>
      <point x="858" y="0" type="line"/>
      <point x="1071" y="0" type="line"/>
      <point x="1071" y="60" type="line"/>
      <point x="662" y="601" type="line"/>
      <point x="1062" y="988" type="line"/>
      <point x="1062" y="1032" type="line"/>
      <point x="817" y="1032" type="line"/>
      <point x="358" y="597" type="line"/>
      <point x="357" y="597" type="line"/>
      <point x="357" y="1423" type="line"/>
      <point x="115" y="1423" type="line"/>
    </contour>
  </outline>
</glyph>
<glyph name="Lslash" format="1">
  <advance width="1147"/>
  <unicode hex="0141"/>
  <outline>
    <contour>
      <point x="203" y="0" type="line"/>
      <point x="1109" y="0" type="line"/>
      <point x="1109" y="183" type="line"/>
      <point x="446" y="183" type="line"/>
      <point x="446" y="668" type="line"/>
      <point x="713" y="862" type="line"/>
      <point x="713" y="1035" type="line"/>
      <point x="446" y="842" type="line"/>
      <point x="446" y="1481" type="line"/>
      <point x="203" y="1481" type="line"/>
      <point x="203" y="667" type="line"/>
      <point x="64" y="566" type="line"/>
      <point x="64" y="392" type="line"/>
      <point x="203" y="493" type="line"/>
    </contour>
  </outline>
</glyph>
<glyph name="lslash" format="1">
  <advance width="586"/>
  <unicode hex="0142"/>
  <outline>
    <contour>
      <point x="471" y="-6" type="curve" smooth="yes"/>
      <point x="553" y="-6" type="line"/>
      <point x="553" y="175" type="line"/>
      <point x="418" y="175"/>
      <point x="357" y="174"/>
      <point x="357" y="302" type="curve" smooth="yes"/>
      <point x="357" y="780" type="line"/>
      <point x="517" y="887" type="line"/>
      <point x="517" y="1032" type="line"/>
      <point x="357" y="923" type="line"/>
      <point x="356" y="1430" type="line"/>
      <point x="115" y="1430" type="line"/>
      <point x="115" y="760" type="line"/>
      <point x="0" y="681" type="line"/>
      <point x="0" y="536" type="line"/>
      <point x="115" y="615" type="line"/>
      <point x="115" y="348" type="line" smooth="yes"/>
      <point x="115" y="196"/>
      <point x="79" y="-6"/>
    </contour>
  </outline>
</glyph>
<glyph name="OE" format="1">
  <advance width="1987"/>
  <unicode hex="0152"/>
  <outline>
    <contour>
      <point x="696" y="0" type="curve" smooth="yes"/>
      <point x="1807" y="0" type="line"/>
      <point x="1807" y="181" type="line"/>
      <point x="1194" y="181" type="line"/>
      <point x="1194" y="693" type="line"/>
      <point x="1727" y="693" type="line"/>
      <point x="1727" y="876" type="line"/>
      <point x="1194" y="876" type="line"/>
      <point x="1194" y="1297" type="line"/>
      <point x="1807" y="1297" type="line"/>
      <point x="1807" y="1481" type="line"/>
      <point x="669" y="1481" type="line" smooth="yes"/>
      <point x="251" y="1481"/>
      <point x="62" y="1153"/>
      <point x="62" y="753" type="curve" smooth="yes"/>
      <point x="62" y="376"/>
      <point x="186" y="0"/>
    </contour>
    <contour>
      <point x="692" y="181" type="line" smooth="yes"/>
      <point x="387" y="181"/>
      <point x="303" y="435"/>
      <point x="303" y="751" type="curve" smooth="yes"/>
      <point x="303" y="1076"/>
      <point x="403" y="1297"/>
      <point x="696" y="1297" type="curve" smooth="yes"/>
      <point x="950" y="1297" type="line"/>
      <point x="950" y="181" type="line"/>
    </contour>
  </outline>
</glyph>
<glyph name="oe" format="1">
  <advance width="1860"/>
  <unicode hex="0153"/>
  <outline>
    <contour>
      <point x="557" y="-27" type="curve" smooth="yes"/>
      <point x="750" y="-27"/>
      <point x="881" y="62"/>
      <point x="956" y="171" type="curve"/>
      <point x="1028" y="60"/>
      <point x="1204" y="-23"/>
      <point x="1378" y="-23" type="curve" smooth="yes"/>
      <point x="1598" y="-23"/>
      <point x="1702" y="42"/>
      <point x="1783" y="98" type="curve"/>
      <point x="1736" y="244" type="line"/>
      <point x="1688" y="244" type="line"/>
      <point x="1656" y="214"/>
      <point x="1562" y="149"/>
      <point x="1404" y="149" type="curve" smooth="yes"/>
      <point x="1178" y="149"/>
      <point x="1074" y="293"/>
      <point x="1072" y="461" type="curve" smooth="yes"/>
      <point x="1795" y="461" type="line"/>
      <point x="1795" y="527" type="line" smooth="yes"/>
      <point x="1795" y="833"/>
      <point x="1637" y="1054"/>
      <point x="1325" y="1054" type="curve" smooth="yes"/>
      <point x="1144" y="1054"/>
      <point x="1016" y="942"/>
      <point x="951" y="852" type="curve"/>
      <point x="894" y="967"/>
      <point x="753" y="1059"/>
      <point x="559" y="1059" type="curve" smooth="yes"/>
      <point x="396" y="1059"/>
      <point x="48" y="969"/>
      <point x="48" y="516" type="curve" smooth="yes"/>
      <point x="48" y="68"/>
      <point x="389" y="-27"/>
    </contour>
    <contour>
      <point x="559" y="149" type="curve" smooth="yes"/>
      <point x="424" y="149"/>
      <point x="276" y="230"/>
      <point x="276" y="515" type="curve" smooth="yes"/>
      <point x="276" y="815"/>
      <point x="449" y="885"/>
      <point x="553" y="885" type="curve" smooth="yes"/>
      <point x="719" y="885"/>
      <point x="837" y="809"/>
      <point x="837" y="513" type="curve" smooth="yes"/>
      <point x="837" y="241"/>
      <point x="697" y="149"/>
    </contour>
    <contour>
      <point x="1076" y="613" type="line"/>
      <point x="1089" y="728"/>
      <point x="1150" y="887"/>
      <point x="1342" y="887" type="curve" smooth="yes"/>
      <point x="1510" y="887"/>
      <point x="1572" y="743"/>
      <point x="1577" y="613" type="curve"/>
    </contour>
  </outline>
</glyph>
<glyph name="florin" format="1">
  <advance width="1170"/>
  <unicode hex="0192"/>
  <outline>
    <contour>
      <point x="241" y="-318" type="curve" smooth="yes"/>
      <point x="476" y="-318"/>
      <point x="581" y="-195"/>
      <point x="639" y="185" type="curve"/>
      <point x="668" y="371"/>
      <point x="695" y="535"/>
      <point x="721" y="697" type="curve"/>
      <point x="979" y="697" type="line"/>
      <point x="1005" y="833" type="line"/>
      <point x="741" y="833" type="line"/>
      <point x="749" y="878"/>
      <point x="756" y="928"/>
      <point x="764" y="976" type="curve" smooth="yes"/>
      <point x="798" y="1195"/>
      <point x="826" y="1285"/>
      <point x="943" y="1285" type="curve" smooth="yes"/>
      <point x="979" y="1285"/>
      <point x="1010" y="1274"/>
      <point x="1040" y="1259" type="curve"/>
      <point x="1080" y="1458" type="line"/>
      <point x="1044" y="1472"/>
      <point x="990" y="1482"/>
      <point x="928" y="1482" type="curve" smooth="yes"/>
      <point x="714" y="1482"/>
      <point x="564" y="1341"/>
      <point x="524" y="1079" type="curve" smooth="yes"/>
      <point x="511" y="993"/>
      <point x="497" y="909"/>
      <point x="485" y="833" type="curve"/>
      <point x="275" y="833" type="line"/>
      <point x="250" y="697" type="line"/>
      <point x="464" y="697" type="line"/>
      <point x="435" y="513"/>
      <point x="407" y="332"/>
      <point x="373" y="109" type="curve" smooth="yes"/>
      <point x="347" y="-65"/>
      <point x="298" y="-115"/>
      <point x="216" y="-115" type="curve" smooth="yes"/>
      <point x="182" y="-115"/>
      <point x="147" y="-106"/>
      <point x="116" y="-91" type="curve"/>
      <point x="75" y="-290" type="line"/>
      <point x="114" y="-305"/>
      <point x="174" y="-318"/>
    </contour>
  </outline>
</glyph>
<glyph name="circumflex" format="1">
  <advance width="875"/>
  <unicode hex="02C6"/>
  <outline>
    <contour>
      <point x="68" y="1167" type="line"/>
      <point x="269" y="1167" type="line"/>
      <point x="435" y="1372" type="line"/>
      <point x="609" y="1167" type="line"/>
      <point x="806" y="1167" type="line"/>
      <point x="518" y="1509" type="line"/>
      <point x="355" y="1509" type="line"/>
    </contour>
  </outline>
</glyph>
<glyph name="caron" format="1">
  <advance width="987"/>
  <unicode hex="02C7"/>
  <outline>
    <contour>
      <point x="381" y="1170" type="line"/>
      <point x="605" y="1170" type="line"/>
      <point x="918" y="1509" type="line"/>
      <point x="660" y="1509" type="line"/>
      <point x="494" y="1325" type="line"/>
      <point x="327" y="1509" type="line"/>
      <point x="69" y="1509" type="line"/>
    </contour>
  </outline>
</glyph>
<glyph name="breve" format="1">
  <advance width="859"/>
  <unicode hex="02D8"/>
  <outline>
    <contour>
      <point x="429" y="1147" type="curve" smooth="yes"/>
      <point x="639" y="1147"/>
      <point x="774" y="1260"/>
      <point x="777" y="1474" type="curve"/>
      <point x="594" y="1474" type="line"/>
      <point x="586" y="1376"/>
      <point x="540" y="1311"/>
      <point x="429" y="1311" type="curve" smooth="yes"/>
      <point x="306" y="1311"/>
      <point x="270" y="1380"/>
      <point x="262" y="1474" type="curve"/>
      <point x="82" y="1474" type="line"/>
      <point x="85" y="1260"/>
      <point x="202" y="1147"/>
    </contour>
  </outline>
</glyph>
<glyph name="dotaccent" format="1">
  <advance width="544"/>
  <unicode hex="02D9"/>
  <outline>
    <contour>
      <point x="138" y="141" type="curve" smooth="yes"/>
      <point x="232" y="141"/>
      <point x="305" y="214"/>
      <point x="305" y="308" type="curve" smooth="yes"/>
      <point x="305" y="401"/>
      <point x="232" y="475"/>
      <point x="138" y="475" type="curve" smooth="yes"/>
      <point x="45" y="475"/>
      <point x="-29" y="401"/>
      <point x="-29" y="308" type="curve" smooth="yes"/>
      <point x="-29" y="214"/>
      <point x="45" y="141"/>
    </contour>
  </outline>
</glyph>
<glyph name="ring" format="1">
  <advance width="911"/>
  <unicode hex="02DA"/>
  <outline>
    <contour>
      <point x="464" y="276" type="curve" smooth="yes"/>
      <point x="371" y="276"/>
      <point x="293" y="350"/>
      <point x="293" y="447" type="curve" smooth="yes"/>
      <point x="293" y="540"/>
      <point x="371" y="620"/>
      <point x="464" y="620" type="curve" smooth="yes"/>
      <point x="557" y="620"/>
      <point x="633" y="540"/>
      <point x="633" y="447" type="curve" smooth="yes"/>
      <point x="633" y="352"/>
      <point x="558" y="276"/>
    </contour>
    <contour>
      <point x="464" y="186" type="curve" smooth="yes"/>
      <point x="611" y="186"/>
      <point x="730" y="301"/>
      <point x="730" y="447" type="curve" smooth="yes"/>
      <point x="730" y="592"/>
      <point x="611" y="708"/>
      <point x="464" y="708" type="curve" smooth="yes"/>
      <point x="317" y="708"/>
      <point x="197" y="594"/>
      <point x="197" y="447" type="curve" smooth="yes"/>
      <point x="197" y="301"/>
      <point x="316" y="186"/>
    </contour>
  </outline>
</glyph>
<glyph name="ogonek" format="1">
  <advance width="550"/>
  <unicode hex="02DB"/>
  <outline>
    <contour>
      <point x="293" y="-405" type="curve" smooth="yes"/>
      <point x="355" y="-410"/>
      <point x="422" y="-399"/>
      <point x="486" y="-376" type="curve"/>
      <point x="475" y="-244" type="line"/>
      <point x="452" y="-252"/>
      <point x="412" y="-272"/>
      <point x="356" y="-272" type="curve" smooth="yes"/>
      <point x="279" y="-272"/>
      <point x="235" y="-222"/>
      <point x="238" y="-139" type="curve" smooth="yes"/>
      <point x="243" y="-93"/>
      <point x="266" y="-40"/>
      <point x="302" y="5" type="curve"/>
      <point x="157" y="5" type="line"/>
      <point x="108" y="-52"/>
      <point x="62" y="-131"/>
      <point x="72" y="-233" type="curve" smooth="yes"/>
      <point x="88" y="-333"/>
      <point x="175" y="-405"/>
    </contour>
  </outline>
</glyph>
<glyph name="tilde" format="1">
  <advance width="949"/>
  <unicode hex="02DC"/>
  <outline>
    <contour>
      <point x="664" y="215" type="curve" smooth="yes"/>
      <point x="811" y="215"/>
      <point x="850" y="277"/>
      <point x="850" y="514" type="curve"/>
      <point x="698" y="514" type="line"/>
      <point x="698" y="420"/>
      <point x="680" y="417"/>
      <point x="647" y="417" type="curve" smooth="yes"/>
      <point x="619" y="417"/>
      <point x="385" y="514"/>
      <point x="295" y="514" type="curve" smooth="yes"/>
      <point x="167" y="514"/>
      <point x="97" y="453"/>
      <point x="97" y="215" type="curve"/>
      <point x="97" y="215"/>
      <point x="253" y="215"/>
      <point x="253" y="215" type="curve"/>
      <point x="253" y="283"/>
      <point x="260" y="313"/>
      <point x="306" y="313" type="curve" smooth="yes"/>
      <point x="369" y="313"/>
      <point x="540" y="215"/>
    </contour>
  </outline>
</glyph>
<glyph name="hungarumlaut" format="1">
  <advance width="727"/>
  <unicode hex="02DD"/>
  <outline>
    <contour>
      <point x="-12" y="1138" type="line"/>
      <point x="144" y="1138" type="line"/>
      <point x="408" y="1482" type="line"/>
      <point x="180" y="1482" type="line"/>
    </contour>
    <contour>
      <point x="297" y="1138" type="line"/>
      <point x="453" y="1138" type="line"/>
      <point x="745" y="1482" type="line"/>
      <point x="499" y="1482" type="line"/>
    </contour>
  </outline>
</glyph>
<glyph name="Delta" format="1">
  <advance width="1146"/>
  <unicode hex="0394"/>
  <outline>
    <contour>
      <point x="76" y="0" type="line"/>
      <point x="1070" y="0" type="line"/>
      <point x="1070" y="124" type="line"/>
      <point x="688" y="1372" type="line"/>
      <point x="470" y="1372" type="line"/>
      <point x="76" y="121" type="line"/>
    </contour>
    <contour>
      <point x="266" y="158" type="line"/>
      <point x="266" y="158"/>
      <point x="556" y="1056"/>
      <point x="572" y="1133" type="curve"/>
      <point x="576" y="1133" type="line"/>
      <point x="593" y="1044"/>
      <point x="875" y="158"/>
      <point x="875" y="158" type="curve"/>
    </contour>
  </outline>
</glyph>
<glyph name="Omega" format="1">
  <advance width="1422"/>
  <unicode hex="03A9"/>
  <outline>
    <contour>
      <point x="77" y="0" type="line"/>
      <point x="612" y="0" type="line"/>
      <point x="612" y="199" type="line"/>
      <point x="448" y="337"/>
      <point x="372" y="504"/>
      <point x="372" y="720" type="curve" smooth="yes"/>
      <point x="372" y="976"/>
      <point x="516" y="1141"/>
      <point x="717" y="1141" type="curve" smooth="yes"/>
      <point x="919" y="1141"/>
      <point x="1050" y="957"/>
      <point x="1050" y="728" type="curve" smooth="yes"/>
      <point x="1050" y="496"/>
      <point x="958" y="320"/>
      <point x="809" y="199" type="curve"/>
      <point x="809" y="0" type="line"/>
      <point x="1344" y="0" type="line"/>
      <point x="1344" y="216" type="line"/>
      <point x="1112" y="216" type="line"/>
      <point x="1039" y="217" type="line"/>
      <point x="1224" y="336"/>
      <point x="1337" y="526"/>
      <point x="1337" y="773" type="curve" smooth="yes"/>
      <point x="1337" y="1102"/>
      <point x="1093" y="1369"/>
      <point x="712" y="1369" type="curve" smooth="yes"/>
      <point x="347" y="1369"/>
      <point x="87" y="1122"/>
      <point x="87" y="766" type="curve" smooth="yes"/>
      <point x="87" y="520"/>
      <point x="202" y="313"/>
      <point x="377" y="216" type="curve"/>
      <point x="77" y="216" type="line"/>
    </contour>
  </outline>
</glyph>
<glyph name="pi" format="1">
  <advance width="1209"/>
  <unicode hex="03C0"/>
  <outline>
    <contour>
      <point x="156" y="0" type="curve"/>
      <point x="414" y="0" type="line"/>
      <point x="440" y="73"/>
      <point x="458" y="183"/>
      <point x="464" y="318" type="curve" smooth="yes"/>
      <point x="472" y="476"/>
      <point x="479" y="639"/>
      <point x="481" y="780" type="curve"/>
      <point x="722" y="780" type="line"/>
      <point x="722" y="326" type="line" smooth="yes"/>
      <point x="722" y="141"/>
      <point x="786" y="32"/>
      <point x="919" y="9" type="curve"/>
      <point x="958" y="1"/>
      <point x="995" y="0"/>
      <point x="1031" y="8" type="curve"/>
      <point x="1095" y="153" type="line"/>
      <point x="1071" y="165"/>
      <point x="1049" y="187"/>
      <point x="1031" y="239" type="curve"/>
      <point x="996" y="251"/>
      <point x="978" y="290"/>
      <point x="978" y="359" type="curve" smooth="yes"/>
      <point x="978" y="780" type="line"/>
      <point x="1156" y="780" type="line"/>
      <point x="1161" y="981" type="line"/>
      <point x="328" y="981" type="line" smooth="yes"/>
      <point x="176" y="981"/>
      <point x="77" y="971"/>
      <point x="10" y="923" type="curve"/>
      <point x="19" y="722" type="line"/>
      <point x="81" y="760"/>
      <point x="146" y="780"/>
      <point x="227" y="780" type="curve"/>
      <point x="225" y="642"/>
      <point x="219" y="485"/>
      <point x="211" y="332" type="curve"/>
      <point x="203" y="199"/>
      <point x="186" y="84"/>
    </contour>
  </outline>
</glyph>
<glyph name="endash" format="1">
  <advance width="1453"/>
  <unicode hex="2013"/>
  <outline>
    <contour>
      <point x="88" y="467" type="line"/>
      <point x="1365" y="467" type="line"/>
      <point x="1365" y="713" type="line"/>
      <point x="88" y="713" type="line"/>
    </contour>
  </outline>
</glyph>
<glyph name="emdash" format="1">
  <advance width="2100"/>
  <unicode hex="2014"/>
  <outline>
    <contour>
      <point x="88" y="467" type="line"/>
      <point x="2012" y="467" type="line"/>
      <point x="2012" y="713" type="line"/>
      <point x="88" y="713" type="line"/>
    </contour>
  </outline>
</glyph>
<glyph name="quoteleft" format="1">
  <advance width="392"/>
  <unicode hex="2018"/>
  <outline>
    <contour>
      <point x="206" y="994" type="line"/>
      <point x="359" y="994" type="line"/>
      <point x="260" y="1481" type="line"/>
      <point x="31" y="1481" type="line"/>
    </contour>
  </outline>
</glyph>
<glyph name="quoteright" format="1">
  <advance width="393"/>
  <unicode hex="2019"/>
  <outline>
    <contour>
      <point x="35" y="995" type="line"/>
      <point x="189" y="995" type="line"/>
      <point x="363" y="1481" type="line"/>
      <point x="133" y="1481" type="line"/>
    </contour>
  </outline>
</glyph>
<glyph name="quotesinglbase" format="1">
  <advance width="427"/>
  <unicode hex="201A"/>
  <outline>
    <contour>
      <point x="34" y="-243" type="line"/>
      <point x="218" y="-243" type="line"/>
      <point x="218" y="-243"/>
      <point x="399" y="242"/>
      <point x="400" y="243" type="curve"/>
      <point x="133" y="243" type="line"/>
    </contour>
  </outline>
</glyph>
<glyph name="quotedblleft" format="1">
  <advance width="737"/>
  <unicode hex="201C"/>
  <outline>
    <contour>
      <point x="206" y="994" type="line"/>
      <point x="359" y="994" type="line"/>
      <point x="260" y="1481" type="line"/>
      <point x="31" y="1481" type="line"/>
    </contour>
    <contour>
      <point x="549" y="994" type="line"/>
      <point x="703" y="994" type="line"/>
      <point x="605" y="1481" type="line"/>
      <point x="376" y="1481" type="line"/>
    </contour>
  </outline>
</glyph>
<glyph name="quotedblright" format="1">
  <advance width="737"/>
  <unicode hex="201D"/>
  <outline>
    <contour>
      <point x="35" y="995" type="line"/>
      <point x="189" y="995" type="line"/>
      <point x="363" y="1481" type="line"/>
      <point x="133" y="1481" type="line"/>
    </contour>
    <contour>
      <point x="380" y="995" type="line"/>
      <point x="534" y="995" type="line"/>
      <point x="707" y="1481" type="line"/>
      <point x="478" y="1481" type="line"/>
    </contour>
  </outline>
</glyph>
<glyph name="quotedblbase" format="1">
  <advance width="822"/>
  <unicode hex="201E"/>
  <outline>
    <contour>
      <point x="28" y="-243" type="line"/>
      <point x="190" y="-243" type="line"/>
      <point x="421" y="243" type="line"/>
      <point x="126" y="243" type="line"/>
    </contour>
    <contour>
      <point x="409" y="-243" type="line"/>
      <point x="573" y="-243" type="line"/>
      <point x="802" y="243" type="line"/>
      <point x="508" y="243" type="line"/>
    </contour>
  </outline>
</glyph>
<glyph name="dagger" format="1">
  <advance width="1110"/>
  <unicode hex="2020"/>
  <outline>
    <contour>
      <point x="426" y="-50" type="line"/>
      <point x="683" y="-50" type="line"/>
      <point x="683" y="817" type="line"/>
      <point x="1025" y="817" type="line"/>
      <point x="1025" y="1023" type="line"/>
      <point x="686" y="1023" type="line"/>
      <point x="686" y="1431" type="line"/>
      <point x="430" y="1431" type="line"/>
      <point x="430" y="1025" type="line"/>
      <point x="86" y="1025" type="line"/>
      <point x="86" y="819" type="line"/>
      <point x="426" y="819" type="line"/>
    </contour>
  </outline>
</glyph>
<glyph name="daggerdbl" format="1">
  <advance width="1116"/>
  <unicode hex="2021"/>
  <outline>
    <contour>
      <point x="431" y="-46" type="line"/>
      <point x="687" y="-46" type="line"/>
      <point x="687" y="333" type="line"/>
      <point x="1029" y="333" type="line"/>
      <point x="1029" y="539" type="line"/>
      <point x="684" y="539" type="line"/>
      <point x="684" y="855" type="line"/>
      <point x="1029" y="855" type="line"/>
      <point x="1029" y="1060" type="line"/>
      <point x="690" y="1060" type="line"/>
      <point x="690" y="1431" type="line"/>
      <point x="434" y="1431" type="line"/>
      <point x="434" y="1063" type="line"/>
      <point x="90" y="1063" type="line"/>
      <point x="90" y="858" type="line"/>
      <point x="435" y="858" type="line"/>
      <point x="435" y="542" type="line"/>
      <point x="90" y="542" type="line"/>
      <point x="90" y="335" type="line"/>
      <point x="431" y="335" type="line"/>
    </contour>
  </outline>
</glyph>
<glyph name="bullet" format="1">
  <advance width="1064"/>
  <unicode hex="2022"/>
  <outline>
    <contour>
      <point x="532" y="214" type="curve" smooth="yes"/>
      <point x="788" y="214"/>
      <point x="984" y="406"/>
      <point x="984" y="653" type="curve" smooth="yes"/>
      <point x="984" y="897"/>
      <point x="790" y="1092"/>
      <point x="532" y="1092" type="curve" smooth="yes"/>
      <point x="279" y="1092"/>
      <point x="80" y="897"/>
      <point x="80" y="653" type="curve" smooth="yes"/>
      <point x="80" y="407"/>
      <point x="276" y="214"/>
    </contour>
  </outline>
</glyph>
<glyph name="perthousand" format="1">
  <advance width="2316"/>
  <unicode hex="2030"/>
  <outline>
    <contour>
      <point x="280" y="853" type="curve" smooth="yes"/>
      <point x="189" y="853"/>
      <point x="185" y="931"/>
      <point x="185" y="1035" type="curve" smooth="yes"/>
      <point x="185" y="1156"/>
      <point x="191" y="1229"/>
      <point x="280" y="1229" type="curve" smooth="yes"/>
      <point x="366" y="1229"/>
      <point x="379" y="1159"/>
      <point x="379" y="1048" type="curve"/>
      <point x="377" y="912"/>
      <point x="360" y="853"/>
    </contour>
    <contour>
      <point x="280" y="685" type="curve" smooth="yes"/>
      <point x="500" y="685"/>
      <point x="600" y="804"/>
      <point x="600" y="1065" type="curve" smooth="yes"/>
      <point x="600" y="1286"/>
      <point x="484" y="1394"/>
      <point x="280" y="1394" type="curve" smooth="yes"/>
      <point x="63" y="1394"/>
      <point x="-43" y="1278"/>
      <point x="-43" y="1016" type="curve" smooth="yes"/>
      <point x="-43" y="789"/>
      <point x="76" y="685"/>
    </contour>
    <contour>
      <point x="280" y="0" type="line"/>
      <point x="521" y="0" type="line"/>
      <point x="1252" y="1391" type="line"/>
      <point x="1011" y="1391" type="line"/>
    </contour>
    <contour>
      <point x="1266" y="164" type="curve" smooth="yes"/>
      <point x="1175" y="164"/>
      <point x="1169" y="241"/>
      <point x="1169" y="346" type="curve" smooth="yes"/>
      <point x="1169" y="467"/>
      <point x="1177" y="542"/>
      <point x="1266" y="542" type="curve" smooth="yes"/>
      <point x="1353" y="542"/>
      <point x="1363" y="470"/>
      <point x="1363" y="359" type="curve" smooth="yes"/>
      <point x="1361" y="223"/>
      <point x="1346" y="164"/>
    </contour>
    <contour>
      <point x="1266" y="-3" type="curve" smooth="yes"/>
      <point x="1487" y="-3"/>
      <point x="1587" y="115"/>
      <point x="1587" y="377" type="curve" smooth="yes"/>
      <point x="1587" y="598"/>
      <point x="1470" y="707"/>
      <point x="1266" y="707" type="curve" smooth="yes"/>
      <point x="1049" y="707"/>
      <point x="942" y="590"/>
      <point x="942" y="328" type="curve" smooth="yes"/>
      <point x="942" y="101"/>
      <point x="1062" y="-3"/>
    </contour>
    <contour>
      <point x="2039" y="164" type="curve" smooth="yes"/>
      <point x="1948" y="164"/>
      <point x="1942" y="242"/>
      <point x="1942" y="346" type="curve" smooth="yes"/>
      <point x="1942" y="467"/>
      <point x="1950" y="542"/>
      <point x="2039" y="542" type="curve" smooth="yes"/>
      <point x="2126" y="542"/>
      <point x="2136" y="470"/>
      <point x="2136" y="359" type="curve"/>
      <point x="2134" y="223"/>
      <point x="2119" y="164"/>
    </contour>
    <contour>
      <point x="2039" y="-3" type="curve" smooth="yes"/>
      <point x="2260" y="-3"/>
      <point x="2358" y="115"/>
      <point x="2358" y="377" type="curve" smooth="yes"/>
      <point x="2358" y="598"/>
      <point x="2243" y="707"/>
      <point x="2039" y="707" type="curve" smooth="yes"/>
      <point x="1822" y="707"/>
      <point x="1715" y="590"/>
      <point x="1715" y="328" type="curve" smooth="yes"/>
      <point x="1715" y="101"/>
      <point x="1835" y="-3"/>
    </contour>
  </outline>
</glyph>
<glyph name="guilsinglleft" format="1">
  <advance width="507"/>
  <unicode hex="2039"/>
  <outline>
    <contour>
      <point x="499" y="134" type="curve"/>
      <point x="499" y="409" type="line"/>
      <point x="423" y="471"/>
      <point x="352" y="529"/>
      <point x="275" y="589" type="curve"/>
      <point x="499" y="771" type="line"/>
      <point x="499" y="1048" type="line"/>
      <point x="499" y="1048"/>
      <point x="103" y="719"/>
      <point x="-1" y="635" type="curve"/>
      <point x="-1" y="533" type="line"/>
      <point x="101" y="457"/>
      <point x="499" y="134"/>
    </contour>
  </outline>
</glyph>
<glyph name="guilsinglright" format="1">
  <advance width="507"/>
  <unicode hex="203A"/>
  <outline>
    <contour>
      <point x="10" y="134" type="line"/>
      <point x="10" y="134"/>
      <point x="406" y="462"/>
      <point x="510" y="546" type="curve"/>
      <point x="510" y="648" type="line"/>
      <point x="408" y="724"/>
      <point x="10" y="1048"/>
      <point x="10" y="1048" type="curve"/>
      <point x="10" y="772" type="line"/>
      <point x="86" y="710"/>
      <point x="157" y="649"/>
      <point x="234" y="589" type="curve"/>
      <point x="10" y="410" type="line"/>
    </contour>
  </outline>
</glyph>
<glyph name="fraction" format="1">
  <advance width="949"/>
  <unicode hex="2044"/>
  <outline>
    <contour>
      <point x="-55" y="-12" type="line"/>
      <point x="206" y="-12" type="line"/>
      <point x="1003" y="1403" type="line"/>
      <point x="744" y="1403" type="line"/>
    </contour>
  </outline>
</glyph>
<glyph name="Euro" format="1">
  <advance width="1162"/>
  <unicode hex="20AC"/>
  <outline>
    <contour>
      <point x="791" y="-23" type="curve" smooth="yes"/>
      <point x="902" y="-23"/>
      <point x="1068" y="5"/>
      <point x="1190" y="98" type="curve"/>
      <point x="1190" y="358" type="line"/>
      <point x="1104" y="358" type="line"/>
      <point x="1061" y="164"/>
      <point x="847" y="160"/>
      <point x="773" y="160" type="curve"/>
      <point x="494" y="160"/>
      <point x="387" y="344"/>
      <point x="360" y="532" type="curve"/>
      <point x="951" y="532" type="line"/>
      <point x="982" y="661" type="line"/>
      <point x="343" y="661" type="line"/>
      <point x="341" y="676"/>
      <point x="340" y="698"/>
      <point x="340" y="721" type="curve" smooth="yes"/>
      <point x="340" y="722"/>
      <point x="342" y="818"/>
      <point x="342" y="819" type="curve"/>
      <point x="999" y="819" type="line"/>
      <point x="1029" y="942" type="line"/>
      <point x="356" y="942" type="line"/>
      <point x="412" y="1252"/>
      <point x="608" y="1322"/>
      <point x="776" y="1322" type="curve" smooth="yes"/>
      <point x="925" y="1322"/>
      <point x="1054" y="1264"/>
      <point x="1111" y="1123" type="curve"/>
      <point x="1190" y="1123" type="line"/>
      <point x="1190" y="1379" type="line"/>
      <point x="1069" y="1468"/>
      <point x="921" y="1503"/>
      <point x="778" y="1503" type="curve" smooth="yes"/>
      <point x="426" y="1503"/>
      <point x="174" y="1335"/>
      <point x="112" y="942" type="curve"/>
      <point x="-17" y="942" type="line"/>
      <point x="-41" y="819" type="line"/>
      <point x="101" y="819" type="line"/>
      <point x="101" y="818"/>
      <point x="99" y="722"/>
      <point x="99" y="721" type="curve" smooth="yes"/>
      <point x="99" y="698"/>
      <point x="100" y="676"/>
      <point x="102" y="661" type="curve"/>
      <point x="-7" y="661" type="line"/>
      <point x="-41" y="532" type="line"/>
      <point x="117" y="532" type="line"/>
      <point x="198" y="147"/>
      <point x="419" y="-23"/>
    </contour>
  </outline>
</glyph>
<glyph name="trademark" format="1">
  <advance width="1642"/>
  <unicode hex="2122"/>
  <outline>
    <contour>
      <point x="728" y="771" type="line"/>
      <point x="873" y="771" type="line"/>
      <point x="873" y="1355" type="line"/>
      <point x="883" y="1355" type="line"/>
      <point x="1081" y="896" type="line"/>
      <point x="1207" y="896" type="line"/>
      <point x="1400" y="1350" type="line"/>
      <point x="1409" y="1350" type="line"/>
      <point x="1409" y="771" type="line"/>
      <point x="1557" y="771" type="line"/>
      <point x="1557" y="1481" type="line"/>
      <point x="1325" y="1481" type="line"/>
      <point x="1145" y="1074" type="line"/>
      <point x="970" y="1481" type="line"/>
      <point x="728" y="1481" type="line"/>
    </contour>
    <contour>
      <point x="273" y="771" type="line"/>
      <point x="420" y="771" type="line"/>
      <point x="420" y="1361" type="line"/>
      <point x="618" y="1361" type="line"/>
      <point x="618" y="1481" type="line"/>
      <point x="75" y="1481" type="line"/>
      <point x="75" y="1361" type="line"/>
      <point x="273" y="1361" type="line"/>
    </contour>
  </outline>
</glyph>
<glyph name="partialdiff" format="1">
  <advance width="1099"/>
  <unicode hex="2202"/>
  <outline>
    <contour>
      <point x="450" y="-16" type="curve" smooth="yes"/>
      <point x="790" y="-16"/>
      <point x="992" y="267"/>
      <point x="1037" y="711" type="curve"/>
      <point x="1045" y="778"/>
      <point x="1049" y="844"/>
      <point x="1046" y="906" type="curve" smooth="yes"/>
      <point x="1032" y="1258"/>
      <point x="875" y="1434"/>
      <point x="605" y="1450" type="curve" smooth="yes"/>
      <point x="470" y="1458"/>
      <point x="365" y="1423"/>
      <point x="286" y="1378" type="curve"/>
      <point x="264" y="1175" type="line"/>
      <point x="340" y="1221"/>
      <point x="434" y="1262"/>
      <point x="551" y="1240" type="curve"/>
      <point x="697" y="1217"/>
      <point x="777" y="1079"/>
      <point x="777" y="866" type="curve" smooth="yes"/>
      <point x="777" y="857"/>
      <point x="777" y="837"/>
      <point x="775" y="819" type="curve"/>
      <point x="771" y="819" type="line"/>
      <point x="726" y="892"/>
      <point x="640" y="956"/>
      <point x="519" y="956" type="curve" smooth="yes"/>
      <point x="253" y="956"/>
      <point x="55" y="712"/>
      <point x="55" y="398" type="curve" smooth="yes"/>
      <point x="55" y="161"/>
      <point x="199" y="-16"/>
    </contour>
    <contour>
      <point x="482" y="189" type="curve" smooth="yes"/>
      <point x="382" y="189"/>
      <point x="326" y="269"/>
      <point x="326" y="403" type="curve" smooth="yes"/>
      <point x="326" y="585"/>
      <point x="434" y="765"/>
      <point x="573" y="765" type="curve" smooth="yes"/>
      <point x="663" y="765"/>
      <point x="723" y="700"/>
      <point x="746" y="613" type="curve"/>
      <point x="720" y="381"/>
      <point x="618" y="189"/>
    </contour>
  </outline>
</glyph>
<glyph name="product" format="1">
  <advance width="1299"/>
  <unicode hex="220F"/>
  <outline>
    <contour>
      <point x="91" y="-267" type="line"/>
      <point x="333" y="-267" type="line"/>
      <point x="333" y="1203" type="line"/>
      <point x="967" y="1203" type="line"/>
      <point x="967" y="-267" type="line"/>
      <point x="1208" y="-267" type="line"/>
      <point x="1208" y="1430" type="line"/>
      <point x="91" y="1430" type="line"/>
    </contour>
  </outline>
</glyph>
<glyph name="summation" format="1">
  <advance width="1184"/>
  <unicode hex="2211"/>
  <outline>
    <contour>
      <point x="81" y="0" type="line"/>
      <point x="1102" y="0" type="line"/>
      <point x="1102" y="195" type="line"/>
      <point x="362" y="195" type="line"/>
      <point x="868" y="797" type="line"/>
      <point x="395" y="1301" type="line"/>
      <point x="1072" y="1301" type="line"/>
      <point x="1072" y="1481" type="line"/>
      <point x="102" y="1481" type="line"/>
      <point x="102" y="1318" type="line"/>
      <point x="592" y="791" type="line"/>
      <point x="81" y="190" type="line"/>
    </contour>
  </outline>
</glyph>
<glyph name="minus" format="1">
  <advance width="1157"/>
  <unicode hex="2212"/>
  <outline>
    <contour>
      <point x="90" y="411" type="line"/>
      <point x="1067" y="411" type="line"/>
      <point x="1067" y="605" type="line"/>
      <point x="90" y="605" type="line"/>
    </contour>
  </outline>
</glyph>
<glyph name="uni2215" format="1">
  <advance width="684"/>
  <unicode hex="2215"/>
  <outline>
    <contour>
      <point x="-49" y="0" type="line"/>
      <point x="219" y="0" type="line"/>
      <point x="732" y="1480" type="line"/>
      <point x="462" y="1480" type="line"/>
    </contour>
  </outline>
</glyph>
<glyph name="uni2219" format="1">
  <advance width="425"/>
  <unicode hex="2219"/>
  <outline>
    <contour>
      <point x="213" y="434" type="curve" smooth="yes"/>
      <point x="285" y="434"/>
      <point x="341" y="490"/>
      <point x="341" y="562" type="curve" smooth="yes"/>
      <point x="341" y="634"/>
      <point x="285" y="691"/>
      <point x="213" y="691" type="curve" smooth="yes"/>
      <point x="141" y="691"/>
      <point x="83" y="634"/>
      <point x="83" y="562" type="curve" smooth="yes"/>
      <point x="83" y="490"/>
      <point x="141" y="434"/>
    </contour>
  </outline>
</glyph>
<glyph name="radical" format="1">
  <advance width="954"/>
  <unicode hex="221A"/>
  <outline>
    <contour>
      <point x="428" y="-100" type="line"/>
      <point x="611" y="-100" type="line"/>
      <point x="1007" y="1493" type="line"/>
      <point x="835" y="1493" type="line"/>
      <point x="744" y="1117"/>
      <point x="649" y="743"/>
      <point x="558" y="369" type="curve" smooth="yes"/>
      <point x="514" y="186" type="line"/>
      <point x="492" y="229"/>
      <point x="470" y="304"/>
      <point x="451" y="360" type="curve"/>
      <point x="282" y="815" type="line"/>
      <point x="-42" y="775" type="line"/>
      <point x="-31" y="633" type="line"/>
      <point x="132" y="651" type="line"/>
    </contour>
  </outline>
</glyph>
<glyph name="integral" format="1">
  <advance width="632"/>
  <unicode hex="222B"/>
  <outline>
    <contour>
      <point x="93" y="-410" type="curve" smooth="yes"/>
      <point x="349" y="-410"/>
      <point x="440" y="-287"/>
      <point x="440" y="105" type="curve"/>
      <point x="440" y="1011" type="line" smooth="yes"/>
      <point x="440" y="1237"/>
      <point x="455" y="1326"/>
      <point x="579" y="1326" type="curve" smooth="yes"/>
      <point x="610" y="1326"/>
      <point x="642" y="1317"/>
      <point x="671" y="1304" type="curve"/>
      <point x="680" y="1502" type="line"/>
      <point x="647" y="1514"/>
      <point x="601" y="1521"/>
      <point x="546" y="1521" type="curve" smooth="yes"/>
      <point x="321" y="1521"/>
      <point x="186" y="1374"/>
      <point x="186" y="1105" type="curve" smooth="yes"/>
      <point x="186" y="18" type="line" smooth="yes"/>
      <point x="186" y="-160"/>
      <point x="144" y="-210"/>
      <point x="58" y="-210" type="curve" smooth="yes"/>
      <point x="27" y="-210"/>
      <point x="-7" y="-201"/>
      <point x="-38" y="-189" type="curve"/>
      <point x="-47" y="-386" type="line"/>
      <point x="-12" y="-398"/>
      <point x="36" y="-410"/>
    </contour>
  </outline>
</glyph>
<glyph name="approxequal" format="1">
  <advance width="1065"/>
  <unicode hex="2248"/>
  <outline>
    <contour>
      <point x="204" y="203" type="line"/>
      <point x="222" y="292"/>
      <point x="263" y="350"/>
      <point x="345" y="350" type="curve" smooth="yes"/>
      <point x="383" y="350"/>
      <point x="433" y="326"/>
      <point x="500" y="287" type="curve" smooth="yes"/>
      <point x="594" y="234"/>
      <point x="667" y="208"/>
      <point x="732" y="208" type="curve" smooth="yes"/>
      <point x="892" y="208"/>
      <point x="995" y="324"/>
      <point x="1018" y="493" type="curve"/>
      <point x="861" y="516" type="line"/>
      <point x="852" y="433"/>
      <point x="807" y="393"/>
      <point x="732" y="381" type="curve" smooth="yes"/>
      <point x="689" y="374"/>
      <point x="630" y="400"/>
      <point x="558" y="442" type="curve"/>
      <point x="489" y="481"/>
      <point x="415" y="512"/>
      <point x="337" y="512" type="curve" smooth="yes"/>
      <point x="177" y="512"/>
      <point x="70" y="398"/>
      <point x="47" y="223" type="curve"/>
    </contour>
    <contour>
      <point x="204" y="589" type="line"/>
      <point x="222" y="676"/>
      <point x="263" y="733"/>
      <point x="345" y="733" type="curve" smooth="yes"/>
      <point x="384" y="733"/>
      <point x="434" y="712"/>
      <point x="500" y="674" type="curve"/>
      <point x="594" y="620"/>
      <point x="667" y="594"/>
      <point x="734" y="594" type="curve" smooth="yes"/>
      <point x="892" y="594"/>
      <point x="995" y="710"/>
      <point x="1018" y="879" type="curve"/>
      <point x="861" y="902" type="line"/>
      <point x="850" y="817"/>
      <point x="806" y="767"/>
      <point x="726" y="764" type="curve" smooth="yes"/>
      <point x="683" y="762"/>
      <point x="627" y="786"/>
      <point x="558" y="826" type="curve" smooth="yes"/>
      <point x="489" y="866"/>
      <point x="415" y="898"/>
      <point x="338" y="898" type="curve" smooth="yes"/>
      <point x="177" y="898"/>
      <point x="70" y="786"/>
      <point x="47" y="612" type="curve"/>
    </contour>
  </outline>
</glyph>
<glyph name="notequal" format="1">
  <advance width="1086"/>
  <unicode hex="2260"/>
  <outline>
    <contour>
      <point x="188" y="50" type="line"/>
      <point x="376" y="39" type="line"/>
      <point x="497" y="270" type="line"/>
      <point x="996" y="270" type="line"/>
      <point x="996" y="435" type="line"/>
      <point x="578" y="435" type="line"/>
      <point x="696" y="663" type="line"/>
      <point x="996" y="663" type="line"/>
      <point x="996" y="828" type="line"/>
      <point x="778" y="828" type="line"/>
      <point x="899" y="1055" type="line"/>
      <point x="709" y="1069" type="line"/>
      <point x="585" y="828" type="line"/>
      <point x="91" y="828" type="line"/>
      <point x="91" y="663" type="line"/>
      <point x="502" y="663" type="line"/>
      <point x="386" y="435" type="line"/>
      <point x="91" y="435" type="line"/>
      <point x="91" y="270" type="line"/>
      <point x="301" y="270" type="line"/>
    </contour>
  </outline>
</glyph>
<glyph name="lessequal" format="1">
  <advance width="1078"/>
  <unicode hex="2264"/>
  <outline>
    <contour>
      <point x="979" y="221" type="line"/>
      <point x="979" y="414" type="line"/>
      <point x="317" y="682" type="line"/>
      <point x="979" y="961" type="line"/>
      <point x="979" y="1154" type="line"/>
      <point x="101" y="757" type="line"/>
      <point x="101" y="607" type="line"/>
    </contour>
    <contour>
      <point x="86" y="2" type="line"/>
      <point x="992" y="2" type="line"/>
      <point x="992" y="168" type="line"/>
      <point x="86" y="168" type="line"/>
    </contour>
  </outline>
</glyph>
<glyph name="greaterequal" format="1">
  <advance width="1040"/>
  <unicode hex="2265"/>
  <outline>
    <contour>
      <point x="100" y="221" type="line"/>
      <point x="943" y="607" type="line"/>
      <point x="943" y="756" type="line"/>
      <point x="100" y="1154" type="line"/>
      <point x="100" y="961" type="line"/>
      <point x="740" y="680" type="line"/>
      <point x="100" y="414" type="line"/>
    </contour>
    <contour>
      <point x="86" y="2" type="line"/>
      <point x="954" y="2" type="line"/>
      <point x="954" y="168" type="line"/>
      <point x="86" y="168" type="line"/>
    </contour>
  </outline>
</glyph>
<glyph name="lozenge" format="1">
  <advance width="1052"/>
  <unicode hex="25CA"/>
  <outline>
    <contour>
      <point x="457" y="-30" type="line"/>
      <point x="588" y="-30" type="line"/>
      <point x="994" y="674" type="line"/>
      <point x="591" y="1376" type="line"/>
      <point x="462" y="1376" type="line"/>
      <point x="57" y="672" type="line"/>
    </contour>
    <contour>
      <point x="523" y="177" type="line"/>
      <point x="248" y="674" type="line"/>
      <point x="528" y="1170" type="line"/>
      <point x="805" y="671" type="line" smooth="yes"/>
    </contour>
  </outline>
</glyph>
<glyph name="dblgravecmb" format="1">
  <advance width="727"/>
  <outline>
    <contour>
      <point x="217" y="1138" type="line"/>
      <point x="373" y="1138" type="line"/>
      <point x="172" y="1482" type="line"/>
      <point x="-56" y="1482" type="line"/>
    </contour>
    <contour>
      <point x="526" y="1138" type="line"/>
      <point x="682" y="1138" type="line"/>
      <point x="509" y="1482" type="line"/>
      <point x="262" y="1482" type="line"/>
    </contour>
  </outline>
</glyph>
<glyph name="f_i" format="1">
  <advance width="1210"/>
  <outline>
    <contour>
      <point x="188" y="0" type="line"/>
      <point x="430" y="0" type="line"/>
      <point x="430" y="870" type="line"/>
      <point x="828" y="870" type="line"/>
      <point x="828" y="0" type="line"/>
      <point x="1071" y="0" type="line"/>
      <point x="1071" y="1037" type="line"/>
      <point x="421" y="1037" type="line"/>
      <point x="421" y="1235"/>
      <point x="460" y="1267"/>
      <point x="587" y="1267" type="curve" smooth="yes"/>
      <point x="643" y="1267"/>
      <point x="716" y="1255"/>
      <point x="717" y="1255" type="curve"/>
      <point x="717" y="1430" type="line"/>
      <point x="662" y="1436"/>
      <point x="613" y="1442"/>
      <point x="540" y="1442" type="curve" smooth="yes"/>
      <point x="273" y="1442"/>
      <point x="188" y="1326"/>
      <point x="188" y="1075" type="curve" smooth="yes"/>
      <point x="188" y="1037" type="line"/>
      <point x="23" y="1037" type="line"/>
      <point x="23" y="870" type="line"/>
      <point x="188" y="870" type="line"/>
    </contour>
    <contour>
      <point x="950" y="1149" type="curve" smooth="yes"/>
      <point x="1048" y="1149"/>
      <point x="1097" y="1221"/>
      <point x="1097" y="1290" type="curve" smooth="yes"/>
      <point x="1097" y="1362"/>
      <point x="1047" y="1432"/>
      <point x="950" y="1432" type="curve" smooth="yes"/>
      <point x="850" y="1432"/>
      <point x="801" y="1363"/>
      <point x="801" y="1290" type="curve" smooth="yes"/>
      <point x="801" y="1221"/>
      <point x="851" y="1149"/>
    </contour>
  </outline>
</glyph>
<glyph name="f_l" format="1">
  <advance width="1341"/>
  <outline>
    <contour>
      <point x="1226" y="-6" type="curve" smooth="yes"/>
      <point x="1308" y="-6" type="line"/>
      <point x="1308" y="175" type="line"/>
      <point x="1173" y="175"/>
      <point x="1113" y="174"/>
      <point x="1113" y="302" type="curve" smooth="yes"/>
      <point x="1113" y="1411" type="line"/>
      <point x="1113" y="1411"/>
      <point x="776" y="1442"/>
      <point x="577" y="1442" type="curve" smooth="yes"/>
      <point x="310" y="1442"/>
      <point x="188" y="1326"/>
      <point x="188" y="1075" type="curve" smooth="yes"/>
      <point x="188" y="1037" type="line"/>
      <point x="23" y="1037" type="line"/>
      <point x="23" y="870" type="line"/>
      <point x="188" y="870" type="line"/>
      <point x="188" y="0" type="line"/>
      <point x="430" y="0" type="line"/>
      <point x="430" y="870" type="line"/>
      <point x="688" y="870" type="line"/>
      <point x="688" y="1037" type="line"/>
      <point x="421" y="1037" type="line"/>
      <point x="421" y="1235"/>
      <point x="497" y="1267"/>
      <point x="624" y="1267" type="curve" smooth="yes"/>
      <point x="680" y="1267"/>
      <point x="869" y="1255"/>
      <point x="870" y="1255" type="curve"/>
      <point x="870" y="348" type="line" smooth="yes"/>
      <point x="870" y="196"/>
      <point x="834" y="-6"/>
    </contour>
  </outline>
</glyph>
<glyph name="one.superior" format="1">
  <advance width="561"/>
  <outline>
    <contour>
      <point x="81" y="552" type="line"/>
      <point x="499" y="552" type="line"/>
      <point x="499" y="654" type="line"/>
      <point x="357" y="654" type="line"/>
      <point x="357" y="1375" type="line"/>
      <point x="206" y="1375" type="line"/>
      <point x="186" y="1332"/>
      <point x="148" y="1296"/>
      <point x="67" y="1277" type="curve"/>
      <point x="67" y="1193" type="line"/>
      <point x="222" y="1239" type="line"/>
      <point x="222" y="654" type="line"/>
      <point x="81" y="654" type="line"/>
    </contour>
  </outline>
</glyph>
<glyph name="three.superior" format="1">
  <advance width="677"/>
  <outline>
    <contour>
      <point x="308" y="546" type="curve" smooth="yes"/>
      <point x="505" y="546"/>
      <point x="622" y="643"/>
      <point x="622" y="784" type="curve" smooth="yes"/>
      <point x="622" y="894"/>
      <point x="535" y="965"/>
      <point x="460" y="988" type="curve"/>
      <point x="527" y="1018"/>
      <point x="593" y="1065"/>
      <point x="593" y="1169" type="curve" smooth="yes"/>
      <point x="592" y="1281"/>
      <point x="505" y="1383"/>
      <point x="305" y="1383" type="curve" smooth="yes"/>
      <point x="210" y="1383"/>
      <point x="114" y="1357"/>
      <point x="64" y="1321" type="curve"/>
      <point x="64" y="1225" type="line"/>
      <point x="95" y="1225" type="line"/>
      <point x="96" y="1225"/>
      <point x="169" y="1280"/>
      <point x="289" y="1280" type="curve" smooth="yes"/>
      <point x="403" y="1280"/>
      <point x="458" y="1236"/>
      <point x="458" y="1169" type="curve" smooth="yes"/>
      <point x="458" y="1093"/>
      <point x="418" y="1032"/>
      <point x="275" y="1032" type="curve" smooth="yes"/>
      <point x="209" y="1032" type="line"/>
      <point x="209" y="947" type="line"/>
      <point x="275" y="947" type="line" smooth="yes"/>
      <point x="431" y="947"/>
      <point x="488" y="861"/>
      <point x="488" y="785" type="curve" smooth="yes"/>
      <point x="488" y="696"/>
      <point x="418" y="646"/>
      <point x="294" y="646" type="curve" smooth="yes"/>
      <point x="147" y="646"/>
      <point x="96" y="705"/>
      <point x="95" y="705" type="curve"/>
      <point x="64" y="705" type="line"/>
      <point x="64" y="607" type="line"/>
      <point x="99" y="584"/>
      <point x="186" y="546"/>
    </contour>
  </outline>
</glyph>
<glyph name="two.superior" format="1">
  <advance width="644"/>
  <outline>
    <contour>
      <point x="78" y="553" type="line"/>
      <point x="565" y="553" type="line"/>
      <point x="565" y="654" type="line"/>
      <point x="230" y="654" type="line"/>
      <point x="423" y="844"/>
      <point x="561" y="997"/>
      <point x="561" y="1158" type="curve" smooth="yes"/>
      <point x="561" y="1296"/>
      <point x="475" y="1384"/>
      <point x="316" y="1384" type="curve" smooth="yes"/>
      <point x="233" y="1384"/>
      <point x="126" y="1346"/>
      <point x="90" y="1310" type="curve"/>
      <point x="114" y="1213" type="line"/>
      <point x="145" y="1243"/>
      <point x="239" y="1281"/>
      <point x="297" y="1281" type="curve" smooth="yes"/>
      <point x="412" y="1281"/>
      <point x="443" y="1231"/>
      <point x="443" y="1153" type="curve" smooth="yes"/>
      <point x="443" y="1027"/>
      <point x="241" y="810"/>
      <point x="78" y="652" type="curve"/>
    </contour>
  </outline>
</glyph>
